{"glyphs":{"0":{"ha":763,"x_min":88,"x_max":671,"o":"m 671 703 l 671 257 q 585 51 671 117 q 381 -15 500 -15 q 174 51 261 -15 q 88 257 88 117 l 88 704 q 166 921 88 847 q 382 994 244 994 q 595 917 519 994 q 671 703 671 839 m 626 257 l 626 711 q 563 887 626 824 q 379 950 499 950 q 196 887 260 950 q 132 710 132 824 l 132 257 q 203 85 132 143 q 381 28 275 28 q 556 83 486 28 q 626 257 626 138 z "},"1":{"ha":294,"x_min":39,"x_max":254,"o":"m 254 0 l 210 0 l 210 906 q 141 852 181 874 q 75 825 101 831 l 50 819 l 39 861 q 71 867 51 863 q 136 901 90 872 q 210 972 182 929 l 254 972 l 254 0 z "},"2":{"ha":567,"x_min":39,"x_max":526,"o":"m 526 0 l 39 0 l 39 44 l 425 596 q 479 756 479 683 q 424 891 479 839 q 292 943 369 943 q 167 903 215 943 q 99 803 118 863 l 57 819 q 297 986 115 986 q 453 926 388 986 q 525 767 525 860 q 463 574 525 674 l 92 43 l 526 43 l 526 0 z "},"3":{"ha":619,"x_min":39,"x_max":581,"o":"m 39 115 l 78 140 q 285 28 151 28 q 466 104 396 28 q 536 285 536 181 q 462 457 536 389 q 293 529 388 525 l 161 529 l 447 928 l 104 928 l 104 972 l 503 972 l 503 931 l 244 574 l 285 574 q 494 488 408 574 q 581 278 581 401 q 494 69 581 156 q 285 -17 408 -17 q 144 19 210 -17 q 39 115 79 54 z "},"4":{"ha":676,"x_min":39,"x_max":638,"o":"m 536 0 l 492 0 l 490 529 l 39 529 l 289 972 l 335 972 l 115 574 l 492 574 l 492 972 l 536 972 l 536 574 l 638 574 l 622 529 l 536 529 l 536 0 z "},"5":{"ha":619,"x_min":39,"x_max":581,"o":"m 39 115 l 76 139 q 164 58 107 88 q 285 28 221 28 q 465 103 393 28 q 536 278 536 178 q 465 454 536 379 q 286 529 394 529 l 88 529 l 135 972 l 503 972 l 503 928 l 175 928 l 136 574 l 285 574 q 494 488 408 574 q 581 278 581 401 q 494 69 581 156 q 285 -17 408 -17 q 144 19 210 -17 q 39 115 79 54 z "},"6":{"ha":668,"x_min":39,"x_max":629,"o":"m 39 279 l 39 640 q 108 856 39 756 q 215 940 146 907 q 378 972 285 972 l 426 972 l 426 928 l 372 928 q 178 863 263 928 q 108 768 135 829 q 82 626 82 707 l 82 421 q 188 537 119 500 q 333 574 256 574 q 543 488 457 574 q 629 278 629 401 q 542 69 629 156 q 333 -17 456 -17 q 125 69 211 -17 q 39 279 39 156 m 82 289 l 82 279 q 155 101 82 174 q 333 28 228 28 q 512 101 439 28 q 585 279 585 174 q 512 457 585 385 q 335 529 439 529 q 158 460 231 529 q 82 289 86 392 z "},"7":{"ha":625,"x_min":39,"x_max":586,"o":"m 106 0 l 57 0 l 535 928 l 39 928 l 39 972 l 586 972 l 586 928 l 106 0 z "},"8":{"ha":660,"x_min":39,"x_max":619,"o":"m 326 513 q 154 442 225 511 q 83 269 83 372 q 155 97 83 167 q 331 28 226 28 q 505 97 435 28 q 575 269 575 167 q 502 442 575 372 q 326 513 429 511 m 428 538 q 567 432 515 508 q 619 271 619 356 q 537 66 619 149 q 331 -17 454 -17 q 123 66 207 -17 q 39 271 39 149 q 90 433 39 358 q 229 538 140 507 q 132 622 169 563 q 94 744 94 681 q 162 916 94 847 q 331 985 229 985 q 500 916 432 985 q 568 744 568 847 q 531 622 568 679 q 428 538 494 565 m 138 746 q 138 705 138 746 q 195 610 138 664 q 330 555 253 556 q 466 608 407 554 q 525 745 525 663 q 469 885 525 828 q 331 942 414 942 q 193 885 249 942 q 138 746 138 828 z "},"9":{"ha":668,"x_min":39,"x_max":629,"o":"m 290 0 l 242 0 l 242 44 l 296 44 q 489 108 406 44 q 559 202 533 142 q 585 343 585 263 l 585 547 q 480 431 547 468 q 335 394 413 394 q 125 481 211 394 q 39 689 39 567 q 125 898 39 811 q 334 985 211 985 q 543 899 457 985 q 629 689 629 813 l 629 329 q 558 115 629 214 q 453 32 522 64 q 290 0 383 0 m 585 679 l 585 689 q 513 867 585 794 q 335 940 440 940 q 156 867 229 940 q 82 689 82 794 q 156 511 82 583 q 333 439 229 439 q 510 508 438 439 q 585 679 582 576 z "}," ":{"ha":386,"x_min":0,"x_max":0,"o":""},"!":{"ha":281,"x_min":108,"x_max":169,"o":"m 158 167 l 122 167 l 108 951 q 140 986 108 986 q 169 953 169 986 l 158 167 m 168 30 q 168 24 168 30 q 159 9 168 18 q 138 0 150 0 q 118 9 126 0 q 110 30 110 18 q 118 51 110 42 q 138 60 126 60 q 159 51 150 60 q 168 30 168 42 z "},"\"":{"ha":592,"x_min":175,"x_max":413,"o":"m 400 711 l 367 711 l 354 989 q 365 1017 354 1010 q 383 1024 376 1024 l 397 1019 q 413 989 413 1010 l 400 711 m 222 711 l 189 711 l 175 989 q 186 1017 175 1010 q 205 1024 197 1024 q 224 1017 213 1024 q 235 989 235 1010 l 222 711 z "},"#":{"ha":851,"x_min":47,"x_max":808,"o":"m 808 296 l 540 296 l 471 0 l 426 0 l 496 296 l 265 296 l 197 0 l 153 0 l 222 296 l 47 296 l 47 340 l 232 340 l 288 574 l 47 574 l 47 618 l 299 618 l 381 972 l 425 972 l 342 618 l 572 618 l 654 972 l 699 972 l 615 618 l 808 618 l 808 574 l 606 574 l 550 340 l 808 340 l 808 296 m 506 340 l 561 574 l 332 574 l 276 340 l 506 340 z "},"$":{"ha":750,"x_min":47,"x_max":707,"o":"m 394 -158 l 351 -158 l 351 -15 q 131 70 211 -8 q 47 247 50 149 l 94 247 q 165 102 97 169 q 351 28 233 35 l 351 503 q 246 542 286 525 q 161 588 206 558 q 72 741 72 644 q 144 907 72 838 q 351 985 217 976 l 351 1135 l 394 1135 l 394 986 q 588 944 501 985 l 572 900 q 394 943 490 940 l 394 535 q 510 493 468 511 q 606 443 553 475 q 707 260 707 381 q 631 65 707 139 q 394 -15 554 -10 l 394 -158 m 394 488 l 394 28 q 585 88 511 32 q 658 260 658 143 q 575 407 658 356 q 394 488 506 450 m 351 550 l 351 942 q 183 882 247 933 q 119 751 119 831 q 178 630 119 671 q 351 550 238 589 z "},"%":{"ha":926,"x_min":50,"x_max":882,"o":"m 90 1 l 61 35 l 829 1028 l 863 996 l 90 1 m 824 43 q 794 14 824 43 q 682 -15 765 -15 q 540 43 599 -15 q 482 185 482 101 q 540 326 482 268 q 682 385 599 385 q 824 326 765 385 q 882 185 882 268 q 824 43 882 101 m 797 74 q 818 98 797 74 q 840 185 840 122 q 797 295 840 247 q 682 343 753 343 q 567 295 611 343 q 524 185 524 247 q 567 74 524 122 q 682 26 611 26 q 797 74 753 26 m 392 668 q 363 639 392 668 q 250 610 333 610 q 108 668 167 610 q 50 810 50 726 q 108 951 50 893 q 250 1010 167 1010 q 392 951 333 1010 q 450 810 450 893 q 392 668 450 726 m 365 699 q 386 723 365 699 q 408 810 408 747 q 365 919 408 872 q 250 967 321 967 q 136 919 179 967 q 93 810 93 872 q 136 699 93 747 q 250 651 179 651 q 365 699 321 651 z "},"&":{"ha":754,"x_min":49,"x_max":711,"o":"m 682 22 l 669 -15 q 560 144 568 15 q 444 22 507 58 q 296 -15 381 -15 q 106 72 171 -15 q 49 249 49 149 q 74 379 49 324 q 127 466 100 435 q 197 528 154 497 q 347 607 257 568 q 260 658 297 614 q 215 790 215 710 q 304 950 215 892 q 422 988 364 988 q 529 971 479 988 l 506 933 q 420 946 467 946 q 325 911 374 946 q 260 792 260 864 q 263 765 260 779 q 333 654 275 683 q 402 635 371 635 q 457 640 433 635 l 556 663 l 556 846 l 600 846 l 600 672 l 701 694 l 711 651 l 600 626 l 600 179 q 682 22 600 50 m 556 290 l 556 618 q 271 522 358 575 q 188 461 229 496 q 93 250 93 385 q 144 96 93 164 q 304 28 194 28 q 485 110 414 28 q 556 290 556 193 z "},"'":{"ha":232,"x_min":64,"x_max":124,"o":"m 110 818 l 76 818 l 64 983 q 75 1015 64 1007 q 94 1022 86 1022 q 113 1015 101 1022 q 124 983 124 1007 l 110 818 z "},"(":{"ha":381,"x_min":108,"x_max":269,"o":"m 269 -131 l 254 -165 q 142 -65 175 -119 q 108 99 108 -10 l 108 871 q 142 1034 108 979 q 254 1135 175 1089 l 269 1101 q 163 969 183 1049 q 153 883 153 932 l 153 89 q 193 -64 153 -15 q 228 -102 214 -90 q 269 -131 243 -114 z "},")":{"ha":381,"x_min":108,"x_max":269,"o":"m 124 -165 l 108 -131 q 149 -102 135 -114 q 185 -64 164 -90 q 226 89 226 -14 l 226 883 q 188 1032 226 982 q 110 1101 156 1074 l 124 1135 q 236 1034 203 1089 q 269 871 269 979 l 269 99 q 236 -65 269 -10 q 124 -165 203 -119 z "},"*":{"ha":489,"x_min":39,"x_max":449,"o":"m 385 617 l 350 590 l 243 735 l 142 590 l 106 615 l 206 757 l 39 818 l 54 858 l 219 793 l 219 972 l 265 972 l 264 793 l 433 858 l 449 818 l 278 757 l 385 617 z "},"+":{"ha":535,"x_min":47,"x_max":492,"o":"m 492 531 l 292 531 l 292 339 l 249 339 l 249 531 l 47 531 l 47 574 l 249 574 l 249 757 l 292 757 l 292 574 l 492 574 l 492 531 z "},",":{"ha":238,"x_min":32,"x_max":153,"o":"m 67 -117 l 32 -93 q 87 -52 65 -75 q 114 -17 108 -29 l 119 -3 l 113 -1 q 92 25 92 8 q 101 50 92 42 q 122 58 110 58 q 143 49 133 58 q 153 26 153 39 q 67 -117 153 -46 z "},"-":{"ha":569,"x_min":63,"x_max":507,"o":"m 507 529 l 63 529 l 63 574 l 507 574 l 507 529 z "},".":{"ha":176,"x_min":32,"x_max":92,"o":"m 92 30 q 92 24 92 30 q 83 9 92 18 q 62 0 74 0 q 41 9 50 0 q 32 30 32 18 q 41 51 32 42 q 62 60 50 60 q 83 51 74 60 q 92 30 92 42 z "},"/":{"ha":574,"x_min":39,"x_max":535,"o":"m 86 -158 l 39 -158 l 489 1135 l 535 1135 l 86 -158 z "},":":{"ha":138,"x_min":39,"x_max":99,"o":"m 99 183 q 99 177 99 183 q 90 162 99 171 q 69 153 81 153 q 48 162 57 153 q 39 183 39 171 q 48 203 39 194 q 69 213 57 213 q 90 203 81 213 q 99 183 99 194 m 99 551 q 99 545 99 551 q 90 530 99 539 q 69 521 81 521 q 48 530 57 521 q 39 551 39 539 q 48 572 39 563 q 69 581 57 581 q 90 572 81 581 q 99 551 99 563 z "},";":{"ha":199,"x_min":39,"x_max":160,"o":"m 157 385 q 157 380 157 385 q 148 365 157 374 q 127 356 139 356 q 106 365 115 356 q 97 385 97 374 q 106 406 97 397 q 127 415 115 415 q 148 406 139 415 q 157 385 157 397 m 74 -114 l 39 -90 q 94 -49 72 -72 q 121 -14 115 -26 l 126 0 l 119 1 q 99 28 99 11 q 108 53 99 44 q 129 61 117 61 q 151 51 142 61 q 160 29 160 42 q 74 -114 160 -43 z "},"<":{"ha":496,"x_min":39,"x_max":457,"o":"m 457 142 l 425 111 l 39 497 l 39 499 l 425 885 l 457 854 l 97 497 l 457 142 z "},"=":{"ha":522,"x_min":39,"x_max":483,"o":"m 483 529 l 39 529 l 39 574 l 483 574 l 483 529 m 483 383 l 39 383 l 39 428 l 483 428 l 483 383 z "},">":{"ha":496,"x_min":39,"x_max":457,"o":"m 71 111 l 39 142 l 399 497 l 39 854 l 71 885 l 457 499 l 457 497 l 71 111 z "},"?":{"ha":571,"x_min":39,"x_max":531,"o":"m 289 165 l 247 165 l 247 269 q 269 385 247 333 q 317 466 290 438 q 381 534 343 494 q 439 601 419 574 q 485 744 485 668 q 397 910 485 851 q 274 942 349 942 q 141 888 199 942 q 83 739 83 835 l 39 739 q 103 914 39 843 q 286 985 168 985 q 417 947 358 985 q 531 746 531 876 q 479 585 531 660 q 413 506 453 547 q 349 440 372 465 q 308 366 326 415 q 289 249 289 317 l 289 165 m 299 30 q 299 24 299 30 q 290 9 299 18 q 269 0 281 0 q 248 9 257 0 q 239 30 239 18 q 248 51 239 42 q 269 60 257 60 q 290 51 281 60 q 299 30 299 42 z "},"@":{"ha":993,"x_min":39,"x_max":954,"o":"m 450 75 q 210 283 225 75 l 210 424 q 332 624 210 578 q 428 639 375 639 q 697 567 542 639 q 631 708 694 657 q 425 763 567 763 q 183 692 283 763 q 83 475 83 622 l 83 264 q 185 34 83 117 q 450 -49 286 -49 q 749 28 633 -49 q 864 225 864 104 l 864 504 q 876 621 864 586 q 939 682 888 656 l 954 647 q 908 550 908 626 l 908 238 q 866 83 908 150 q 754 -19 824 17 q 447 -92 615 -92 q 158 -2 278 -92 q 39 263 39 88 l 39 472 q 131 706 39 628 q 287 788 208 769 q 435 806 365 806 q 700 704 625 806 q 744 551 744 644 l 796 529 l 796 486 l 744 508 l 744 126 q 450 75 556 75 m 699 163 l 699 524 q 415 596 554 596 q 300 553 347 596 q 253 419 253 510 l 253 286 q 289 175 253 217 q 453 118 340 118 q 699 163 565 118 z "},"A":{"ha":732,"x_min":17,"x_max":718,"o":"m 718 0 l 669 0 l 543 372 l 190 372 l 63 0 l 17 0 l 347 972 l 385 972 l 718 0 m 529 417 l 365 894 l 204 417 l 529 417 z "},"B":{"ha":761,"x_min":108,"x_max":710,"o":"m 428 0 l 108 0 l 108 972 l 415 972 q 594 915 529 972 q 660 746 660 857 q 632 635 660 688 q 549 556 604 583 q 547 553 547 554 l 547 551 q 663 460 617 524 q 710 290 710 396 q 653 97 710 179 q 566 26 624 53 q 428 0 508 0 m 153 574 l 447 574 q 564 618 515 574 q 614 750 614 664 q 561 883 614 836 q 404 929 508 929 l 153 929 l 153 574 m 153 43 l 425 43 q 601 106 539 43 q 664 284 664 168 q 601 465 664 400 q 436 529 539 529 l 153 529 l 153 43 z "},"C":{"ha":600,"x_min":92,"x_max":593,"o":"m 593 32 q 368 -14 475 -14 q 301 -10 346 -14 q 205 22 256 -6 q 123 108 154 49 q 92 254 92 167 l 92 700 q 122 860 92 806 q 213 951 151 914 q 363 986 275 986 q 558 940 472 986 l 543 907 q 372 944 451 944 q 196 885 260 944 q 153 817 171 861 q 136 713 136 772 l 136 257 q 260 44 136 93 q 385 25 308 25 q 582 71 461 25 l 593 32 z "},"D":{"ha":800,"x_min":108,"x_max":692,"o":"m 397 0 l 108 0 l 108 974 l 369 974 q 609 888 526 974 q 692 658 692 801 l 692 278 q 397 0 692 0 m 647 286 l 647 658 q 570 862 647 794 q 383 929 493 929 l 153 929 l 153 42 l 381 42 q 449 44 419 42 q 518 62 478 47 q 584 101 558 76 q 628 173 610 125 q 647 286 647 221 z "},"E":{"ha":646,"x_min":108,"x_max":572,"o":"m 569 0 l 108 0 l 108 972 l 572 972 l 572 929 l 153 929 l 153 574 l 451 574 l 436 529 l 153 529 l 153 42 l 569 42 l 569 0 z "},"F":{"ha":624,"x_min":108,"x_max":572,"o":"m 154 0 l 108 0 l 108 972 l 572 972 l 572 928 l 154 928 l 154 574 l 424 574 l 406 529 l 154 529 l 154 0 z "},"G":{"ha":746,"x_min":90,"x_max":661,"o":"m 543 906 q 368 944 444 944 q 268 927 313 944 q 198 885 224 910 q 153 811 172 860 q 135 697 135 763 l 135 260 q 203 92 135 156 q 387 29 271 29 q 560 94 503 29 q 618 254 618 158 l 618 372 l 486 372 l 469 417 l 661 417 l 661 0 l 624 0 l 617 100 q 383 -14 553 -14 q 176 56 261 -14 q 90 263 90 125 l 90 699 q 211 950 90 876 q 360 985 274 985 q 557 939 467 985 l 543 906 z "},"H":{"ha":817,"x_min":108,"x_max":706,"o":"m 706 0 l 661 0 l 661 529 l 153 529 l 153 0 l 108 0 l 108 972 l 153 972 l 153 574 l 661 574 l 661 972 l 706 972 l 706 0 z "},"I":{"ha":271,"x_min":40,"x_max":196,"o":"m 196 0 l 151 0 l 151 928 l 40 931 l 40 972 l 196 972 l 196 0 z "},"J":{"ha":246,"x_min":1,"x_max":168,"o":"m 13 -51 l 1 -17 q 124 163 124 -4 l 124 928 l 15 931 l 15 972 l 168 972 l 168 168 q 131 10 168 64 q 13 -51 93 -43 z "},"K":{"ha":664,"x_min":110,"x_max":661,"o":"m 661 0 l 610 0 l 265 532 l 154 383 l 154 0 l 110 0 l 110 974 l 154 974 l 154 457 l 538 974 l 589 974 l 293 571 l 661 0 z "},"L":{"ha":611,"x_min":108,"x_max":610,"o":"m 610 0 l 108 0 l 108 972 l 153 972 l 153 42 l 610 42 l 610 0 z "},"M":{"ha":964,"x_min":108,"x_max":853,"o":"m 853 0 l 810 0 l 810 844 l 503 0 l 457 0 l 151 844 l 151 0 l 108 0 l 108 972 l 151 972 l 481 69 l 810 972 l 853 972 l 853 0 z "},"N":{"ha":903,"x_min":108,"x_max":792,"o":"m 792 0 l 749 0 l 151 894 l 151 0 l 108 0 l 108 972 l 151 972 l 749 79 l 749 972 l 792 972 l 792 0 z "},"O":{"ha":763,"x_min":88,"x_max":671,"o":"m 671 703 l 671 257 q 585 51 671 117 q 381 -15 500 -15 q 174 51 261 -15 q 88 257 88 117 l 88 704 q 166 921 88 847 q 382 994 244 994 q 595 917 519 994 q 671 703 671 839 m 626 257 l 626 711 q 563 887 626 824 q 379 950 499 950 q 196 887 260 950 q 132 710 132 824 l 132 257 q 203 85 132 143 q 381 28 275 28 q 556 83 486 28 q 626 257 626 138 z "},"P":{"ha":763,"x_min":108,"x_max":711,"o":"m 153 417 l 440 417 q 667 675 667 417 q 613 861 667 794 q 453 928 560 928 l 153 928 l 153 417 m 153 0 l 108 0 l 108 972 l 450 972 q 647 892 582 972 q 711 675 711 811 q 642 443 711 517 q 563 393 615 414 q 442 372 511 372 l 153 372 l 153 0 z "},"Q":{"ha":763,"x_min":88,"x_max":671,"o":"m 594 -87 l 594 -131 q 379 -15 424 -131 q 172 53 257 -14 q 88 257 88 119 l 88 704 q 166 921 88 847 q 382 994 244 994 q 595 917 519 994 q 671 703 671 839 l 671 257 q 604 68 671 135 q 428 -14 538 1 q 594 -87 454 -86 m 626 258 l 626 717 q 557 892 626 833 q 381 950 488 950 q 203 894 274 950 q 133 717 133 838 l 133 257 q 203 87 133 143 q 368 28 274 31 q 363 122 363 61 l 363 242 l 407 242 l 408 122 q 414 29 408 61 q 570 98 514 36 q 626 258 626 160 z "},"R":{"ha":783,"x_min":108,"x_max":713,"o":"m 713 0 l 665 0 l 503 376 q 461 372 482 372 l 154 372 l 154 0 l 108 0 l 108 972 l 443 972 q 645 892 579 972 q 711 675 711 811 q 546 388 711 446 l 713 0 m 154 417 l 447 417 q 557 441 511 417 q 625 506 603 465 q 665 689 665 581 q 608 863 665 797 q 444 928 551 928 l 154 928 l 154 417 z "},"S":{"ha":779,"x_min":51,"x_max":711,"o":"m 51 247 l 99 247 q 175 97 101 165 q 376 28 249 28 q 583 83 503 28 q 663 260 663 139 q 619 374 663 326 q 510 447 575 422 q 369 499 446 471 q 228 551 293 526 q 120 627 164 576 q 76 747 76 678 q 157 915 76 844 q 389 986 238 986 q 592 944 504 986 l 576 900 q 384 943 493 943 q 199 891 275 943 q 124 743 124 839 q 184 630 124 675 q 331 558 244 585 q 503 499 417 531 q 651 409 590 468 q 711 263 711 350 q 630 60 711 135 q 388 -15 549 -15 q 141 65 228 -15 q 51 247 54 144 z "},"T":{"ha":558,"x_min":0,"x_max":558,"o":"m 297 0 l 254 0 l 253 929 l 0 929 l 0 972 l 558 972 l 558 929 l 297 929 l 297 0 z "},"U":{"ha":786,"x_min":103,"x_max":688,"o":"m 643 253 l 643 974 l 688 974 l 688 258 q 662 131 688 185 q 592 47 636 76 q 500 4 549 18 q 396 -10 451 -10 q 291 4 340 -10 q 198 47 242 18 q 128 131 154 76 q 103 258 103 185 l 103 974 l 147 974 l 147 253 q 222 86 147 140 q 396 32 296 32 q 569 87 496 32 q 643 253 643 142 z "},"V":{"ha":824,"x_min":108,"x_max":772,"o":"m 469 0 l 413 0 l 108 972 l 154 972 l 440 58 l 726 972 l 772 972 l 469 0 z "},"W":{"ha":1126,"x_min":108,"x_max":1075,"o":"m 832 0 l 772 0 l 593 881 l 414 0 l 354 0 l 108 972 l 157 972 l 381 67 l 565 972 l 621 972 l 804 65 l 1026 972 l 1075 972 l 832 0 z "},"X":{"ha":811,"x_min":56,"x_max":760,"o":"m 760 3 l 706 0 l 408 456 l 111 0 l 56 0 l 382 500 l 82 972 l 132 972 l 408 542 l 685 972 l 738 972 l 436 500 l 760 3 z "},"Y":{"ha":767,"x_min":83,"x_max":699,"o":"m 554 -10 l 543 25 q 578 40 567 33 q 611 65 589 46 q 654 211 654 103 l 654 451 q 541 366 614 392 q 401 340 468 340 q 169 413 254 340 q 83 629 83 486 l 83 972 l 128 972 l 128 629 q 198 448 128 511 q 401 385 268 385 q 572 433 503 385 q 654 560 640 482 l 654 972 l 699 972 l 699 207 q 554 -10 699 21 z "},"Z":{"ha":764,"x_min":43,"x_max":719,"o":"m 719 0 l 43 0 l 43 42 l 656 931 l 63 931 l 61 972 l 711 972 l 711 931 l 99 42 l 719 42 l 719 0 z "},"[":{"ha":443,"x_min":108,"x_max":332,"o":"m 332 -158 l 108 -158 l 108 1135 l 332 1135 l 332 1097 l 153 1092 l 153 -114 l 332 -121 l 332 -158 z "},"\\":{"ha":656,"x_min":108,"x_max":604,"o":"m 604 -158 l 557 -158 l 108 1135 l 154 1135 l 604 -158 z "},"]":{"ha":443,"x_min":108,"x_max":332,"o":"m 332 -158 l 108 -158 l 108 -121 l 288 -114 l 288 1092 l 108 1097 l 108 1135 l 332 1135 l 332 -158 z "},"^":{"ha":563,"x_min":108,"x_max":511,"o":"m 479 1019 l 313 1186 l 139 1021 l 108 1053 l 314 1249 l 511 1053 l 479 1019 z "},"_":{"ha":714,"x_min":106,"x_max":550,"o":"m 550 -44 l 106 -44 l 106 0 l 550 0 l 550 -44 z "},"`":{"ha":308,"x_min":65,"x_max":200,"o":"m 200 817 l 161 817 l 71 963 q 65 978 65 971 q 83 1010 65 1003 q 97 1013 90 1013 q 125 989 115 1013 l 200 817 z "},"a":{"ha":636,"x_min":51,"x_max":586,"o":"m 275 558 q 542 481 429 558 q 301 669 542 669 q 294 669 299 669 l 297 707 q 464 681 410 707 q 515 650 493 665 q 550 610 538 635 q 571 566 563 585 q 582 515 579 547 q 586 414 586 467 l 586 0 q 356 -14 442 -14 q 51 235 51 -14 l 51 350 q 151 533 51 485 q 275 558 203 558 m 122 122 q 134 100 122 122 q 188 58 147 79 q 279 31 228 38 q 382 25 331 25 q 542 39 433 25 l 542 439 q 272 517 426 510 q 263 518 268 518 q 145 476 194 518 q 96 346 96 435 l 96 225 q 122 122 96 164 z "},"b":{"ha":672,"x_min":108,"x_max":621,"o":"m 153 661 q 364 707 238 707 q 503 681 446 707 q 621 481 621 626 l 621 218 q 513 25 621 81 q 329 -17 431 -17 q 108 0 228 -17 l 108 972 l 153 972 l 153 661 m 307 25 q 576 217 576 25 l 576 476 q 544 591 576 546 q 463 651 513 636 q 356 667 414 667 q 153 619 240 667 l 153 42 q 307 25 235 25 z "},"c":{"ha":532,"x_min":50,"x_max":497,"o":"m 338 26 q 488 47 408 26 l 497 8 q 336 -15 408 -15 q 194 7 264 -15 q 50 250 50 54 l 50 428 q 89 593 50 526 q 308 708 156 708 q 494 664 400 708 l 481 626 q 331 667 397 667 q 215 649 264 667 q 130 576 165 632 q 94 436 94 519 l 94 235 q 338 26 94 26 z "},"d":{"ha":650,"x_min":86,"x_max":599,"o":"m 343 707 q 554 661 469 707 l 554 972 l 599 972 l 599 0 q 378 -17 479 -17 q 194 25 276 -17 q 86 218 86 81 l 86 481 q 204 681 86 626 q 343 707 261 707 m 400 25 q 554 42 472 25 l 554 619 q 351 667 467 667 q 244 651 293 667 q 163 591 194 636 q 131 476 131 546 l 131 217 q 400 25 131 25 z "},"e":{"ha":603,"x_min":49,"x_max":549,"o":"m 275 21 q 494 85 379 21 l 514 49 q 290 -17 407 -17 q 49 186 49 -17 l 49 471 q 119 646 49 583 q 304 708 189 708 q 484 647 419 708 q 549 475 549 585 l 549 326 l 93 303 l 93 185 q 148 60 93 99 q 275 21 203 21 m 504 368 l 504 479 q 443 624 504 581 q 299 668 382 668 q 154 620 215 668 q 93 471 93 572 l 93 346 l 504 368 z "},"f":{"ha":414,"x_min":108,"x_max":363,"o":"m 153 0 l 108 0 l 108 763 q 132 882 108 832 q 192 953 156 932 q 314 988 251 988 q 363 982 339 988 l 356 943 q 318 946 336 946 q 208 910 253 946 q 153 763 153 864 l 153 696 l 344 696 l 325 653 l 153 653 l 153 0 z "},"g":{"ha":622,"x_min":51,"x_max":575,"o":"m 426 -292 l 414 -254 q 501 -198 471 -233 q 531 -87 531 -162 l 531 97 q 310 -17 457 -17 q 119 50 188 -17 q 51 244 51 117 l 51 451 q 124 641 51 574 q 318 708 197 708 q 532 610 465 708 l 531 696 l 575 696 l 575 -89 q 540 -219 575 -172 q 426 -292 506 -267 m 531 229 l 531 522 q 453 631 513 596 q 317 667 394 667 q 175 625 242 667 q 118 556 140 603 q 96 444 96 510 l 96 232 q 151 81 96 136 q 301 25 207 25 q 463 76 394 25 q 531 229 531 128 z "},"h":{"ha":685,"x_min":89,"x_max":601,"o":"m 133 660 q 323 708 219 708 q 483 681 426 708 q 601 481 601 626 l 601 0 l 557 0 l 557 481 q 511 608 557 561 q 340 667 453 667 q 133 617 228 667 l 133 0 l 89 0 l 89 972 l 133 972 l 133 660 z "},"i":{"ha":276,"x_min":108,"x_max":165,"o":"m 160 0 l 115 0 l 115 696 l 160 696 l 160 0 m 165 958 q 165 952 165 958 q 157 938 165 946 q 137 929 149 929 q 117 938 125 929 q 108 958 108 946 q 117 978 108 969 q 137 986 125 986 q 157 978 149 986 q 165 958 165 969 z "},"j":{"ha":271,"x_min":-6,"x_max":161,"o":"m 111 -101 l 111 651 l 21 653 l 0 696 l 156 696 l 156 -111 q 116 -231 154 -181 q 0 -290 78 -282 l -6 -253 q 33 -242 10 -253 q 71 -217 56 -232 q 99 -172 86 -203 q 111 -101 111 -142 m 153 938 q 149 933 153 938 q 133 929 144 929 q 113 938 122 929 q 104 958 104 946 q 113 978 104 969 q 133 986 122 986 q 153 978 144 986 q 161 958 161 969 q 153 938 161 946 z "},"k":{"ha":607,"x_min":93,"x_max":603,"o":"m 603 0 l 550 0 l 251 485 l 138 382 l 138 0 l 93 0 l 93 972 l 138 972 l 138 435 l 449 722 l 481 692 l 285 514 q 603 0 422 286 z "},"l":{"ha":264,"x_min":108,"x_max":153,"o":"m 153 0 l 108 0 l 108 972 l 153 972 l 153 0 z "},"m":{"ha":1026,"x_min":108,"x_max":975,"o":"m 346 707 q 533 633 476 707 q 624 680 563 650 q 750 710 686 710 q 863 686 814 710 q 975 481 975 632 l 975 0 l 931 0 l 931 478 q 902 593 931 547 q 834 653 874 639 q 768 667 794 667 q 708 663 742 667 q 619 635 674 660 l 553 601 q 571 469 571 571 l 571 0 l 528 0 l 528 506 q 486 619 528 579 q 339 665 438 665 q 153 617 240 665 l 153 0 l 108 0 l 108 696 l 153 696 l 150 658 q 346 707 249 707 z "},"n":{"ha":694,"x_min":89,"x_max":601,"o":"m 133 660 q 323 708 219 708 q 483 681 426 708 q 601 481 601 626 l 601 0 l 557 0 l 557 481 q 511 606 557 560 q 338 665 453 665 q 133 617 222 665 l 133 0 l 89 0 l 89 696 l 133 696 l 133 660 z "},"o":{"ha":636,"x_min":67,"x_max":585,"o":"m 585 439 l 585 256 q 521 63 585 139 q 328 -14 457 -14 q 133 63 199 -14 q 67 256 67 140 l 67 439 q 134 641 67 571 q 325 711 201 711 q 517 638 449 711 q 585 439 585 565 m 540 250 l 540 443 q 481 613 540 557 q 326 669 421 669 q 171 613 231 669 q 111 443 111 557 l 111 250 q 165 91 111 156 q 326 26 219 26 q 487 90 433 26 q 540 250 540 153 z "},"p":{"ha":683,"x_min":108,"x_max":632,"o":"m 153 -292 l 108 -275 l 108 696 l 153 696 l 150 615 q 244 685 186 663 q 357 707 301 707 q 563 632 493 707 q 632 436 632 557 l 632 244 q 560 51 632 118 q 371 -17 488 -17 q 153 90 217 -17 l 153 -292 m 588 231 l 588 442 q 566 551 588 506 q 508 621 544 597 q 367 665 442 665 q 231 631 293 665 q 153 515 169 596 l 153 221 q 213 76 153 126 q 365 25 272 25 q 522 76 457 25 q 588 231 588 126 z "},"q":{"ha":622,"x_min":51,"x_max":575,"o":"m 575 -292 l 531 -275 l 531 90 q 313 -17 467 -17 q 124 51 196 -17 q 51 244 51 118 l 51 436 q 121 632 51 557 q 326 707 190 707 q 440 685 382 707 q 533 615 497 663 l 531 696 l 575 696 l 575 -292 m 531 221 l 531 515 q 452 631 514 596 q 338 665 390 665 q 248 654 285 665 q 176 619 211 643 q 118 550 140 596 q 96 442 96 504 l 96 231 q 161 76 96 126 q 319 25 226 25 q 471 76 411 25 q 531 221 531 126 z "},"r":{"ha":461,"x_min":85,"x_max":432,"o":"m 129 0 l 85 0 l 85 696 l 129 696 l 128 631 q 328 707 204 707 q 432 696 376 707 l 419 651 q 335 664 368 664 q 181 628 232 664 q 129 551 129 593 l 129 0 z "},"s":{"ha":599,"x_min":50,"x_max":550,"o":"m 442 633 q 303 671 382 671 q 169 634 224 671 q 114 532 114 597 q 163 442 114 474 q 276 393 213 411 q 401 353 339 375 q 507 286 464 331 q 550 166 550 242 q 488 35 550 90 q 308 -21 426 -21 q 121 36 189 -21 q 50 176 53 93 l 93 176 q 157 66 100 110 q 303 22 214 22 q 449 63 392 22 q 506 165 506 103 q 463 265 506 228 q 360 321 421 301 q 237 360 299 340 q 128 415 175 379 q 71 526 71 458 q 124 653 71 593 q 304 713 178 713 q 386 702 347 713 q 442 681 425 692 l 460 671 l 442 633 z "},"t":{"ha":338,"x_min":61,"x_max":306,"o":"m 221 19 l 208 -18 q 96 53 131 4 q 61 183 61 101 l 61 972 l 106 972 l 106 696 l 306 696 l 286 653 l 106 653 l 106 183 q 133 76 106 114 q 221 19 160 39 z "},"u":{"ha":621,"x_min":50,"x_max":568,"o":"m 568 0 l 524 0 l 526 96 q 311 -15 456 -15 q 50 243 50 -15 l 50 696 l 94 696 l 94 239 q 311 26 94 26 q 465 78 406 26 q 524 225 524 131 l 524 696 l 568 696 l 568 0 z "},"v":{"ha":594,"x_min":25,"x_max":560,"o":"m 317 0 l 267 0 l 25 696 l 71 696 l 292 61 l 514 696 l 560 696 l 317 0 z "},"w":{"ha":971,"x_min":25,"x_max":917,"o":"m 689 0 l 640 0 l 469 607 l 300 0 l 251 0 l 25 696 l 72 696 l 275 61 l 451 696 l 489 696 l 665 63 l 869 696 l 917 696 l 689 0 z "},"x":{"ha":642,"x_min":79,"x_max":564,"o":"m 561 0 l 510 0 l 324 307 l 131 0 l 79 0 l 297 347 l 85 696 l 136 696 l 324 386 l 514 696 l 564 696 l 350 347 l 561 0 z "},"y":{"ha":660,"x_min":51,"x_max":613,"o":"m 426 -292 l 414 -254 q 531 -87 531 -219 l 531 103 q 434 11 497 39 q 306 -17 371 -17 q 117 49 183 -17 q 51 244 51 115 l 51 696 l 94 696 l 94 231 q 147 80 94 135 q 303 25 200 25 q 467 81 406 25 q 529 231 529 136 l 529 513 q 558 681 529 649 q 599 708 574 697 l 613 675 q 572 560 572 650 l 572 -85 q 539 -218 572 -169 q 426 -292 506 -267 z "},"z":{"ha":669,"x_min":108,"x_max":618,"o":"m 618 0 l 108 0 l 108 42 l 533 654 l 121 654 l 121 696 l 589 696 l 589 654 l 163 42 l 618 42 l 618 0 z "},"{":{"ha":425,"x_min":108,"x_max":374,"o":"m 374 -128 l 358 -161 q 240 -47 268 -108 q 211 160 211 14 l 211 343 q 189 403 211 369 q 152 451 167 438 q 108 492 138 465 q 175 561 142 518 q 208 642 208 604 l 208 835 q 238 1030 208 969 q 356 1142 267 1090 l 371 1108 q 329 1078 340 1088 q 294 1042 318 1069 q 253 890 253 992 l 253 633 q 165 492 253 579 q 185 472 178 481 q 203 453 193 464 q 219 434 214 442 q 233 415 225 426 q 244 394 240 404 q 256 351 256 368 l 256 100 q 283 -40 256 11 q 374 -128 310 -90 z "},"|":{"ha":263,"x_min":108,"x_max":151,"o":"m 151 -158 l 108 -158 l 108 1135 l 151 1135 l 151 -158 z "},"}":{"ha":425,"x_min":108,"x_max":374,"o":"m 124 -161 l 108 -128 q 199 -40 172 -90 q 226 100 226 11 l 226 351 q 242 404 226 382 q 263 434 257 426 q 278 453 268 442 q 293 468 289 464 q 317 492 306 481 q 229 633 229 579 l 229 890 q 186 1042 229 992 q 153 1078 164 1069 q 111 1108 142 1088 l 126 1142 q 244 1030 215 1090 q 274 835 274 969 l 274 642 q 307 561 274 604 q 374 492 340 518 q 330 451 344 465 q 293 403 315 438 q 271 343 271 369 l 271 160 q 242 -47 271 14 q 124 -161 214 -108 z "},"~":{"ha":710,"x_min":108,"x_max":658,"o":"m 526 464 q 636 511 593 464 l 658 476 q 519 419 603 419 q 436 433 482 419 q 339 464 436 433 q 267 475 303 475 q 132 415 185 475 l 108 449 q 265 521 174 521 q 439 478 308 521 q 526 464 483 464 z "},"¡":{"ha":281,"x_min":108,"x_max":169,"o":"m 108 35 l 122 819 l 158 819 l 169 33 q 140 0 169 0 q 108 35 108 0 m 168 956 q 168 950 168 956 q 159 935 168 944 q 138 926 150 926 q 118 935 126 926 q 110 956 110 944 q 118 977 110 968 q 138 986 126 986 q 159 977 150 986 q 168 956 168 968 z "},"¢":{"ha":607,"x_min":108,"x_max":556,"o":"m 389 -158 l 347 -158 l 347 -12 q 144 89 200 3 q 108 250 108 146 l 108 428 q 174 631 108 560 q 347 707 240 701 l 347 865 l 389 865 l 389 707 q 553 664 472 700 l 539 626 q 389 665 465 661 l 389 25 q 546 47 461 25 l 556 8 q 389 -14 467 -14 l 389 -158 m 347 28 l 347 665 q 207 601 261 658 q 153 436 153 543 l 153 235 q 347 28 151 47 z "},"£":{"ha":660,"x_min":108,"x_max":608,"o":"m 608 0 l 108 0 l 108 38 q 222 144 178 72 q 267 281 267 217 q 238 453 268 346 l 140 453 l 140 497 l 222 497 q 174 715 174 646 q 249 910 174 836 q 431 985 325 985 q 593 950 538 985 l 578 908 q 442 943 515 943 q 279 877 340 943 q 218 713 218 811 q 269 497 218 654 l 585 497 l 585 453 l 285 453 q 314 292 314 364 q 277 150 314 219 q 186 44 240 81 l 608 44 l 608 0 z "},"¤":{"ha":647,"x_min":108,"x_max":596,"o":"m 554 217 l 508 263 q 352 206 444 206 q 193 263 260 206 l 150 215 l 121 244 l 164 290 q 108 447 108 357 q 164 606 108 536 l 122 649 l 151 678 l 192 635 q 354 693 261 693 q 510 635 447 693 l 551 678 l 581 647 l 539 604 q 596 448 596 539 q 538 292 596 357 l 583 246 l 554 217 m 351 251 q 392 251 351 251 q 492 308 433 251 q 550 448 550 365 q 492 590 550 531 q 351 649 433 649 q 210 590 268 649 q 151 448 151 531 q 210 308 151 365 q 351 251 268 251 z "},"¥":{"ha":776,"x_min":69,"x_max":725,"o":"m 418 0 l 375 0 l 375 372 l 176 372 l 176 417 l 375 417 l 375 474 l 371 481 l 176 481 l 176 525 l 343 525 l 69 972 l 121 972 l 394 525 l 396 525 l 674 972 l 725 972 l 449 525 l 621 525 l 621 481 l 421 481 l 418 475 l 418 417 l 621 417 l 621 372 l 418 372 l 418 0 z "},"§":{"ha":819,"x_min":108,"x_max":768,"o":"m 108 -11 l 153 -11 q 236 -167 160 -103 q 439 -231 313 -231 q 644 -170 565 -231 q 722 0 722 -110 q 608 181 722 117 q 497 231 558 208 q 373 276 435 254 q 259 324 311 299 q 172 392 207 350 q 136 501 136 439 q 178 618 136 564 q 133 760 133 674 q 214 918 133 847 q 446 989 294 989 q 649 947 561 989 l 633 906 q 443 947 551 947 q 257 897 335 947 q 178 747 179 847 q 238 624 178 675 q 384 542 297 574 q 557 478 471 511 q 704 388 643 446 q 766 260 765 331 q 733 126 767 189 q 768 8 768 74 q 685 -196 768 -118 q 443 -274 601 -274 q 198 -194 285 -274 q 108 -11 111 -114 m 179 517 l 181 493 q 247 383 185 428 q 388 317 310 339 q 560 254 467 294 q 701 163 653 214 q 708 183 703 168 q 719 259 721 214 q 681 347 718 304 q 583 417 643 389 q 458 468 522 446 q 211 589 282 529 q 194 564 203 581 q 186 544 186 547 l 179 517 z "},"¨":{"ha":308,"x_min":15,"x_max":294,"o":"m 74 983 q 74 977 74 983 q 65 962 74 971 q 44 953 56 953 q 24 962 32 953 q 15 983 15 971 q 24 1003 15 994 q 44 1013 32 1013 q 65 1003 56 1013 q 74 983 74 994 m 294 984 q 294 978 294 984 q 285 963 294 972 q 265 954 276 954 q 244 963 253 954 q 235 984 235 972 q 244 1005 235 996 q 265 1014 253 1014 q 285 1005 276 1014 q 294 984 294 996 z "},"©":{"ha":1111,"x_min":35,"x_max":1075,"o":"m 1075 344 q 1075 234 1075 344 q 924 -26 1075 124 q 556 -176 772 -176 q 188 -26 340 -176 q 35 344 35 124 q 186 714 35 565 q 556 863 338 863 q 925 714 775 863 q 1075 344 1075 565 m 557 -132 q 787 -73 679 -132 q 962 97 894 -14 q 1029 346 1029 208 q 891 682 1029 544 q 557 819 753 819 q 222 685 361 819 q 82 344 82 551 q 223 3 82 138 q 557 -132 364 -132 m 783 243 l 832 243 q 735 83 810 143 q 563 22 660 22 q 345 113 425 22 q 265 340 265 203 q 344 570 265 476 q 560 664 424 664 q 738 604 661 664 q 831 449 814 544 l 783 449 q 712 566 769 514 q 561 618 654 618 q 376 537 440 618 q 313 344 313 456 q 374 151 313 233 q 563 68 436 68 q 713 122 651 68 q 783 243 774 175 z "},"ª":{"ha":533,"x_min":108,"x_max":482,"o":"m 482 543 q 343 528 386 528 q 258 532 300 528 q 183 556 215 536 q 130 617 151 575 q 108 721 108 658 q 200 867 108 838 q 247 875 222 875 q 439 801 326 875 q 394 913 439 879 q 249 950 350 947 l 251 985 q 435 933 388 985 q 482 771 482 881 l 482 543 m 439 758 q 254 835 333 835 q 192 818 219 835 q 149 713 149 790 q 319 563 149 563 q 439 576 371 563 l 439 758 z "},"«":{"ha":710,"x_min":58,"x_max":653,"o":"m 318 111 l 58 371 l 58 372 l 318 632 l 349 601 l 119 372 l 347 142 l 318 111 m 624 111 l 364 371 l 364 372 l 624 632 l 653 601 l 424 372 l 653 142 l 624 111 z "},"­":{"ha":569,"x_min":63,"x_max":507,"o":"m 507 529 l 63 529 l 63 574 l 507 574 l 507 529 z "},"®":{"ha":1111,"x_min":35,"x_max":1075,"o":"m 815 54 l 763 54 l 594 318 l 411 318 l 411 54 l 367 54 l 367 661 l 600 661 q 747 613 693 661 q 801 489 801 564 q 757 372 801 414 q 643 322 713 331 l 815 54 m 411 361 l 590 361 q 757 490 757 361 q 708 590 757 560 q 593 619 658 619 l 411 619 l 411 361 m 1075 344 q 1075 234 1075 344 q 924 -26 1075 124 q 556 -176 772 -176 q 188 -26 340 -176 q 35 344 35 124 q 186 714 35 565 q 556 863 338 863 q 925 714 775 863 q 1075 344 1075 565 m 221 3 q 291 -65 221 3 q 557 -132 361 -132 q 891 3 753 -132 q 1029 343 1029 139 q 891 683 1029 547 q 556 818 753 818 q 219 684 358 818 q 81 344 81 550 q 221 3 81 138 z "},"¯":{"ha":467,"x_min":108,"x_max":415,"o":"m 415 894 l 108 894 l 108 940 l 415 940 l 415 894 z "},"°":{"ha":560,"x_min":108,"x_max":508,"o":"m 450 643 q 421 614 450 643 q 308 585 392 585 q 167 643 225 585 q 108 785 108 701 q 167 926 108 868 q 308 985 225 985 q 450 926 392 985 q 508 785 508 868 q 450 643 508 701 m 423 674 q 445 698 423 674 q 467 785 467 722 q 423 895 467 847 q 308 943 379 943 q 194 895 238 943 q 150 785 150 847 q 194 674 150 722 q 308 626 238 626 q 423 674 379 626 z "},"±":{"ha":610,"x_min":108,"x_max":558,"o":"m 553 329 l 108 329 l 108 374 l 315 374 l 315 529 l 114 529 l 114 574 l 315 574 l 315 757 l 360 757 l 360 574 l 558 574 l 558 529 l 360 529 l 360 374 l 553 374 l 553 329 z "},"´":{"ha":308,"x_min":64,"x_max":199,"o":"m 103 817 l 64 817 l 139 989 q 167 1013 149 1013 q 197 990 192 1013 q 199 979 199 986 q 193 964 199 972 l 103 817 z "},"µ":{"ha":663,"x_min":51,"x_max":615,"o":"m 615 25 l 590 -4 q 562 15 579 -4 q 540 67 544 35 q 342 -15 481 -15 q 142 43 231 -15 l 122 57 q 96 78 115 61 l 96 -285 l 51 -279 l 51 696 l 96 696 l 96 133 q 200 58 129 90 q 346 25 274 25 q 476 63 418 25 q 535 197 535 100 l 535 699 l 579 708 l 579 90 q 615 25 581 38 z "},"¶":{"ha":935,"x_min":108,"x_max":883,"o":"m 883 -276 l 840 -276 l 840 997 l 711 997 l 711 -275 l 668 -275 l 668 342 l 354 342 q 213 378 261 342 q 169 417 188 397 q 140 471 150 438 q 122 529 129 504 q 113 596 115 554 q 108 728 108 658 q 172 954 108 867 q 367 1042 236 1042 l 883 1042 l 883 -276 z "},"¸":{"ha":569,"x_min":106,"x_max":406,"o":"m 221 -76 q 288 -65 244 -65 q 369 -89 332 -65 q 406 -174 406 -112 q 354 -263 406 -235 q 240 -292 303 -292 q 106 -265 178 -292 l 126 -221 q 233 -254 178 -254 q 326 -233 289 -254 q 363 -167 363 -211 q 322 -106 363 -124 q 278 -99 303 -99 q 222 -111 254 -99 l 169 -131 l 156 -108 l 240 0 l 279 0 l 221 -76 z "},"»":{"ha":718,"x_min":19,"x_max":614,"o":"m 614 371 l 354 111 l 325 142 l 553 372 l 324 601 l 354 632 l 614 372 l 614 371 m 308 371 l 49 111 l 19 142 l 249 372 l 19 601 l 49 632 l 308 372 l 308 371 z "},"¿":{"ha":653,"x_min":110,"x_max":601,"o":"m 557 246 l 601 246 q 537 71 601 142 q 354 0 472 0 q 224 36 282 0 q 110 239 110 108 q 161 400 110 325 q 228 478 188 438 q 291 544 268 519 q 333 619 314 569 q 351 736 351 668 l 351 819 l 393 819 l 393 715 q 372 599 393 651 q 324 519 350 547 q 259 451 297 490 q 201 383 221 411 q 156 240 156 317 q 243 75 156 133 q 367 43 292 43 q 499 97 442 43 q 557 246 557 150 m 401 955 q 401 949 401 955 q 392 934 401 943 q 372 925 383 925 q 351 934 360 925 q 342 955 342 943 q 351 976 342 967 q 372 985 360 985 q 392 976 383 985 q 401 955 401 967 z "},"À":{"ha":732,"x_min":17,"x_max":718,"o":"m 718 0 l 669 0 l 543 372 l 190 372 l 63 0 l 17 0 l 347 972 l 385 972 l 718 0 m 529 417 l 365 894 l 204 417 l 529 417 m 383 1015 l 344 1015 l 254 1161 q 249 1176 249 1169 q 267 1208 249 1201 q 281 1211 274 1211 q 308 1188 299 1211 l 383 1015 z "},"Á":{"ha":732,"x_min":17,"x_max":718,"o":"m 718 0 l 669 0 l 543 372 l 190 372 l 63 0 l 17 0 l 347 972 l 385 972 l 718 0 m 529 417 l 365 894 l 204 417 l 529 417 m 375 1015 l 336 1015 l 411 1188 q 439 1211 421 1211 q 469 1189 464 1211 q 471 1178 471 1185 q 465 1163 471 1171 l 375 1015 z "},"Â":{"ha":732,"x_min":17,"x_max":718,"o":"m 718 0 l 669 0 l 543 372 l 190 372 l 63 0 l 17 0 l 347 972 l 385 972 l 718 0 m 529 417 l 365 894 l 204 417 l 529 417 m 533 1039 l 368 1204 l 197 1039 l 164 1072 l 369 1268 l 567 1072 l 533 1039 z "},"Ã":{"ha":732,"x_min":17,"x_max":718,"o":"m 718 0 l 669 0 l 543 372 l 190 372 l 63 0 l 17 0 l 347 972 l 385 972 l 718 0 m 529 417 l 365 894 l 204 417 l 529 417 m 271 1146 q 397 1104 307 1146 q 478 1088 433 1088 q 564 1132 522 1088 l 586 1099 q 469 1042 529 1042 q 402 1056 439 1042 q 336 1083 365 1071 q 267 1101 297 1101 q 156 1043 208 1101 l 133 1076 q 271 1146 196 1146 z "},"Ä":{"ha":732,"x_min":17,"x_max":718,"o":"m 718 0 l 669 0 l 543 372 l 190 372 l 63 0 l 17 0 l 347 972 l 385 972 l 718 0 m 529 417 l 365 894 l 204 417 l 529 417 z "},"Å":{"ha":732,"x_min":17,"x_max":718,"o":"m 718 0 l 669 0 l 543 372 l 190 372 l 63 0 l 17 0 l 335 935 q 249 987 283 946 q 214 1085 214 1028 q 258 1187 214 1143 q 364 1231 303 1231 q 469 1187 425 1231 q 514 1086 514 1143 q 481 988 514 1029 q 397 935 447 946 l 718 0 m 529 417 l 365 894 l 204 417 l 529 417 m 385 972 l 385 971 q 448 1010 422 979 q 474 1084 474 1042 q 442 1159 474 1126 q 364 1192 410 1192 q 285 1159 318 1192 q 253 1083 253 1126 q 279 1009 253 1040 q 346 971 306 978 l 347 972 l 385 972 z "},"Æ":{"ha":1133,"x_min":108,"x_max":1082,"o":"m 1079 0 l 617 0 l 618 372 l 351 372 l 157 0 l 108 0 l 617 972 l 1082 972 l 1082 929 l 663 929 l 663 574 l 961 574 l 946 529 l 663 529 l 663 42 l 1079 42 l 1079 0 m 618 417 l 618 886 l 374 417 l 618 417 z "},"Ç":{"ha":600,"x_min":92,"x_max":593,"o":"m 303 -76 q 370 -65 326 -65 q 451 -89 414 -65 q 488 -174 488 -112 q 436 -263 488 -235 q 322 -292 385 -292 q 188 -265 260 -292 l 208 -221 q 315 -254 260 -254 q 408 -233 371 -254 q 444 -167 444 -211 q 403 -106 444 -124 q 360 -99 385 -99 q 304 -111 336 -99 l 251 -131 l 238 -108 l 313 -11 q 152 64 213 0 q 92 254 92 128 l 92 700 q 122 860 92 806 q 213 951 151 914 q 363 986 275 986 q 558 940 472 986 l 543 907 q 372 944 451 944 q 196 885 260 944 q 153 817 171 861 q 136 713 136 772 l 136 257 q 260 44 136 93 q 385 25 308 25 q 582 71 461 25 l 593 32 q 368 -14 474 -14 q 350 -14 358 -14 l 303 -76 z "},"È":{"ha":646,"x_min":108,"x_max":572,"o":"m 569 0 l 108 0 l 108 972 l 572 972 l 572 929 l 153 929 l 153 574 l 451 574 l 436 529 l 153 529 l 153 42 l 569 42 l 569 0 m 375 1014 l 336 1014 l 246 1160 q 240 1175 240 1168 q 258 1207 240 1200 q 272 1210 265 1210 q 300 1186 290 1210 l 375 1014 z "},"É":{"ha":646,"x_min":108,"x_max":572,"o":"m 569 0 l 108 0 l 108 972 l 572 972 l 572 929 l 153 929 l 153 574 l 451 574 l 436 529 l 153 529 l 153 42 l 569 42 l 569 0 m 368 1014 l 329 1014 l 404 1186 q 432 1210 414 1210 q 464 1188 457 1210 q 464 1176 464 1183 q 458 1161 464 1169 l 368 1014 z "},"Ê":{"ha":646,"x_min":108,"x_max":572,"o":"m 569 0 l 108 0 l 108 972 l 572 972 l 572 929 l 153 929 l 153 574 l 451 574 l 436 529 l 153 529 l 153 42 l 569 42 l 569 0 m 500 1039 l 335 1204 l 164 1039 l 131 1072 l 336 1268 l 533 1072 l 500 1039 z "},"Ë":{"ha":646,"x_min":108,"x_max":572,"o":"m 569 0 l 108 0 l 108 972 l 572 972 l 572 929 l 153 929 l 153 574 l 451 574 l 436 529 l 153 529 l 153 42 l 569 42 l 569 0 z "},"Ì":{"ha":376,"x_min":111,"x_max":267,"o":"m 267 0 l 222 0 l 222 928 l 111 931 l 111 972 l 267 972 l 267 0 m 260 1014 l 221 1014 l 131 1160 q 125 1175 125 1168 q 143 1207 125 1200 q 157 1210 150 1210 q 185 1186 175 1210 l 260 1014 z "},"Í":{"ha":469,"x_min":108,"x_max":357,"o":"m 264 0 l 219 0 l 219 928 l 108 931 l 108 972 l 264 972 l 264 0 m 261 1014 l 222 1014 l 297 1186 q 325 1210 307 1210 q 356 1188 350 1210 q 357 1176 357 1183 q 351 1161 357 1169 l 261 1014 z "},"Î":{"ha":622,"x_min":108,"x_max":511,"o":"m 350 0 l 306 0 l 306 928 l 194 931 l 194 972 l 350 972 l 350 0 m 478 1039 l 313 1204 l 142 1039 l 108 1072 l 314 1268 l 511 1072 l 478 1039 z "},"Ï":{"ha":374,"x_min":108,"x_max":264,"o":"m 264 0 l 219 0 l 219 928 l 108 931 l 108 972 l 264 972 l 264 0 z "},"Ð":{"ha":892,"x_min":108,"x_max":840,"o":"m 465 0 l 176 0 l 176 703 l 108 703 l 108 747 l 176 747 l 176 974 l 438 974 q 647 913 567 974 q 750 747 726 851 l 840 747 l 840 703 l 757 703 q 760 658 760 672 l 760 278 q 465 0 760 0 m 715 286 l 715 658 q 713 703 715 675 l 221 703 l 221 42 l 449 42 q 517 44 488 42 q 586 62 546 47 q 652 101 626 76 q 697 173 678 125 q 715 286 715 221 m 451 929 l 221 929 l 221 747 l 704 747 q 610 884 681 839 q 451 929 540 929 z "},"Ñ":{"ha":903,"x_min":108,"x_max":792,"o":"m 792 0 l 749 0 l 151 894 l 151 0 l 108 0 l 108 972 l 151 972 l 749 79 l 749 972 l 792 972 l 792 0 m 357 1146 q 483 1104 393 1146 q 564 1088 519 1088 q 650 1132 608 1088 l 672 1099 q 556 1042 615 1042 q 488 1056 525 1042 q 422 1083 451 1071 q 353 1101 383 1101 q 242 1043 294 1101 l 219 1076 q 357 1146 282 1146 z "},"Ò":{"ha":763,"x_min":88,"x_max":671,"o":"m 671 703 l 671 257 q 585 51 671 117 q 381 -15 500 -15 q 174 51 261 -15 q 88 257 88 117 l 88 704 q 166 921 88 847 q 382 994 244 994 q 595 917 519 994 q 671 703 671 839 m 626 257 l 626 711 q 563 887 626 824 q 379 950 499 950 q 196 887 260 950 q 132 710 132 824 l 132 257 q 203 85 132 143 q 381 28 275 28 q 556 83 486 28 q 626 257 626 138 m 406 1014 l 367 1014 l 276 1160 q 271 1175 271 1168 q 289 1207 271 1200 q 303 1210 296 1210 q 331 1186 321 1210 l 406 1014 z "},"Ó":{"ha":763,"x_min":88,"x_max":671,"o":"m 671 703 l 671 257 q 585 51 671 117 q 381 -15 500 -15 q 174 51 261 -15 q 88 257 88 117 l 88 704 q 166 921 88 847 q 382 994 244 994 q 595 917 519 994 q 671 703 671 839 m 626 257 l 626 711 q 563 887 626 824 q 379 950 499 950 q 196 887 260 950 q 132 710 132 824 l 132 257 q 203 85 132 143 q 381 28 275 28 q 556 83 486 28 q 626 257 626 138 m 396 1014 l 357 1014 l 432 1186 q 460 1210 442 1210 q 492 1188 485 1210 q 492 1176 492 1183 q 486 1161 492 1169 l 396 1014 z "},"Ô":{"ha":763,"x_min":88,"x_max":671,"o":"m 671 703 l 671 257 q 585 51 671 117 q 381 -15 500 -15 q 174 51 261 -15 q 88 257 88 117 l 88 704 q 166 921 88 847 q 382 994 244 994 q 595 917 519 994 q 671 703 671 839 m 626 257 l 626 711 q 563 887 626 824 q 379 950 499 950 q 196 887 260 950 q 132 710 132 824 l 132 257 q 203 85 132 143 q 381 28 275 28 q 556 83 486 28 q 626 257 626 138 m 544 1039 l 379 1204 l 208 1039 l 175 1072 l 381 1268 l 578 1072 l 544 1039 z "},"Õ":{"ha":763,"x_min":88,"x_max":671,"o":"m 671 703 l 671 257 q 585 51 671 117 q 381 -15 500 -15 q 174 51 261 -15 q 88 257 88 117 l 88 704 q 166 921 88 847 q 382 994 244 994 q 595 917 519 994 q 671 703 671 839 m 626 257 l 626 711 q 563 887 626 824 q 379 950 499 950 q 196 887 260 950 q 132 710 132 824 l 132 257 q 203 85 132 143 q 381 28 275 28 q 556 83 486 28 q 626 257 626 138 m 292 1146 q 418 1104 328 1146 q 499 1088 454 1088 q 585 1132 543 1088 l 607 1099 q 490 1042 550 1042 q 423 1056 460 1042 q 358 1083 386 1071 q 288 1101 318 1101 q 176 1043 229 1101 l 154 1076 q 292 1146 217 1146 z "},"Ö":{"ha":763,"x_min":88,"x_max":671,"o":"m 671 703 l 671 257 q 585 51 671 117 q 381 -15 500 -15 q 174 51 261 -15 q 88 257 88 117 l 88 704 q 166 921 88 847 q 382 994 244 994 q 595 917 519 994 q 671 703 671 839 m 626 257 l 626 711 q 563 887 626 824 q 379 950 499 950 q 196 887 260 950 q 132 710 132 824 l 132 257 q 203 85 132 143 q 381 28 275 28 q 556 83 486 28 q 626 257 626 138 z "},"×":{"ha":532,"x_min":108,"x_max":481,"o":"m 479 274 l 444 244 l 294 425 l 143 243 l 110 272 l 267 458 l 108 651 l 140 679 l 296 493 l 449 679 l 481 650 l 324 461 l 479 274 z "},"Ø":{"ha":743,"x_min":108,"x_max":692,"o":"m 186 -158 l 139 -158 l 208 40 q 108 257 108 114 l 108 704 q 187 921 108 847 q 403 994 265 994 q 532 972 472 994 l 589 1135 l 635 1135 l 571 951 q 692 703 692 879 l 692 257 q 606 51 692 117 q 401 -15 521 -15 q 247 17 315 -15 l 186 -158 m 647 257 l 647 711 q 556 908 647 846 l 261 60 q 414 28 321 28 q 577 83 507 28 q 647 257 647 138 m 224 86 l 517 929 q 400 950 461 950 q 217 887 281 950 q 153 710 153 824 l 153 257 q 224 86 153 146 z "},"Ù":{"ha":786,"x_min":103,"x_max":688,"o":"m 643 253 l 643 974 l 688 974 l 688 258 q 662 131 688 185 q 592 47 636 76 q 500 4 549 18 q 396 -10 451 -10 q 291 4 340 -10 q 198 47 242 18 q 128 131 154 76 q 103 258 103 185 l 103 974 l 147 974 l 147 253 q 222 86 147 140 q 396 32 296 32 q 569 87 496 32 q 643 253 643 142 m 418 1014 l 379 1014 l 289 1160 q 283 1175 283 1168 q 301 1207 283 1200 q 315 1210 308 1210 q 343 1186 333 1210 l 418 1014 z "},"Ú":{"ha":786,"x_min":103,"x_max":688,"o":"m 643 253 l 643 974 l 688 974 l 688 258 q 662 131 688 185 q 592 47 636 76 q 500 4 549 18 q 396 -10 451 -10 q 291 4 340 -10 q 198 47 242 18 q 128 131 154 76 q 103 258 103 185 l 103 974 l 147 974 l 147 253 q 222 86 147 140 q 396 32 296 32 q 569 87 496 32 q 643 253 643 142 m 403 1015 l 364 1015 l 439 1188 q 467 1211 449 1211 q 497 1189 492 1211 q 499 1178 499 1185 q 493 1163 499 1171 l 403 1015 z "},"Û":{"ha":786,"x_min":103,"x_max":688,"o":"m 643 253 l 643 974 l 688 974 l 688 258 q 662 131 688 185 q 592 47 636 76 q 500 4 549 18 q 396 -10 451 -10 q 291 4 340 -10 q 198 47 242 18 q 128 131 154 76 q 103 258 103 185 l 103 974 l 147 974 l 147 253 q 222 86 147 140 q 396 32 296 32 q 569 87 496 32 q 643 253 643 142 m 568 1039 l 403 1204 l 232 1039 l 199 1072 l 404 1268 l 601 1072 l 568 1039 z "},"Ü":{"ha":786,"x_min":103,"x_max":688,"o":"m 643 253 l 643 974 l 688 974 l 688 258 q 662 131 688 185 q 592 47 636 76 q 500 4 549 18 q 396 -10 451 -10 q 291 4 340 -10 q 198 47 242 18 q 128 131 154 76 q 103 258 103 185 l 103 974 l 147 974 l 147 253 q 222 86 147 140 q 396 32 296 32 q 569 87 496 32 q 643 253 643 142 z "},"Ý":{"ha":767,"x_min":83,"x_max":699,"o":"m 554 -10 l 543 25 q 578 40 567 33 q 611 65 589 46 q 654 211 654 103 l 654 451 q 541 366 614 392 q 401 340 468 340 q 169 413 254 340 q 83 629 83 486 l 83 972 l 128 972 l 128 629 q 198 448 128 511 q 401 385 268 385 q 572 433 503 385 q 654 560 640 482 l 654 972 l 699 972 l 699 207 q 554 -10 699 21 m 403 1015 l 364 1015 l 439 1188 q 467 1211 449 1211 q 497 1189 492 1211 q 499 1178 499 1185 q 493 1163 499 1171 l 403 1015 z "},"Þ":{"ha":685,"x_min":108,"x_max":633,"o":"m 153 0 l 108 0 l 108 972 l 153 972 l 153 592 q 364 708 231 708 q 565 631 497 708 q 633 431 633 554 q 558 235 633 308 q 372 161 483 161 q 247 194 308 161 q 153 301 186 226 l 153 0 m 374 668 q 331 668 374 668 q 222 612 289 668 q 155 445 156 556 q 216 269 154 335 q 371 204 278 204 q 526 264 464 204 q 589 438 589 324 q 524 610 589 553 q 374 668 458 668 z "},"ß":{"ha":714,"x_min":108,"x_max":663,"o":"m 239 51 l 264 92 q 372 36 304 53 q 437 29 403 29 q 508 42 471 29 q 600 119 575 61 q 615 193 615 157 q 532 351 615 278 q 436 429 497 382 q 306 564 329 511 q 293 627 293 590 q 317 704 293 664 q 322 704 319 704 q 410 767 392 704 q 415 815 415 786 q 384 887 415 844 q 293 931 353 929 q 153 751 153 931 l 153 0 l 108 0 l 108 746 q 293 974 108 974 q 383 947 344 974 q 457 796 457 897 q 436 724 457 757 q 376 676 415 690 l 351 676 q 338 624 338 649 q 348 580 338 600 q 374 541 358 560 q 414 501 389 522 q 461 463 439 481 q 513 424 483 446 q 563 383 542 401 q 663 194 663 297 q 643 101 663 150 q 536 3 614 31 q 446 -15 486 -15 q 239 51 318 -15 z "},"à":{"ha":694,"x_min":108,"x_max":643,"o":"m 332 558 q 599 481 486 558 q 358 669 599 669 q 351 669 356 669 l 354 707 q 521 681 467 707 q 572 650 550 665 q 607 610 594 635 q 628 566 619 585 q 639 515 636 547 q 643 414 643 467 l 643 0 q 413 -14 499 -14 q 108 235 108 -14 l 108 350 q 208 533 108 485 q 332 558 260 558 m 178 122 q 191 100 178 122 q 244 58 204 79 q 336 31 285 38 q 439 25 388 25 q 599 39 490 25 l 599 439 q 331 517 483 510 q 319 518 325 518 q 202 476 251 518 q 153 346 153 435 l 153 225 q 178 122 153 164 m 406 747 l 367 747 l 276 893 q 271 908 271 901 q 289 940 271 933 q 303 943 296 943 q 331 919 321 943 l 406 747 z "},"á":{"ha":694,"x_min":108,"x_max":643,"o":"m 332 558 q 599 481 486 558 q 358 669 599 669 q 351 669 356 669 l 354 707 q 521 681 467 707 q 572 650 550 665 q 607 610 594 635 q 628 566 619 585 q 639 515 636 547 q 643 414 643 467 l 643 0 q 413 -14 499 -14 q 108 235 108 -14 l 108 350 q 208 533 108 485 q 332 558 260 558 m 178 122 q 191 100 178 122 q 244 58 204 79 q 336 31 285 38 q 439 25 388 25 q 599 39 490 25 l 599 439 q 331 517 483 510 q 319 518 325 518 q 202 476 251 518 q 153 346 153 435 l 153 225 q 178 122 153 164 m 397 747 l 358 747 l 433 919 q 461 943 443 943 q 492 921 486 943 q 493 910 493 917 q 488 894 493 903 l 397 747 z "},"â":{"ha":694,"x_min":108,"x_max":643,"o":"m 332 558 q 599 481 486 558 q 358 669 599 669 q 351 669 356 669 l 354 707 q 521 681 467 707 q 572 650 550 665 q 607 610 594 635 q 628 566 619 585 q 639 515 636 547 q 643 414 643 467 l 643 0 q 413 -14 499 -14 q 108 235 108 -14 l 108 350 q 208 533 108 485 q 332 558 260 558 m 178 122 q 191 100 178 122 q 244 58 204 79 q 336 31 285 38 q 439 25 388 25 q 599 39 490 25 l 599 439 q 331 517 483 510 q 319 518 325 518 q 202 476 251 518 q 153 346 153 435 l 153 225 q 178 122 153 164 m 549 771 l 383 936 l 213 771 l 179 804 l 385 1000 l 582 804 l 549 771 z "},"ã":{"ha":694,"x_min":108,"x_max":643,"o":"m 332 558 q 599 481 486 558 q 358 669 599 669 q 351 669 356 669 l 354 707 q 521 681 467 707 q 572 650 550 665 q 607 610 594 635 q 628 566 619 585 q 639 515 636 547 q 643 414 643 467 l 643 0 q 413 -14 499 -14 q 108 235 108 -14 l 108 350 q 208 533 108 485 q 332 558 260 558 m 178 122 q 191 100 178 122 q 244 58 204 79 q 336 31 285 38 q 439 25 388 25 q 599 39 490 25 l 599 439 q 331 517 483 510 q 319 518 325 518 q 202 476 251 518 q 153 346 153 435 l 153 225 q 178 122 153 164 m 294 885 q 421 843 331 885 q 501 826 457 826 q 588 871 546 826 l 610 838 q 493 781 553 781 q 426 795 463 781 q 361 822 389 810 q 290 840 321 840 q 179 782 232 840 l 157 815 q 294 885 219 885 z "},"ä":{"ha":694,"x_min":108,"x_max":643,"o":"m 332 558 q 599 481 486 558 q 358 669 599 669 q 351 669 356 669 l 354 707 q 521 681 467 707 q 572 650 550 665 q 607 610 594 635 q 628 566 619 585 q 639 515 636 547 q 643 414 643 467 l 643 0 q 413 -14 499 -14 q 108 235 108 -14 l 108 350 q 208 533 108 485 q 332 558 260 558 m 178 122 q 191 100 178 122 q 244 58 204 79 q 336 31 285 38 q 439 25 388 25 q 599 39 490 25 l 599 439 q 331 517 483 510 q 319 518 325 518 q 202 476 251 518 q 153 346 153 435 l 153 225 q 178 122 153 164 z "},"å":{"ha":694,"x_min":108,"x_max":643,"o":"m 363 669 l 351 669 q 248 720 290 675 q 206 828 206 765 q 251 938 206 892 q 363 983 297 983 q 474 938 428 983 q 519 819 519 892 q 453 699 519 747 q 545 666 507 689 q 602 619 583 643 q 631 553 621 594 q 643 414 643 499 l 643 0 q 413 -14 499 -14 q 108 235 108 -14 l 108 350 q 208 533 108 485 q 332 558 260 558 q 599 481 486 558 q 363 669 599 668 m 178 122 q 191 100 178 122 q 244 58 204 79 q 336 31 285 38 q 439 25 388 25 q 599 39 490 25 l 599 439 q 331 517 483 510 q 319 518 325 518 q 202 476 251 518 q 153 346 153 435 l 153 225 q 178 122 153 164 m 246 826 q 246 802 246 826 q 280 744 246 778 q 362 710 314 710 q 444 744 410 710 q 478 826 478 778 q 444 908 478 875 q 363 942 411 942 q 280 908 314 942 q 246 826 246 874 z "},"æ":{"ha":1153,"x_min":108,"x_max":1101,"o":"m 828 21 q 1047 85 932 21 l 1067 49 q 830 -17 958 -17 q 643 53 701 -17 l 643 0 q 413 -14 499 -14 q 108 235 108 -14 l 108 350 q 208 533 108 485 q 332 558 260 558 q 599 481 486 558 q 358 669 599 669 q 351 669 356 669 l 354 707 q 622 579 574 707 q 857 708 682 708 q 1037 647 972 708 q 1101 475 1101 585 l 1101 326 l 646 303 l 646 185 q 701 60 646 99 q 828 21 756 21 m 178 122 q 191 100 178 122 q 244 58 204 79 q 336 31 285 38 q 439 25 388 25 q 599 39 490 25 l 599 439 q 331 517 483 510 q 319 518 325 518 q 202 476 251 518 q 153 346 153 435 l 153 225 q 178 122 153 164 m 1057 368 l 1057 479 q 996 624 1057 581 q 851 668 935 668 q 707 620 768 668 q 646 471 646 572 l 646 346 l 1057 368 z "},"ç":{"ha":532,"x_min":50,"x_max":497,"o":"m 338 26 q 488 47 408 26 l 497 8 q 362 -14 415 -14 q 279 -11 308 -14 l 231 -76 q 298 -65 254 -65 q 378 -89 342 -65 q 415 -174 415 -112 q 364 -263 415 -235 q 250 -292 313 -292 q 115 -265 188 -292 l 136 -221 q 243 -254 188 -254 q 335 -233 299 -254 q 372 -167 372 -211 q 331 -106 372 -124 q 288 -99 313 -99 q 232 -111 264 -99 l 179 -131 l 165 -108 l 244 -7 q 206 3 219 -3 q 87 88 124 31 q 50 250 50 146 l 50 428 q 89 593 50 526 q 308 708 156 708 q 494 664 400 708 l 481 626 q 331 667 397 667 q 215 649 264 667 q 130 576 165 632 q 94 436 94 519 l 94 235 q 338 26 94 26 z "},"è":{"ha":660,"x_min":108,"x_max":608,"o":"m 335 21 q 554 85 439 21 l 574 49 q 350 -17 467 -17 q 108 186 108 -17 l 108 471 q 178 646 108 583 q 364 708 249 708 q 544 647 479 708 q 608 475 608 585 l 608 326 l 153 303 l 153 185 q 208 60 153 99 q 335 21 263 21 m 564 368 l 564 479 q 503 624 564 581 q 358 668 442 668 q 214 620 275 668 q 153 471 153 572 l 153 346 l 564 368 m 394 747 l 356 747 l 265 893 q 260 908 260 901 q 278 940 260 933 q 292 943 285 943 q 319 919 310 943 l 394 747 z "},"é":{"ha":660,"x_min":108,"x_max":608,"o":"m 335 21 q 554 85 439 21 l 574 49 q 350 -17 467 -17 q 108 186 108 -17 l 108 471 q 178 646 108 583 q 364 708 249 708 q 544 647 479 708 q 608 475 608 585 l 608 326 l 153 303 l 153 185 q 208 60 153 99 q 335 21 263 21 m 564 368 l 564 479 q 503 624 564 581 q 358 668 442 668 q 214 620 275 668 q 153 471 153 572 l 153 346 l 564 368 m 372 747 l 333 747 l 408 919 q 436 943 418 943 q 467 921 461 943 q 468 910 468 917 q 463 894 468 903 l 372 747 z "},"ê":{"ha":672,"x_min":108,"x_max":608,"o":"m 335 21 q 554 85 439 21 l 574 49 q 350 -17 467 -17 q 108 186 108 -17 l 108 471 q 178 646 108 583 q 364 708 249 708 q 544 647 479 708 q 608 475 608 585 l 608 326 l 153 303 l 153 185 q 208 60 153 99 q 335 21 263 21 m 564 368 l 564 479 q 503 624 564 581 q 358 668 442 668 q 214 620 275 668 q 153 471 153 572 l 153 346 l 564 368 m 518 771 l 353 936 l 182 771 l 149 804 l 354 1000 l 551 804 l 518 771 z "},"ë":{"ha":625,"x_min":49,"x_max":549,"o":"m 275 21 q 494 85 379 21 l 514 49 q 290 -17 407 -17 q 49 186 49 -17 l 49 471 q 119 646 49 583 q 304 708 189 708 q 484 647 419 708 q 549 475 549 585 l 549 326 l 93 303 l 93 185 q 148 60 93 99 q 275 21 203 21 m 504 368 l 504 479 q 443 624 504 581 q 299 668 382 668 q 154 620 215 668 q 93 471 93 572 l 93 346 l 504 368 z "},"ì":{"ha":301,"x_min":110,"x_max":247,"o":"m 244 747 l 206 747 l 115 893 q 110 908 110 901 q 128 940 110 933 q 142 943 135 943 q 169 919 160 943 l 244 747 m 247 0 l 203 0 l 203 696 l 247 696 l 247 0 z "},"í":{"ha":300,"x_min":113,"x_max":247,"o":"m 151 747 l 113 747 l 188 919 q 215 943 197 943 q 247 921 240 943 q 247 910 247 917 q 242 894 247 903 l 151 747 m 163 0 l 118 0 l 118 696 l 163 696 l 163 0 z "},"î":{"ha":233,"x_min":-71,"x_max":332,"o":"m 299 771 l 133 936 l -37 771 l -71 804 l 135 1000 l 332 804 l 299 771 m 153 0 l 108 0 l 108 696 l 153 696 l 153 0 z "},"ï":{"ha":193,"x_min":-37,"x_max":242,"o":"m 124 0 l 79 0 l 79 696 l 124 696 l 124 0 m 21 809 q 21 803 21 809 q 12 788 21 797 q -9 779 3 779 q -29 788 -21 779 q -37 809 -37 797 q -29 830 -37 821 q -9 839 -21 839 q 12 830 3 839 q 21 809 21 821 m 242 810 q 242 805 242 810 q 233 790 242 799 q 212 781 224 781 q 191 790 200 781 q 182 810 182 799 q 191 831 182 822 q 212 840 200 840 q 233 831 224 840 q 242 810 242 822 z "},"ñ":{"ha":672,"x_min":108,"x_max":621,"o":"m 153 660 q 342 708 239 708 q 503 681 446 708 q 621 481 621 626 l 621 0 l 576 0 l 576 481 q 531 606 576 560 q 357 665 472 665 q 153 617 242 665 l 153 0 l 108 0 l 108 696 l 153 696 l 153 660 m 265 885 q 392 843 301 885 q 472 826 428 826 q 558 871 517 826 l 581 838 q 464 781 524 781 q 397 795 433 781 q 331 822 360 810 q 261 840 292 840 q 150 782 203 840 l 128 815 q 265 885 190 885 z "},"ò":{"ha":678,"x_min":108,"x_max":626,"o":"m 626 439 l 626 256 q 563 63 626 139 q 369 -14 499 -14 q 174 63 240 -14 q 108 256 108 140 l 108 439 q 176 641 108 571 q 367 711 243 711 q 558 638 490 711 q 626 439 626 565 m 582 250 l 582 443 q 522 613 582 557 q 367 669 463 669 q 213 613 272 669 q 153 443 153 557 l 153 250 q 207 91 153 156 q 368 26 261 26 q 528 90 475 26 q 582 250 582 153 m 393 747 l 354 747 l 264 893 q 258 908 258 901 q 276 940 258 933 q 290 943 283 943 q 318 919 308 943 l 393 747 z "},"ó":{"ha":678,"x_min":108,"x_max":626,"o":"m 626 439 l 626 256 q 563 63 626 139 q 369 -14 499 -14 q 174 63 240 -14 q 108 256 108 140 l 108 439 q 176 641 108 571 q 367 711 243 711 q 558 638 490 711 q 626 439 626 565 m 582 250 l 582 443 q 522 613 582 557 q 367 669 463 669 q 213 613 272 669 q 153 443 153 557 l 153 250 q 207 91 153 156 q 368 26 261 26 q 528 90 475 26 q 582 250 582 153 m 371 747 l 332 747 l 407 919 q 435 943 417 943 q 467 921 460 943 q 467 910 467 917 q 461 894 467 903 l 371 747 z "},"ô":{"ha":678,"x_min":108,"x_max":626,"o":"m 626 439 l 626 256 q 563 63 626 139 q 369 -14 499 -14 q 174 63 240 -14 q 108 256 108 140 l 108 439 q 176 641 108 571 q 367 711 243 711 q 558 638 490 711 q 626 439 626 565 m 582 250 l 582 443 q 522 613 582 557 q 367 669 463 669 q 213 613 272 669 q 153 443 153 557 l 153 250 q 207 91 153 156 q 368 26 261 26 q 528 90 475 26 q 582 250 582 153 m 538 771 l 372 936 l 201 771 l 168 804 l 374 1000 l 571 804 l 538 771 z "},"õ":{"ha":678,"x_min":108,"x_max":626,"o":"m 626 439 l 626 256 q 563 63 626 139 q 369 -14 499 -14 q 174 63 240 -14 q 108 256 108 140 l 108 439 q 176 641 108 571 q 367 711 243 711 q 558 638 490 711 q 626 439 626 565 m 582 250 l 582 443 q 522 613 582 557 q 367 669 463 669 q 213 613 272 669 q 153 443 153 557 l 153 250 q 207 91 153 156 q 368 26 261 26 q 528 90 475 26 q 582 250 582 153 m 278 885 q 404 843 314 885 q 485 826 440 826 q 571 871 529 826 l 593 838 q 476 781 536 781 q 409 795 446 781 q 344 822 372 810 q 274 840 304 840 q 163 782 215 840 l 140 815 q 278 885 203 885 z "},"ö":{"ha":678,"x_min":108,"x_max":626,"o":"m 626 439 l 626 256 q 563 63 626 139 q 369 -14 499 -14 q 174 63 240 -14 q 108 256 108 140 l 108 439 q 176 641 108 571 q 367 711 243 711 q 558 638 490 711 q 626 439 626 565 m 582 250 l 582 443 q 522 613 582 557 q 367 669 463 669 q 213 613 272 669 q 153 443 153 557 l 153 250 q 207 91 153 156 q 368 26 261 26 q 528 90 475 26 q 582 250 582 153 z "},"÷":{"ha":604,"x_min":108,"x_max":553,"o":"m 553 515 l 108 515 l 108 560 l 553 560 l 553 515 m 364 372 q 364 366 364 372 q 355 351 364 360 q 334 342 346 342 q 313 351 322 342 q 304 372 304 360 q 313 392 304 383 q 334 401 322 401 q 355 392 346 401 q 364 372 364 383 m 364 695 q 364 689 364 695 q 355 674 364 683 q 334 665 346 665 q 313 674 322 665 q 304 695 304 683 q 313 716 304 707 q 334 725 322 725 q 355 716 346 725 q 364 695 364 707 z "},"ø":{"ha":690,"x_min":108,"x_max":640,"o":"m 189 -158 l 142 -158 l 221 25 q 108 256 108 96 l 108 439 q 176 641 108 571 q 369 711 243 711 q 503 679 446 711 l 594 893 l 640 893 l 538 656 q 626 439 626 583 l 626 256 q 563 63 626 139 q 369 -14 499 -14 q 258 6 308 -14 l 189 -158 m 238 64 l 486 640 q 369 669 433 669 q 213 613 272 669 q 153 443 153 557 l 153 250 q 238 64 153 124 m 582 250 l 582 443 q 519 614 582 556 l 275 43 q 369 26 314 26 q 528 90 475 26 q 582 250 582 153 z "},"ù":{"ha":678,"x_min":108,"x_max":626,"o":"m 626 0 l 582 0 l 585 96 q 369 -15 514 -15 q 108 243 108 -15 l 108 696 l 153 696 l 153 239 q 369 26 153 26 q 523 78 464 26 q 582 225 582 131 l 582 696 l 626 696 l 626 0 m 403 747 l 364 747 l 274 893 q 268 908 268 901 q 286 940 268 933 q 300 943 293 943 q 328 919 318 943 l 403 747 z "},"ú":{"ha":678,"x_min":108,"x_max":626,"o":"m 626 0 l 582 0 l 585 96 q 369 -15 514 -15 q 108 243 108 -15 l 108 696 l 153 696 l 153 239 q 369 26 153 26 q 523 78 464 26 q 582 225 582 131 l 582 696 l 626 696 l 626 0 m 371 747 l 332 747 l 407 919 q 435 943 417 943 q 467 921 460 943 q 467 910 467 917 q 461 894 467 903 l 371 747 z "},"û":{"ha":678,"x_min":108,"x_max":626,"o":"m 626 0 l 582 0 l 585 96 q 369 -15 514 -15 q 108 243 108 -15 l 108 696 l 153 696 l 153 239 q 369 26 153 26 q 523 78 464 26 q 582 225 582 131 l 582 696 l 626 696 l 626 0 m 535 771 l 369 936 l 199 771 l 165 804 l 371 1000 l 568 804 l 535 771 z "},"ü":{"ha":678,"x_min":108,"x_max":626,"o":"m 626 0 l 582 0 l 585 96 q 369 -15 514 -15 q 108 243 108 -15 l 108 696 l 153 696 l 153 239 q 369 26 153 26 q 523 78 464 26 q 582 225 582 131 l 582 696 l 626 696 l 626 0 z "},"ý":{"ha":721,"x_min":108,"x_max":669,"o":"m 483 -292 l 471 -254 q 588 -87 588 -219 l 588 103 q 491 11 554 39 q 363 -17 428 -17 q 174 49 240 -17 q 108 244 108 115 l 108 696 l 151 696 l 151 231 q 204 80 151 135 q 360 25 257 25 q 524 81 463 25 q 586 231 586 136 l 586 513 q 615 681 586 649 q 656 708 631 697 l 669 675 q 629 560 629 650 l 629 -85 q 596 -218 629 -169 q 483 -292 563 -267 m 367 747 l 328 747 l 403 919 q 431 943 413 943 q 461 921 456 943 q 463 910 463 917 q 457 894 463 903 l 367 747 z "},"þ":{"ha":685,"x_min":108,"x_max":633,"o":"m 153 0 l 108 0 l 108 803 l 153 803 l 153 592 q 364 708 231 708 q 565 631 497 708 q 633 431 633 554 q 558 235 633 308 q 372 161 483 161 q 247 194 308 161 q 153 301 186 226 l 153 0 m 374 668 q 331 668 374 668 q 222 612 289 668 q 155 445 156 556 q 216 269 154 335 q 371 204 278 204 q 526 264 464 204 q 589 438 589 324 q 524 610 589 553 q 374 668 458 668 z "},"ÿ":{"ha":721,"x_min":108,"x_max":669,"o":"m 483 -292 l 471 -254 q 588 -87 588 -219 l 588 103 q 491 11 554 39 q 363 -17 428 -17 q 174 49 240 -17 q 108 244 108 115 l 108 696 l 151 696 l 151 231 q 204 80 151 135 q 360 25 257 25 q 524 81 463 25 q 586 231 586 136 l 586 513 q 615 681 586 649 q 656 708 631 697 l 669 675 q 629 560 629 650 l 629 -85 q 596 -218 629 -169 q 483 -292 563 -267 m 285 809 q 285 803 285 809 q 276 788 285 797 q 255 779 267 779 q 235 788 243 779 q 226 809 226 797 q 235 830 226 821 q 255 839 243 839 q 276 830 267 839 q 285 809 285 821 m 506 810 q 506 805 506 810 q 497 790 506 799 q 476 781 488 781 q 455 790 464 781 q 446 810 446 799 q 455 831 446 822 q 476 840 464 840 q 497 831 488 840 q 506 810 506 822 z "},"Ā":{"ha":732,"x_min":17,"x_max":718,"o":"m 718 0 l 669 0 l 543 372 l 190 372 l 63 0 l 17 0 l 347 972 l 385 972 l 718 0 m 529 417 l 365 894 l 204 417 l 529 417 m 511 1049 l 210 1049 l 210 1094 l 511 1094 l 511 1049 z "},"ā":{"ha":694,"x_min":108,"x_max":643,"o":"m 332 558 q 599 481 486 558 q 358 669 599 669 q 351 669 356 669 l 354 707 q 521 681 467 707 q 572 650 550 665 q 607 610 594 635 q 628 566 619 585 q 639 515 636 547 q 643 414 643 467 l 643 0 q 413 -14 499 -14 q 108 235 108 -14 l 108 350 q 208 533 108 485 q 332 558 260 558 m 178 122 q 191 100 178 122 q 244 58 204 79 q 336 31 285 38 q 439 25 388 25 q 599 39 490 25 l 599 439 q 331 517 483 510 q 319 518 325 518 q 202 476 251 518 q 153 346 153 435 l 153 225 q 178 122 153 164 m 536 782 l 235 782 l 235 828 l 536 828 l 536 782 z "},"Ă":{"ha":732,"x_min":17,"x_max":718,"o":"m 718 0 l 669 0 l 543 372 l 190 372 l 63 0 l 17 0 l 347 972 l 385 972 l 718 0 m 529 417 l 365 894 l 204 417 l 529 417 m 525 1178 l 525 1171 q 479 1060 525 1106 q 368 1014 433 1014 q 257 1060 303 1014 q 211 1171 211 1106 l 211 1178 l 251 1178 l 251 1171 q 284 1091 251 1128 q 367 1054 317 1054 q 451 1091 418 1054 q 485 1171 485 1128 l 485 1178 l 525 1178 z "},"ă":{"ha":694,"x_min":108,"x_max":643,"o":"m 332 558 q 599 481 486 558 q 358 669 599 669 q 351 669 356 669 l 354 707 q 521 681 467 707 q 572 650 550 665 q 607 610 594 635 q 628 566 619 585 q 639 515 636 547 q 643 414 643 467 l 643 0 q 413 -14 499 -14 q 108 235 108 -14 l 108 350 q 208 533 108 485 q 332 558 260 558 m 178 122 q 191 100 178 122 q 244 58 204 79 q 336 31 285 38 q 439 25 388 25 q 599 39 490 25 l 599 439 q 331 517 483 510 q 319 518 325 518 q 202 476 251 518 q 153 346 153 435 l 153 225 q 178 122 153 164 m 586 911 l 586 904 q 540 793 586 839 q 429 747 494 747 q 318 793 364 747 q 272 904 272 839 l 272 911 l 313 911 l 313 904 q 345 824 313 861 q 428 788 378 788 q 513 824 479 788 q 546 904 546 861 l 546 911 l 586 911 z "},"Ą":{"ha":939,"x_min":108,"x_max":888,"o":"m 856 -193 l 888 -226 q 754 -296 843 -296 q 705 -290 731 -296 q 652 -255 679 -283 q 625 -179 625 -226 q 758 0 625 -89 l 761 0 l 635 372 l 282 372 l 154 0 l 108 0 l 439 972 l 476 972 l 810 0 l 808 0 q 667 -181 667 -104 q 691 -234 667 -212 q 753 -256 715 -256 q 856 -193 817 -256 m 621 417 l 457 894 l 296 417 l 621 417 z "},"ą":{"ha":713,"x_min":51,"x_max":663,"o":"m 275 558 q 542 481 429 558 q 301 669 542 669 q 294 669 299 669 l 297 707 q 464 681 410 707 q 515 650 493 665 q 550 610 538 635 q 571 566 563 585 q 582 515 579 547 q 586 414 586 467 l 586 0 l 583 0 q 442 -181 442 -104 q 466 -234 442 -212 q 528 -256 490 -256 q 631 -193 592 -256 l 663 -226 q 529 -296 618 -296 q 480 -290 506 -296 q 427 -255 454 -283 q 400 -179 400 -226 q 524 -6 400 -93 q 383 -14 424 -14 q 294 -12 342 -14 q 206 6 247 -10 q 128 49 165 22 q 51 235 51 101 l 51 350 q 151 533 51 485 q 275 558 203 558 m 122 122 q 134 100 122 122 q 188 58 147 79 q 279 31 228 38 q 382 25 331 25 q 542 39 433 25 l 542 439 q 272 517 426 510 q 263 518 268 518 q 145 476 194 518 q 96 346 96 435 l 96 225 q 122 122 96 164 z "},"Ć":{"ha":600,"x_min":92,"x_max":593,"o":"m 593 32 q 368 -14 475 -14 q 301 -10 346 -14 q 205 22 256 -6 q 123 108 154 49 q 92 254 92 167 l 92 700 q 122 860 92 806 q 213 951 151 914 q 363 986 275 986 q 558 940 472 986 l 543 907 q 372 944 451 944 q 196 885 260 944 q 153 817 171 861 q 136 713 136 772 l 136 257 q 260 44 136 93 q 385 25 308 25 q 582 71 461 25 l 593 32 m 364 1019 l 325 1019 l 400 1192 q 428 1215 410 1215 q 458 1193 453 1215 q 460 1182 460 1189 q 454 1167 460 1175 l 364 1019 z "},"ć":{"ha":607,"x_min":108,"x_max":556,"o":"m 396 26 q 546 47 467 26 l 556 8 q 394 -15 467 -15 q 253 7 322 -15 q 108 250 108 54 l 108 428 q 147 593 108 526 q 367 708 214 708 q 553 664 458 708 l 539 626 q 389 667 456 667 q 273 649 322 667 q 188 576 224 632 q 153 436 153 519 l 153 235 q 396 26 153 26 m 329 747 l 290 747 l 365 919 q 393 943 375 943 q 425 921 418 943 q 425 910 425 917 q 419 894 425 903 l 329 747 z "},"Ĉ":{"ha":600,"x_min":92,"x_max":593,"o":"m 551 1039 l 386 1204 l 215 1039 l 182 1072 l 388 1268 l 585 1072 l 551 1039 m 593 32 q 368 -14 475 -14 q 301 -10 346 -14 q 205 22 256 -6 q 123 108 154 49 q 92 254 92 167 l 92 700 q 122 860 92 806 q 213 951 151 914 q 363 986 275 986 q 558 940 472 986 l 543 907 q 372 944 451 944 q 196 885 260 944 q 153 817 171 861 q 136 713 136 772 l 136 257 q 260 44 136 93 q 385 25 308 25 q 582 71 461 25 l 593 32 z "},"ĉ":{"ha":651,"x_min":108,"x_max":568,"o":"m 396 26 q 546 47 467 26 l 556 8 q 394 -15 467 -15 q 253 7 322 -15 q 108 250 108 54 l 108 428 q 147 593 108 526 q 367 708 214 708 q 553 664 458 708 l 539 626 q 389 667 456 667 q 273 649 322 667 q 188 576 224 632 q 153 436 153 519 l 153 235 q 396 26 153 26 m 535 772 l 369 938 l 199 772 l 165 806 l 371 1001 l 568 806 l 535 772 z "},"Ċ":{"ha":600,"x_min":92,"x_max":593,"o":"m 593 32 q 368 -14 475 -14 q 301 -10 346 -14 q 205 22 256 -6 q 123 108 154 49 q 92 254 92 167 l 92 700 q 122 860 92 806 q 213 951 151 914 q 363 986 275 986 q 558 940 472 986 l 543 907 q 372 944 451 944 q 196 885 260 944 q 153 817 171 861 q 136 713 136 772 l 136 257 q 260 44 136 93 q 385 25 308 25 q 582 71 461 25 l 593 32 m 397 1078 q 397 1073 397 1078 q 389 1058 397 1067 q 369 1050 381 1050 q 349 1058 357 1050 q 340 1078 340 1067 q 349 1099 340 1090 q 369 1107 357 1107 q 389 1099 381 1107 q 397 1078 397 1090 z "},"ċ":{"ha":607,"x_min":108,"x_max":556,"o":"m 396 26 q 546 47 467 26 l 556 8 q 394 -15 467 -15 q 253 7 322 -15 q 108 250 108 54 l 108 428 q 147 593 108 526 q 367 708 214 708 q 553 664 458 708 l 539 626 q 389 667 456 667 q 273 649 322 667 q 188 576 224 632 q 153 436 153 519 l 153 235 q 396 26 153 26 m 396 812 q 396 806 396 812 q 388 792 396 800 q 367 783 379 783 q 347 792 356 783 q 339 812 339 800 q 347 832 339 824 q 367 840 356 840 q 388 832 379 840 q 396 812 396 824 z "},"Č":{"ha":600,"x_min":92,"x_max":593,"o":"m 593 32 q 368 -14 475 -14 q 301 -10 346 -14 q 205 22 256 -6 q 123 108 154 49 q 92 254 92 167 l 92 700 q 122 860 92 806 q 213 951 151 914 q 363 986 275 986 q 558 940 472 986 l 543 907 q 372 944 451 944 q 196 885 260 944 q 153 817 171 861 q 136 713 136 772 l 136 257 q 260 44 136 93 q 385 25 308 25 q 582 71 461 25 l 593 32 m 553 1214 l 356 1018 l 150 1214 l 182 1246 l 354 1082 l 521 1246 l 553 1214 z "},"č":{"ha":608,"x_min":108,"x_max":557,"o":"m 396 26 q 546 47 467 26 l 556 8 q 394 -15 467 -15 q 253 7 322 -15 q 108 250 108 54 l 108 428 q 147 593 108 526 q 367 708 214 708 q 553 664 458 708 l 539 626 q 389 667 456 667 q 273 649 322 667 q 188 576 224 632 q 153 436 153 519 l 153 235 q 396 26 153 26 m 557 950 l 360 754 l 154 950 l 186 982 l 358 818 l 525 982 l 557 950 z "},"Ď":{"ha":800,"x_min":108,"x_max":692,"o":"m 397 0 l 108 0 l 108 974 l 369 974 q 609 888 526 974 q 692 658 692 801 l 692 278 q 397 0 692 0 m 647 286 l 647 658 q 570 862 647 794 q 383 929 493 929 l 153 929 l 153 42 l 381 42 q 449 44 419 42 q 518 62 478 47 q 584 101 558 76 q 628 173 610 125 q 647 286 647 221 m 578 1215 l 381 1019 l 175 1215 l 207 1247 l 379 1083 l 546 1247 l 578 1215 z "},"ď":{"ha":843,"x_min":108,"x_max":792,"o":"m 365 707 q 576 661 492 707 l 576 972 l 621 972 l 621 0 q 400 -17 501 -17 q 217 25 299 -17 q 108 218 108 81 l 108 481 q 226 681 108 626 q 365 707 283 707 m 422 25 q 576 42 494 25 l 576 619 q 374 667 489 667 q 266 651 315 667 q 185 591 217 636 q 153 476 153 546 l 153 217 q 422 25 153 25 m 706 778 l 671 801 q 726 842 704 819 q 753 878 747 865 l 758 892 l 751 893 q 731 919 731 903 q 740 944 731 936 q 760 953 749 953 q 782 943 772 953 q 792 921 792 933 q 706 778 792 849 z "},"Đ":{"ha":800,"x_min":108,"x_max":692,"o":"m 397 0 l 108 0 l 108 974 l 369 974 q 609 888 526 974 q 692 658 692 801 l 692 278 q 397 0 692 0 m 647 286 l 647 658 q 570 862 647 794 q 383 929 493 929 l 153 929 l 153 42 l 381 42 q 449 44 419 42 q 518 62 478 47 q 584 101 558 76 q 628 173 610 125 q 647 286 647 221 m 544 1049 l 243 1049 l 243 1094 l 544 1094 l 544 1049 z "},"đ":{"ha":757,"x_min":108,"x_max":706,"o":"m 365 707 q 576 661 492 707 l 576 813 l 381 813 l 381 857 l 576 857 l 576 972 l 621 972 l 621 857 l 706 857 l 706 813 l 621 813 l 621 0 q 400 -17 501 -17 q 217 25 299 -17 q 108 218 108 81 l 108 481 q 226 681 108 626 q 365 707 283 707 m 422 25 q 576 42 494 25 l 576 619 q 374 667 489 667 q 266 651 315 667 q 185 591 217 636 q 153 476 153 546 l 153 217 q 422 25 153 25 z "},"Ē":{"ha":646,"x_min":108,"x_max":572,"o":"m 569 0 l 108 0 l 108 972 l 572 972 l 572 929 l 153 929 l 153 574 l 451 574 l 436 529 l 153 529 l 153 42 l 569 42 l 569 0 m 489 1049 l 188 1049 l 188 1094 l 489 1094 l 489 1049 z "},"ē":{"ha":625,"x_min":49,"x_max":549,"o":"m 275 21 q 494 85 379 21 l 514 49 q 290 -17 407 -17 q 49 186 49 -17 l 49 471 q 119 646 49 583 q 304 708 189 708 q 484 647 419 708 q 549 475 549 585 l 549 326 l 93 303 l 93 185 q 148 60 93 99 q 275 21 203 21 m 504 368 l 504 479 q 443 624 504 581 q 299 668 382 668 q 154 620 215 668 q 93 471 93 572 l 93 346 l 504 368 m 453 782 l 151 782 l 151 828 l 453 828 l 453 782 z "},"Ė":{"ha":646,"x_min":108,"x_max":572,"o":"m 569 0 l 108 0 l 108 972 l 572 972 l 572 929 l 153 929 l 153 574 l 451 574 l 436 529 l 153 529 l 153 42 l 569 42 l 569 0 m 383 1078 q 383 1073 383 1078 q 375 1058 383 1067 q 355 1050 367 1050 q 335 1058 343 1050 q 326 1078 326 1067 q 335 1099 326 1090 q 355 1107 343 1107 q 375 1099 367 1107 q 383 1078 383 1090 z "},"ė":{"ha":660,"x_min":108,"x_max":608,"o":"m 335 21 q 554 85 439 21 l 574 49 q 350 -17 467 -17 q 108 186 108 -17 l 108 471 q 178 646 108 583 q 364 708 249 708 q 544 647 479 708 q 608 475 608 585 l 608 326 l 153 303 l 153 185 q 208 60 153 99 q 335 21 263 21 m 564 368 l 564 479 q 503 624 564 581 q 358 668 442 668 q 214 620 275 668 q 153 471 153 572 l 153 346 l 564 368 m 403 812 q 403 806 403 812 q 394 792 403 800 q 374 783 386 783 q 354 792 363 783 q 346 812 346 800 q 354 832 346 824 q 374 840 363 840 q 394 832 386 840 q 403 812 403 824 z "},"Ę":{"ha":722,"x_min":108,"x_max":649,"o":"m 617 -193 l 649 -226 q 515 -296 604 -296 q 466 -290 492 -296 q 413 -255 440 -283 q 386 -179 386 -226 q 519 0 386 -89 l 108 0 l 108 972 l 572 972 l 572 929 l 153 929 l 153 574 l 451 574 l 436 529 l 153 529 l 153 42 l 569 42 l 569 0 q 428 -181 428 -104 q 452 -234 428 -212 q 514 -256 476 -256 q 617 -193 578 -256 z "},"ę":{"ha":603,"x_min":49,"x_max":549,"o":"m 275 21 q 494 85 379 21 l 514 49 q 329 -14 435 0 q 206 -181 206 -108 q 230 -234 206 -212 q 292 -256 254 -256 q 394 -193 356 -256 l 426 -226 q 293 -296 382 -296 q 244 -290 269 -296 q 191 -255 218 -283 q 164 -179 164 -226 q 274 -17 164 -97 q 109 34 169 -17 q 49 186 49 85 l 49 471 q 119 646 49 583 q 304 708 189 708 q 484 647 419 708 q 549 475 549 585 l 549 326 l 93 303 l 93 185 q 148 60 93 99 q 275 21 203 21 m 504 368 l 504 479 q 443 624 504 581 q 299 668 382 668 q 154 620 215 668 q 93 471 93 572 l 93 346 l 504 368 z "},"Ě":{"ha":646,"x_min":108,"x_max":572,"o":"m 569 0 l 108 0 l 108 972 l 572 972 l 572 929 l 153 929 l 153 574 l 451 574 l 436 529 l 153 529 l 153 42 l 569 42 l 569 0 m 543 1215 l 346 1019 l 140 1215 l 172 1247 l 344 1083 l 511 1247 l 543 1215 z "},"ě":{"ha":660,"x_min":108,"x_max":608,"o":"m 335 21 q 554 85 439 21 l 574 49 q 350 -17 467 -17 q 108 186 108 -17 l 108 471 q 178 646 108 583 q 364 708 249 708 q 544 647 479 708 q 608 475 608 585 l 608 326 l 153 303 l 153 185 q 208 60 153 99 q 335 21 263 21 m 564 368 l 564 479 q 503 624 564 581 q 358 668 442 668 q 214 620 275 668 q 153 471 153 572 l 153 346 l 564 368 m 565 949 l 368 753 l 163 949 l 194 981 l 367 817 l 533 981 l 565 949 z "},"Ĝ":{"ha":746,"x_min":90,"x_max":661,"o":"m 543 906 q 368 944 444 944 q 268 927 313 944 q 198 885 224 910 q 153 811 172 860 q 135 697 135 763 l 135 260 q 203 92 135 156 q 387 29 271 29 q 560 94 503 29 q 618 254 618 158 l 618 372 l 486 372 l 469 417 l 661 417 l 661 0 l 624 0 l 617 100 q 383 -14 553 -14 q 176 56 261 -14 q 90 263 90 125 l 90 699 q 211 950 90 876 q 360 985 274 985 q 557 939 467 985 l 543 906 m 556 1039 l 390 1204 l 219 1039 l 186 1072 l 392 1268 l 589 1072 l 556 1039 z "},"ĝ":{"ha":685,"x_min":108,"x_max":632,"o":"m 544 772 l 379 938 l 208 772 l 175 806 l 381 1001 l 578 806 l 544 772 m 483 -292 l 471 -254 q 558 -198 528 -233 q 588 -87 588 -162 l 588 97 q 367 -17 514 -17 q 176 50 244 -17 q 108 244 108 117 l 108 451 q 181 641 108 574 q 375 708 254 708 q 589 610 522 708 l 588 696 l 632 696 l 632 -89 q 597 -219 632 -172 q 483 -292 563 -267 m 588 229 l 588 522 q 510 631 569 596 q 374 667 451 667 q 233 625 299 667 q 175 556 197 603 q 153 444 153 510 l 153 232 q 208 81 153 136 q 358 25 264 25 q 519 76 451 25 q 588 229 588 128 z "},"Ğ":{"ha":746,"x_min":90,"x_max":661,"o":"m 543 906 q 368 944 444 944 q 268 927 313 944 q 198 885 224 910 q 153 811 172 860 q 135 697 135 763 l 135 260 q 203 92 135 156 q 387 29 271 29 q 560 94 503 29 q 618 254 618 158 l 618 372 l 486 372 l 469 417 l 661 417 l 661 0 l 624 0 l 617 100 q 383 -14 553 -14 q 176 56 261 -14 q 90 263 90 125 l 90 699 q 211 950 90 876 q 360 985 274 985 q 557 939 467 985 l 543 906 m 540 1175 l 540 1168 q 494 1057 540 1103 q 383 1011 447 1011 q 273 1057 319 1011 q 226 1168 226 1103 l 226 1175 l 267 1175 l 267 1168 q 299 1088 267 1125 q 383 1051 332 1051 q 467 1088 433 1051 q 500 1168 500 1125 l 500 1175 l 540 1175 z "},"ğ":{"ha":683,"x_min":108,"x_max":632,"o":"m 549 903 l 549 896 q 502 785 549 831 q 392 739 456 739 q 281 785 328 739 q 235 896 235 831 l 235 903 l 275 903 l 275 896 q 308 816 275 853 q 391 779 340 779 q 475 816 442 779 q 508 896 508 853 l 508 903 l 549 903 m 483 -292 l 471 -254 q 558 -198 528 -233 q 588 -87 588 -162 l 588 97 q 367 -17 514 -17 q 176 50 244 -17 q 108 244 108 117 l 108 451 q 181 641 108 574 q 375 708 254 708 q 589 610 522 708 l 588 696 l 632 696 l 632 -89 q 597 -219 632 -172 q 483 -292 563 -267 m 588 229 l 588 522 q 510 631 569 596 q 374 667 451 667 q 233 625 299 667 q 175 556 197 603 q 153 444 153 510 l 153 232 q 208 81 153 136 q 358 25 264 25 q 519 76 451 25 q 588 229 588 128 z "},"Ġ":{"ha":786,"x_min":90,"x_max":661,"o":"m 407 1077 q 407 1071 407 1077 q 399 1057 407 1065 q 378 1049 390 1049 q 358 1057 367 1049 q 350 1077 350 1065 q 358 1097 350 1089 q 378 1106 367 1106 q 399 1097 390 1106 q 407 1077 407 1089 m 543 906 q 368 944 444 944 q 268 927 313 944 q 198 885 224 910 q 153 811 172 860 q 135 697 135 763 l 135 260 q 203 92 135 156 q 387 29 271 29 q 560 94 503 29 q 618 254 618 158 l 618 372 l 486 372 l 469 417 l 661 417 l 661 0 l 624 0 l 617 100 q 383 -14 553 -14 q 176 56 261 -14 q 90 263 90 125 l 90 699 q 211 950 90 876 q 360 985 274 985 q 557 939 467 985 l 543 906 z "},"ġ":{"ha":683,"x_min":108,"x_max":632,"o":"m 417 810 q 417 805 417 810 q 408 790 417 799 q 388 782 400 782 q 368 790 376 782 q 360 810 360 799 q 368 831 360 822 q 388 839 376 839 q 408 831 400 839 q 417 810 417 822 m 483 -292 l 471 -254 q 558 -198 528 -233 q 588 -87 588 -162 l 588 97 q 367 -17 514 -17 q 176 50 244 -17 q 108 244 108 117 l 108 451 q 181 641 108 574 q 375 708 254 708 q 589 610 522 708 l 588 696 l 632 696 l 632 -89 q 597 -219 632 -172 q 483 -292 563 -267 m 588 229 l 588 522 q 510 631 569 596 q 374 667 451 667 q 233 625 299 667 q 175 556 197 603 q 153 444 153 510 l 153 232 q 208 81 153 136 q 358 25 264 25 q 519 76 451 25 q 588 229 588 128 z "},"Ģ":{"ha":746,"x_min":90,"x_max":661,"o":"m 543 906 q 368 944 444 944 q 268 927 313 944 q 198 885 224 910 q 153 811 172 860 q 135 697 135 763 l 135 260 q 203 92 135 156 q 387 29 271 29 q 560 94 503 29 q 618 254 618 158 l 618 372 l 486 372 l 469 417 l 661 417 l 661 0 l 624 0 l 617 100 q 383 -14 553 -14 q 176 56 261 -14 q 90 263 90 125 l 90 699 q 211 950 90 876 q 360 985 274 985 q 557 939 467 985 l 543 906 m 331 -256 l 296 -232 q 351 -191 329 -214 q 378 -156 374 -168 l 383 -142 l 376 -140 q 356 -114 356 -131 q 365 -89 356 -97 q 385 -81 374 -81 q 407 -90 397 -81 q 417 -112 417 -100 q 331 -256 417 -185 z "},"ģ":{"ha":683,"x_min":108,"x_max":632,"o":"m 483 -292 l 471 -254 q 558 -198 528 -233 q 588 -87 588 -162 l 588 97 q 367 -17 514 -17 q 176 50 244 -17 q 108 244 108 117 l 108 451 q 181 641 108 574 q 375 708 254 708 q 589 610 522 708 l 588 696 l 632 696 l 632 -89 q 597 -219 632 -172 q 483 -292 563 -267 m 588 229 l 588 522 q 510 631 569 596 q 374 667 451 667 q 233 625 299 667 q 175 556 197 603 q 153 444 153 510 l 153 232 q 208 81 153 136 q 358 25 264 25 q 519 76 451 25 q 588 229 588 128 m 358 846 l 365 844 q 386 818 386 835 q 377 793 386 801 q 356 785 368 785 q 335 794 344 785 q 325 817 325 803 q 411 960 325 889 l 446 936 q 390 895 413 918 q 364 858 368 872 l 358 846 z "},"Ĥ":{"ha":817,"x_min":108,"x_max":706,"o":"m 706 0 l 661 0 l 661 529 l 153 529 l 153 0 l 108 0 l 108 972 l 153 972 l 153 574 l 661 574 l 661 972 l 706 972 l 706 0 m 578 1039 l 413 1204 l 242 1039 l 208 1072 l 414 1268 l 611 1072 l 578 1039 z "},"ĥ":{"ha":804,"x_min":35,"x_max":721,"o":"m 404 1040 l 239 1206 l 68 1040 l 35 1074 l 240 1269 l 438 1074 l 404 1040 m 253 660 q 442 708 339 708 q 603 681 546 708 q 721 481 721 626 l 721 0 l 676 0 l 676 481 q 631 608 676 561 q 460 667 572 667 q 253 617 347 667 l 253 0 l 208 0 l 208 972 l 253 972 l 253 660 z "},"Ħ":{"ha":951,"x_min":108,"x_max":840,"o":"m 774 0 l 729 0 l 729 529 l 221 529 l 221 0 l 176 0 l 176 703 l 108 703 l 108 747 l 176 747 l 176 972 l 221 972 l 221 747 l 729 747 l 729 972 l 774 972 l 774 747 l 840 747 l 840 703 l 774 703 l 774 0 m 729 574 l 729 703 l 221 703 l 221 574 l 729 574 z "},"ħ":{"ha":758,"x_min":108,"x_max":707,"o":"m 239 660 q 428 708 325 708 q 589 681 532 708 q 707 481 707 626 l 707 0 l 663 0 l 663 481 q 617 608 663 561 q 446 667 558 667 q 239 617 333 667 l 239 0 l 194 0 l 194 813 l 108 813 l 108 857 l 194 857 l 194 972 l 239 972 l 239 857 l 433 857 l 433 813 l 239 813 l 239 660 z "},"Ĩ":{"ha":672,"x_min":108,"x_max":561,"o":"m 382 0 l 338 0 l 338 928 l 226 931 l 226 972 l 382 972 l 382 0 m 246 1147 q 372 1106 282 1147 q 453 1089 408 1089 q 539 1133 497 1089 l 561 1100 q 444 1043 504 1043 q 377 1058 414 1043 q 311 1085 340 1072 q 242 1103 272 1103 q 131 1044 183 1103 l 108 1078 q 246 1147 171 1147 z "},"ĩ":{"ha":611,"x_min":108,"x_max":561,"o":"m 246 871 q 372 829 282 871 q 453 813 408 813 q 539 857 497 813 l 561 824 q 444 767 504 767 q 377 781 414 767 q 311 808 340 796 q 242 826 272 826 q 131 768 183 826 l 108 801 q 246 871 171 871 m 354 0 l 310 0 l 310 696 l 354 696 l 354 0 z "},"Ī":{"ha":519,"x_min":108,"x_max":408,"o":"m 325 0 l 281 0 l 281 928 l 169 931 l 169 972 l 325 972 l 325 0 m 408 1049 l 108 1049 l 108 1094 l 408 1094 l 408 1049 z "},"ī":{"ha":461,"x_min":108,"x_max":410,"o":"m 410 782 l 108 782 l 108 828 l 410 828 l 410 782 m 286 0 l 242 0 l 242 696 l 286 696 l 286 0 z "},"Į":{"ha":482,"x_min":108,"x_max":371,"o":"m 290 0 l 246 0 l 246 928 l 135 931 l 135 972 l 290 972 l 290 0 m 339 -193 l 371 -226 q 238 -296 326 -296 q 188 -290 214 -296 q 135 -255 163 -283 q 108 -179 108 -226 q 242 0 108 -89 l 292 0 q 150 -181 150 -104 q 174 -234 150 -212 q 236 -256 199 -256 q 339 -193 300 -256 z "},"į":{"ha":401,"x_min":-6,"x_max":257,"o":"m 175 0 l 131 0 l 131 696 l 175 696 l 175 0 m 181 958 q 181 952 181 958 q 172 938 181 946 q 152 929 164 929 q 132 938 140 929 q 124 958 124 946 q 132 978 124 969 q 152 986 140 986 q 172 978 164 986 q 181 958 181 969 m 225 -193 l 257 -226 q 124 -296 213 -296 q 74 -290 100 -296 q 22 -255 49 -283 q -6 -179 -6 -226 q 128 0 -6 -89 l 178 0 q 36 -181 36 -104 q 60 -234 36 -212 q 122 -256 85 -256 q 225 -193 186 -256 z "},"İ":{"ha":381,"x_min":108,"x_max":269,"o":"m 264 0 l 219 0 l 219 928 l 108 931 l 108 972 l 264 972 l 264 0 m 269 1078 q 269 1073 269 1078 q 261 1058 269 1067 q 241 1050 253 1050 q 221 1058 229 1050 q 213 1078 213 1067 q 221 1099 213 1090 q 241 1107 229 1107 q 261 1099 253 1107 q 269 1078 269 1090 z "},"ı":{"ha":178,"x_min":64,"x_max":108,"o":"m 108 0 l 64 0 l 64 696 l 108 696 l 108 0 z "},"Ĵ":{"ha":351,"x_min":1,"x_max":315,"o":"m 31 -51 l 19 -17 q 142 163 142 -4 l 142 928 l 33 931 l 33 972 l 186 972 l 186 168 q 149 10 186 64 q 31 -51 111 -43 m 315 1175 l 315 1168 q 269 1057 315 1103 q 158 1011 222 1011 q 48 1057 94 1011 q 1 1168 1 1103 l 1 1175 l 42 1175 l 42 1168 q 74 1088 42 1125 q 158 1051 107 1051 q 242 1088 208 1051 q 275 1168 275 1125 l 275 1175 l 315 1175 z "},"ĵ":{"ha":563,"x_min":107,"x_max":510,"o":"m 476 772 l 311 938 l 140 772 l 107 806 l 313 1001 l 510 806 l 476 772 m 285 -101 l 285 651 l 196 653 l 175 696 l 329 696 l 329 -111 q 290 -231 328 -181 q 175 -290 253 -282 l 168 -253 q 206 -242 183 -253 q 244 -217 229 -232 q 272 -172 260 -203 q 285 -101 285 -142 z "},"Ķ":{"ha":664,"x_min":110,"x_max":661,"o":"m 661 0 l 610 0 l 265 532 l 154 383 l 154 0 l 110 0 l 110 974 l 154 974 l 154 457 l 538 974 l 589 974 l 293 571 l 661 0 m 315 -256 l 281 -232 q 336 -191 314 -214 q 364 -156 358 -168 l 368 -142 l 361 -140 q 340 -114 340 -131 q 349 -89 340 -97 q 371 -81 358 -81 q 392 -90 383 -81 q 401 -112 401 -100 q 315 -256 401 -185 z "},"ķ":{"ha":639,"x_min":93,"x_max":603,"o":"m 603 0 l 550 0 l 251 485 l 138 382 l 138 0 l 93 0 l 93 972 l 138 972 l 138 435 l 449 722 l 481 692 l 285 514 q 603 0 422 286 m 282 -256 l 247 -232 q 303 -191 281 -214 q 331 -156 325 -168 l 335 -142 l 328 -140 q 307 -114 307 -131 q 316 -89 307 -97 q 338 -81 325 -81 q 359 -90 350 -81 q 368 -112 368 -100 q 282 -256 368 -185 z "},"ĸ":{"ha":672,"x_min":108,"x_max":621,"o":"m 621 40 l 621 -1 q 526 35 569 -1 q 432 142 482 72 l 264 375 l 153 258 l 153 0 l 108 0 l 108 711 l 153 700 l 153 318 l 500 696 l 560 696 l 294 407 l 471 158 q 621 40 558 40 z "},"Ĺ":{"ha":611,"x_min":108,"x_max":610,"o":"m 610 0 l 108 0 l 108 972 l 153 972 l 153 42 l 610 42 l 610 0 m 151 1014 l 113 1014 l 188 1186 q 215 1210 197 1210 q 247 1188 240 1210 q 247 1176 247 1183 q 242 1161 247 1169 l 151 1014 z "},"ĺ":{"ha":360,"x_min":117,"x_max":256,"o":"m 161 0 l 117 0 l 117 972 l 161 972 l 161 0 m 160 1019 l 121 1019 l 196 1192 q 224 1215 206 1215 q 256 1193 249 1215 q 256 1182 256 1189 q 250 1167 256 1175 l 160 1019 z "},"Ļ":{"ha":611,"x_min":108,"x_max":610,"o":"m 610 0 l 108 0 l 108 972 l 153 972 l 153 42 l 610 42 l 610 0 m 331 -256 l 296 -232 q 351 -191 329 -214 q 378 -156 374 -168 l 383 -142 l 376 -140 q 356 -114 356 -131 q 365 -89 356 -97 q 385 -81 374 -81 q 407 -90 397 -81 q 417 -112 417 -100 q 331 -256 417 -185 z "},"ļ":{"ha":340,"x_min":108,"x_max":229,"o":"m 210 0 l 165 0 l 165 972 l 210 972 l 210 0 m 143 -256 l 108 -232 q 164 -191 142 -214 q 192 -156 186 -168 l 196 -142 l 189 -140 q 168 -114 168 -131 q 177 -89 168 -97 q 199 -81 186 -81 q 220 -90 211 -81 q 229 -112 229 -100 q 143 -256 229 -185 z "},"Ľ":{"ha":615,"x_min":-67,"x_max":614,"o":"m 614 0 l 113 0 l 113 972 l 157 972 l 157 42 l 614 42 l 614 0 m 336 1215 l 139 1019 l -67 1215 l -35 1247 l 138 1083 l 304 1247 l 336 1215 z "},"ľ":{"ha":281,"x_min":-56,"x_max":347,"o":"m 168 0 l 124 0 l 124 972 l 168 972 l 168 0 m 347 1215 l 150 1019 l -56 1215 l -24 1247 l 149 1083 l 315 1247 l 347 1215 z "},"Ł":{"ha":832,"x_min":108,"x_max":781,"o":"m 781 0 l 279 0 l 279 526 l 125 457 l 108 497 l 279 574 l 279 972 l 324 972 l 324 594 l 513 679 l 531 639 l 324 546 l 324 42 l 781 42 l 781 0 z "},"ł":{"ha":582,"x_min":108,"x_max":531,"o":"m 343 0 l 299 0 l 299 535 l 125 457 l 108 497 l 299 582 l 299 928 l 188 931 l 188 972 l 343 972 l 343 603 l 513 679 l 531 639 l 343 554 l 343 0 z "},"Ń":{"ha":903,"x_min":108,"x_max":792,"o":"m 792 0 l 749 0 l 151 894 l 151 0 l 108 0 l 108 972 l 151 972 l 749 79 l 749 972 l 792 972 l 792 0 m 425 1014 l 386 1014 l 461 1186 q 489 1210 471 1210 q 519 1188 514 1210 q 521 1176 521 1183 q 515 1161 521 1169 l 425 1014 z "},"ń":{"ha":672,"x_min":108,"x_max":621,"o":"m 153 660 q 342 708 239 708 q 503 681 446 708 q 621 481 621 626 l 621 0 l 576 0 l 576 481 q 531 606 576 560 q 357 665 472 665 q 153 617 242 665 l 153 0 l 108 0 l 108 696 l 153 696 l 153 660 m 360 747 l 321 747 l 396 919 q 424 943 406 943 q 456 921 449 943 q 456 910 456 917 q 450 894 456 903 l 360 747 z "},"Ņ":{"ha":903,"x_min":108,"x_max":792,"o":"m 792 0 l 749 0 l 151 894 l 151 0 l 108 0 l 108 972 l 151 972 l 749 79 l 749 972 l 792 972 l 792 0 m 432 -256 l 397 -232 q 453 -191 431 -214 q 481 -156 475 -168 l 485 -142 l 478 -140 q 457 -114 457 -131 q 466 -89 457 -97 q 488 -81 475 -81 q 509 -90 500 -81 q 518 -112 518 -100 q 432 -256 518 -185 z "},"ņ":{"ha":694,"x_min":89,"x_max":601,"o":"m 133 660 q 323 708 219 708 q 483 681 426 708 q 601 481 601 626 l 601 0 l 557 0 l 557 481 q 511 606 557 560 q 338 665 453 665 q 133 617 222 665 l 133 0 l 89 0 l 89 696 l 133 696 l 133 660 m 299 -256 l 264 -232 q 319 -191 297 -214 q 346 -156 340 -168 l 351 -142 l 344 -140 q 324 -114 324 -131 q 333 -89 324 -97 q 354 -81 342 -81 q 376 -90 367 -81 q 385 -112 385 -100 q 299 -256 385 -185 z "},"Ň":{"ha":903,"x_min":108,"x_max":792,"o":"m 792 0 l 749 0 l 151 894 l 151 0 l 108 0 l 108 972 l 151 972 l 749 79 l 749 972 l 792 972 l 792 0 m 658 1215 l 461 1019 l 256 1215 l 288 1247 l 460 1083 l 626 1247 l 658 1215 z "},"ň":{"ha":672,"x_min":108,"x_max":621,"o":"m 153 660 q 342 708 239 708 q 503 681 446 708 q 621 481 621 626 l 621 0 l 576 0 l 576 481 q 531 606 576 560 q 357 665 472 665 q 153 617 242 665 l 153 0 l 108 0 l 108 696 l 153 696 l 153 660 m 585 1018 l 388 822 l 182 1018 l 214 1050 l 386 886 l 553 1050 l 585 1018 z "},"Ŋ":{"ha":903,"x_min":108,"x_max":792,"o":"m 749 179 l 749 928 l 640 931 l 640 972 l 792 972 l 792 168 q 638 -51 792 -35 q 625 -17 631 -36 q 721 40 689 -11 q 151 894 494 383 l 151 0 l 108 0 l 108 972 l 151 972 q 740 92 217 875 q 749 179 749 118 z "},"ŋ":{"ha":696,"x_min":89,"x_max":603,"o":"m 133 660 q 323 708 219 708 q 483 681 426 708 q 601 478 597 625 l 603 479 l 603 -111 q 564 -231 601 -181 q 447 -290 526 -282 l 442 -253 q 478 -241 454 -253 q 518 -214 503 -229 q 546 -167 533 -199 q 558 -94 558 -136 l 557 481 q 511 606 557 560 q 338 665 453 665 q 133 617 222 665 l 133 0 l 89 0 l 89 696 l 133 696 l 133 660 z "},"Ō":{"ha":763,"x_min":88,"x_max":671,"o":"m 671 703 l 671 257 q 585 51 671 117 q 381 -15 500 -15 q 174 51 261 -15 q 88 257 88 117 l 88 704 q 166 921 88 847 q 382 994 244 994 q 595 917 519 994 q 671 703 671 839 m 626 257 l 626 711 q 563 887 626 824 q 379 950 499 950 q 196 887 260 950 q 132 710 132 824 l 132 257 q 203 85 132 143 q 381 28 275 28 q 556 83 486 28 q 626 257 626 138 m 524 1049 l 222 1049 l 222 1094 l 524 1094 l 524 1049 z "},"ō":{"ha":678,"x_min":108,"x_max":626,"o":"m 626 439 l 626 256 q 563 63 626 139 q 369 -14 499 -14 q 174 63 240 -14 q 108 256 108 140 l 108 439 q 176 641 108 571 q 367 711 243 711 q 558 638 490 711 q 626 439 626 565 m 582 250 l 582 443 q 522 613 582 557 q 367 669 463 669 q 213 613 272 669 q 153 443 153 557 l 153 250 q 207 91 153 156 q 368 26 261 26 q 528 90 475 26 q 582 250 582 153 m 517 782 l 217 782 l 217 828 l 517 828 l 517 782 z "},"Ő":{"ha":763,"x_min":88,"x_max":671,"o":"m 671 703 l 671 257 q 585 51 671 117 q 381 -15 500 -15 q 174 51 261 -15 q 88 257 88 117 l 88 704 q 166 921 88 847 q 382 994 244 994 q 595 917 519 994 q 671 703 671 839 m 626 257 l 626 711 q 563 887 626 824 q 379 950 499 950 q 196 887 260 950 q 132 710 132 824 l 132 257 q 203 85 132 143 q 381 28 275 28 q 556 83 486 28 q 626 257 626 138 m 457 1015 l 418 1015 l 493 1188 q 521 1211 503 1211 q 553 1189 546 1211 q 553 1178 553 1185 q 547 1163 553 1171 l 457 1015 m 301 1015 l 263 1015 l 338 1188 q 365 1211 347 1211 q 397 1189 390 1211 q 397 1178 397 1185 q 392 1163 397 1171 l 301 1015 z "},"ő":{"ha":678,"x_min":108,"x_max":626,"o":"m 626 439 l 626 256 q 563 63 626 139 q 369 -14 499 -14 q 174 63 240 -14 q 108 256 108 140 l 108 439 q 176 641 108 571 q 367 711 243 711 q 558 638 490 711 q 626 439 626 565 m 582 250 l 582 443 q 522 613 582 557 q 367 669 463 669 q 213 613 272 669 q 153 443 153 557 l 153 250 q 207 91 153 156 q 368 26 261 26 q 528 90 475 26 q 582 250 582 153 m 439 754 l 400 754 l 475 926 q 503 950 485 950 q 533 928 528 950 q 535 917 535 924 q 529 901 535 910 l 439 754 m 283 754 l 244 754 l 319 926 q 347 950 329 950 q 378 928 372 950 q 379 917 379 924 q 374 901 379 910 l 283 754 z "},"Œ":{"ha":1164,"x_min":108,"x_max":1113,"o":"m 1110 0 l 649 0 l 649 97 q 401 -15 572 -15 q 195 51 282 -15 q 108 257 108 117 l 108 704 q 187 921 108 847 q 403 994 265 994 q 649 875 574 994 l 649 972 l 1113 972 l 1113 929 l 693 929 l 693 574 l 992 574 l 976 529 l 693 529 l 693 42 l 1110 42 l 1110 0 m 647 257 l 647 711 q 583 887 647 824 q 400 950 519 950 q 217 887 281 950 q 153 710 153 824 l 153 257 q 224 85 153 143 q 401 28 296 28 q 577 83 507 28 q 647 257 647 138 z "},"œ":{"ha":1101,"x_min":108,"x_max":1050,"o":"m 786 21 q 997 83 886 21 l 1015 49 q 776 -17 907 -17 q 654 15 708 -17 q 579 110 600 47 q 492 19 549 53 q 363 -14 435 -14 q 172 63 235 -14 q 108 256 108 139 l 108 439 q 174 641 108 571 q 365 711 240 711 q 503 672 444 711 q 585 565 561 633 q 670 669 613 631 q 813 708 728 708 q 988 647 925 708 q 1050 475 1050 585 l 1050 325 l 610 301 l 610 188 q 664 60 610 99 q 786 21 718 21 m 564 228 l 564 454 q 508 615 564 560 q 369 669 453 669 q 365 669 368 669 q 153 439 153 669 l 153 242 q 211 85 153 142 q 362 28 269 28 q 509 84 454 28 q 564 228 564 140 m 1006 365 l 1006 485 q 947 626 1006 583 q 807 669 889 669 q 667 615 725 669 q 610 469 610 561 l 610 347 l 1006 365 z "},"Ŕ":{"ha":783,"x_min":108,"x_max":713,"o":"m 713 0 l 665 0 l 503 376 q 461 372 482 372 l 154 372 l 154 0 l 108 0 l 108 972 l 443 972 q 645 892 579 972 q 711 675 711 811 q 546 388 711 446 l 713 0 m 154 417 l 447 417 q 557 441 511 417 q 625 506 603 465 q 665 689 665 581 q 608 863 665 797 q 444 928 551 928 l 154 928 l 154 417 m 354 1014 l 315 1014 l 390 1186 q 418 1210 400 1210 q 450 1188 443 1210 q 450 1176 450 1183 q 444 1161 450 1169 l 354 1014 z "},"ŕ":{"ha":507,"x_min":108,"x_max":456,"o":"m 153 0 l 108 0 l 108 696 l 153 696 l 151 631 q 351 707 228 707 q 456 696 400 707 l 443 651 q 358 664 392 664 q 204 628 256 664 q 153 551 153 593 l 153 0 m 231 747 l 192 747 l 267 919 q 294 943 276 943 q 325 921 319 943 q 326 910 326 917 q 321 894 326 903 l 231 747 z "},"Ŗ":{"ha":783,"x_min":108,"x_max":713,"o":"m 713 0 l 665 0 l 503 376 q 461 372 482 372 l 154 372 l 154 0 l 108 0 l 108 972 l 443 972 q 645 892 579 972 q 711 675 711 811 q 546 388 711 446 l 713 0 m 154 417 l 447 417 q 557 441 511 417 q 625 506 603 465 q 665 689 665 581 q 608 863 665 797 q 444 928 551 928 l 154 928 l 154 417 m 344 -256 l 310 -232 q 365 -191 343 -214 q 392 -156 386 -168 l 397 -142 l 390 -140 q 369 -114 369 -131 q 378 -89 369 -97 q 399 -81 388 -81 q 421 -90 411 -81 q 431 -112 431 -100 q 344 -256 431 -185 z "},"ŗ":{"ha":506,"x_min":85,"x_max":432,"o":"m 129 0 l 85 0 l 85 696 l 129 696 l 128 631 q 328 707 204 707 q 432 696 376 707 l 419 651 q 335 664 368 664 q 181 628 232 664 q 129 551 129 593 l 129 0 m 150 -256 l 115 -232 q 170 -191 149 -214 q 197 -156 192 -168 l 203 -142 l 196 -140 q 175 -114 175 -131 q 184 -89 175 -97 q 205 -81 193 -81 q 226 -90 217 -81 q 236 -112 236 -100 q 150 -256 236 -185 z "},"Ř":{"ha":783,"x_min":108,"x_max":713,"o":"m 713 0 l 665 0 l 503 376 q 461 372 482 372 l 154 372 l 154 0 l 108 0 l 108 972 l 443 972 q 645 892 579 972 q 711 675 711 811 q 546 388 711 446 l 713 0 m 154 417 l 447 417 q 557 441 511 417 q 625 506 603 465 q 665 689 665 581 q 608 863 665 797 q 444 928 551 928 l 154 928 l 154 417 m 593 1215 l 396 1019 l 190 1215 l 222 1247 l 394 1083 l 561 1247 l 593 1215 z "},"ř":{"ha":563,"x_min":108,"x_max":511,"o":"m 154 0 l 110 0 l 110 696 l 154 696 l 153 631 q 353 707 229 707 q 457 696 401 707 l 444 651 q 360 664 393 664 q 206 628 257 664 q 154 551 154 593 l 154 0 m 511 1018 l 314 822 l 108 1018 l 140 1050 l 313 886 l 479 1050 l 511 1018 z "},"Ś":{"ha":779,"x_min":51,"x_max":711,"o":"m 51 247 l 99 247 q 175 97 101 165 q 376 28 249 28 q 583 83 503 28 q 663 260 663 139 q 619 374 663 326 q 510 447 575 422 q 369 499 446 471 q 228 551 293 526 q 120 627 164 576 q 76 747 76 678 q 157 915 76 844 q 389 986 238 986 q 592 944 504 986 l 576 900 q 384 943 493 943 q 199 891 275 943 q 124 743 124 839 q 184 630 124 675 q 331 558 244 585 q 503 499 417 531 q 651 409 590 468 q 711 263 711 350 q 630 60 711 135 q 388 -15 549 -15 q 141 65 228 -15 q 51 247 54 144 m 372 1021 l 333 1021 l 408 1193 q 436 1217 418 1217 q 467 1194 461 1217 q 468 1183 468 1190 q 463 1168 468 1176 l 372 1021 z "},"ś":{"ha":615,"x_min":64,"x_max":564,"o":"m 456 633 q 317 671 396 671 q 183 634 238 671 q 128 532 128 597 q 177 442 128 474 q 290 393 226 411 q 415 353 353 375 q 521 286 478 331 q 564 166 564 242 q 502 35 564 90 q 322 -21 440 -21 q 135 36 203 -21 q 64 176 67 93 l 107 176 q 171 66 114 110 q 317 22 228 22 q 463 63 406 22 q 519 165 519 103 q 477 265 519 228 q 374 321 435 301 q 251 360 313 340 q 142 415 189 379 q 85 526 85 458 q 138 653 85 593 q 318 713 192 713 q 400 702 361 713 q 456 681 439 692 l 474 671 l 456 633 m 306 747 l 267 747 l 342 919 q 369 943 351 943 q 400 921 394 943 q 401 910 401 917 q 396 894 401 903 l 306 747 z "},"Ŝ":{"ha":779,"x_min":51,"x_max":711,"o":"m 51 247 l 99 247 q 175 97 101 165 q 376 28 249 28 q 583 83 503 28 q 663 260 663 139 q 619 374 663 326 q 510 447 575 422 q 369 499 446 471 q 228 551 293 526 q 120 627 164 576 q 76 747 76 678 q 157 915 76 844 q 389 986 238 986 q 592 944 504 986 l 576 900 q 384 943 493 943 q 199 891 275 943 q 124 743 124 839 q 184 630 124 675 q 331 558 244 585 q 503 499 417 531 q 651 409 590 468 q 711 263 711 350 q 630 60 711 135 q 388 -15 549 -15 q 141 65 228 -15 q 51 247 54 144 m 567 1039 l 401 1204 l 231 1039 l 197 1072 l 403 1268 l 600 1072 l 567 1039 z "},"ŝ":{"ha":660,"x_min":108,"x_max":608,"o":"m 531 772 l 365 938 l 194 772 l 161 806 l 367 1001 l 564 806 l 531 772 m 500 633 q 361 671 440 671 q 227 634 282 671 q 172 532 172 597 q 222 442 172 474 q 334 393 271 411 q 460 353 397 375 q 565 286 522 331 q 608 166 608 242 q 547 35 608 90 q 366 -21 485 -21 q 179 36 247 -21 q 108 176 111 93 l 151 176 q 215 66 158 110 q 361 22 272 22 q 507 63 450 22 q 564 165 564 103 q 522 265 564 228 q 418 321 479 301 q 295 360 357 340 q 186 415 233 379 q 129 526 129 458 q 183 653 129 593 q 363 713 236 713 q 444 702 406 713 q 500 681 483 692 l 518 671 l 500 633 z "},"ş":{"ha":599,"x_min":50,"x_max":550,"o":"m 268 -76 q 335 -65 292 -65 q 416 -89 379 -65 q 453 -174 453 -112 q 401 -263 453 -235 q 288 -292 350 -292 q 153 -265 225 -292 l 174 -221 q 281 -254 225 -254 q 373 -233 336 -254 q 410 -167 410 -211 q 369 -106 410 -124 q 326 -99 350 -99 q 269 -111 301 -99 l 217 -131 l 203 -108 l 272 -19 q 111 44 169 -11 q 50 176 53 100 l 93 176 q 157 66 100 110 q 303 22 214 22 q 449 63 392 22 q 506 165 506 103 q 463 265 506 228 q 360 321 421 301 q 237 360 299 340 q 128 415 175 379 q 71 526 71 458 q 124 653 71 593 q 304 713 178 713 q 386 702 347 713 q 442 681 425 692 l 460 671 l 442 633 q 303 671 382 671 q 169 634 224 671 q 114 532 114 597 q 163 442 114 474 q 276 393 213 411 q 401 353 339 375 q 507 286 464 331 q 550 166 550 242 q 490 35 550 90 q 311 -21 429 -19 l 268 -76 z "},"Š":{"ha":779,"x_min":51,"x_max":711,"o":"m 51 247 l 99 247 q 175 97 101 165 q 376 28 249 28 q 583 83 503 28 q 663 260 663 139 q 619 374 663 326 q 510 447 575 422 q 369 499 446 471 q 228 551 293 526 q 120 627 164 576 q 76 747 76 678 q 157 915 76 844 q 389 986 238 986 q 592 944 504 986 l 576 900 q 384 943 493 943 q 199 891 275 943 q 124 743 124 839 q 184 630 124 675 q 331 558 244 585 q 503 499 417 531 q 651 409 590 468 q 711 263 711 350 q 630 60 711 135 q 388 -15 549 -15 q 141 65 228 -15 q 51 247 54 144 m 617 1285 l 419 1089 l 214 1285 l 246 1317 l 418 1153 l 585 1317 l 617 1285 z "},"š":{"ha":660,"x_min":108,"x_max":608,"o":"m 500 633 q 361 671 440 671 q 227 634 282 671 q 172 532 172 597 q 222 442 172 474 q 334 393 271 411 q 460 353 397 375 q 565 286 522 331 q 608 166 608 242 q 547 35 608 90 q 366 -21 485 -21 q 179 36 247 -21 q 108 176 111 93 l 151 176 q 215 66 158 110 q 361 22 272 22 q 507 63 450 22 q 564 165 564 103 q 522 265 564 228 q 418 321 479 301 q 295 360 357 340 q 186 415 233 379 q 129 526 129 458 q 183 653 129 593 q 363 713 236 713 q 444 702 406 713 q 500 681 483 692 l 518 671 l 500 633 m 599 1017 l 401 821 l 196 1017 l 228 1049 l 400 885 l 567 1049 l 599 1017 z "},"Ţ":{"ha":558,"x_min":0,"x_max":558,"o":"m 297 0 l 254 0 l 253 929 l 0 929 l 0 972 l 558 972 l 558 929 l 297 929 l 297 0 m 233 -256 l 199 -232 q 253 -191 232 -214 q 281 -156 275 -168 l 286 -142 l 279 -140 q 258 -114 258 -131 q 267 -89 258 -97 q 288 -81 276 -81 q 310 -90 300 -81 q 319 -112 319 -100 q 233 -256 319 -185 z "},"ţ":{"ha":376,"x_min":61,"x_max":317,"o":"m 232 19 l 219 -18 q 107 53 142 4 q 72 183 72 101 l 72 972 l 117 972 l 117 696 l 317 696 l 297 653 l 117 653 l 117 183 q 144 76 117 114 q 232 19 171 39 m 96 -256 l 61 -232 q 117 -191 94 -214 q 144 -156 139 -168 l 149 -142 l 142 -140 q 121 -114 121 -131 q 130 -89 121 -97 q 151 -81 139 -81 q 173 -90 164 -81 q 182 -112 182 -100 q 96 -256 182 -185 z "},"Ť":{"ha":558,"x_min":0,"x_max":558,"o":"m 297 0 l 254 0 l 253 929 l 0 929 l 0 972 l 558 972 l 558 929 l 297 929 l 297 0 m 478 1215 l 281 1019 l 75 1215 l 107 1247 l 279 1083 l 446 1247 l 478 1215 z "},"ť":{"ha":524,"x_min":-37,"x_max":389,"o":"m 304 19 l 292 -18 q 179 53 214 4 q 144 183 144 101 l 144 972 l 189 972 l 189 696 l 389 696 l 369 653 l 189 653 l 189 183 q 216 76 189 114 q 304 19 243 39 m 365 1215 l 168 1019 l -37 1215 l -6 1247 l 167 1083 l 333 1247 l 365 1215 z "},"Ŧ":{"ha":558,"x_min":0,"x_max":558,"o":"m 297 0 l 254 0 l 253 929 l 0 929 l 0 972 l 558 972 l 558 929 l 297 929 l 297 0 m 426 1049 l 125 1049 l 125 1094 l 426 1094 l 426 1049 z "},"ŧ":{"ha":501,"x_min":108,"x_max":450,"o":"m 365 19 l 353 -18 q 240 53 275 4 q 206 183 206 101 l 206 453 l 108 453 l 108 497 l 206 497 l 206 972 l 250 972 l 250 696 l 450 696 l 431 653 l 250 653 l 250 497 l 433 497 l 433 453 l 250 453 l 250 183 q 277 76 250 114 q 365 19 304 39 z "},"Ũ":{"ha":786,"x_min":103,"x_max":688,"o":"m 643 253 l 643 974 l 688 974 l 688 258 q 662 131 688 185 q 592 47 636 76 q 500 4 549 18 q 396 -10 451 -10 q 291 4 340 -10 q 198 47 242 18 q 128 131 154 76 q 103 258 103 185 l 103 974 l 147 974 l 147 253 q 222 86 147 140 q 396 32 296 32 q 569 87 496 32 q 643 253 643 142 m 304 1147 q 431 1106 340 1147 q 511 1089 467 1089 q 597 1133 556 1089 l 619 1100 q 503 1043 563 1043 q 435 1058 472 1043 q 369 1085 399 1072 q 300 1103 331 1103 q 189 1044 242 1103 l 167 1078 q 304 1147 229 1147 z "},"ũ":{"ha":678,"x_min":108,"x_max":626,"o":"m 626 0 l 582 0 l 585 96 q 369 -15 514 -15 q 108 243 108 -15 l 108 696 l 153 696 l 153 239 q 369 26 153 26 q 523 78 464 26 q 582 225 582 131 l 582 696 l 626 696 l 626 0 m 272 885 q 399 843 308 885 q 479 826 435 826 q 565 871 524 826 l 588 838 q 471 781 531 781 q 403 795 440 781 q 339 822 367 810 q 268 840 299 840 q 157 782 210 840 l 135 815 q 272 885 197 885 z "},"Ū":{"ha":786,"x_min":103,"x_max":688,"o":"m 643 253 l 643 974 l 688 974 l 688 258 q 662 131 688 185 q 592 47 636 76 q 500 4 549 18 q 396 -10 451 -10 q 291 4 340 -10 q 198 47 242 18 q 128 131 154 76 q 103 258 103 185 l 103 974 l 147 974 l 147 253 q 222 86 147 140 q 396 32 296 32 q 569 87 496 32 q 643 253 643 142 m 543 1049 l 242 1049 l 242 1094 l 543 1094 l 543 1049 z "},"ū":{"ha":678,"x_min":108,"x_max":626,"o":"m 626 0 l 582 0 l 585 96 q 369 -15 514 -15 q 108 243 108 -15 l 108 696 l 153 696 l 153 239 q 369 26 153 26 q 523 78 464 26 q 582 225 582 131 l 582 696 l 626 696 l 626 0 m 511 782 l 210 782 l 210 828 l 511 828 l 511 782 z "},"Ŭ":{"ha":786,"x_min":103,"x_max":688,"o":"m 643 253 l 643 974 l 688 974 l 688 258 q 662 131 688 185 q 592 47 636 76 q 500 4 549 18 q 396 -10 451 -10 q 291 4 340 -10 q 198 47 242 18 q 128 131 154 76 q 103 258 103 185 l 103 974 l 147 974 l 147 253 q 222 86 147 140 q 396 32 296 32 q 569 87 496 32 q 643 253 643 142 m 551 1169 l 551 1163 q 505 1051 551 1097 q 394 1006 458 1006 q 284 1051 331 1006 q 238 1163 238 1097 l 238 1169 l 278 1169 l 278 1163 q 310 1083 278 1119 q 394 1046 343 1046 q 478 1083 444 1046 q 511 1163 511 1119 l 511 1169 l 551 1169 z "},"ŭ":{"ha":678,"x_min":108,"x_max":626,"o":"m 532 907 l 532 900 q 485 790 532 836 q 375 743 439 743 q 265 790 311 743 q 218 900 218 836 l 218 907 l 258 907 l 258 900 q 291 820 258 857 q 374 783 324 783 q 458 820 425 783 q 492 900 492 857 l 492 907 l 532 907 m 626 0 l 582 0 l 585 96 q 369 -15 514 -15 q 108 243 108 -15 l 108 696 l 153 696 l 153 239 q 369 26 153 26 q 523 78 464 26 q 582 225 582 131 l 582 696 l 626 696 l 626 0 z "},"Ů":{"ha":786,"x_min":103,"x_max":688,"o":"m 643 253 l 643 974 l 688 974 l 688 258 q 662 131 688 185 q 592 47 636 76 q 500 4 549 18 q 396 -10 451 -10 q 291 4 340 -10 q 198 47 242 18 q 128 131 154 76 q 103 258 103 185 l 103 974 l 147 974 l 147 253 q 222 86 147 140 q 396 32 296 32 q 569 87 496 32 q 643 253 643 142 m 313 988 q 330 970 313 988 q 394 953 347 953 q 476 987 442 953 q 510 1069 510 1021 q 476 1151 510 1117 q 394 1185 442 1185 q 312 1151 346 1185 q 278 1069 278 1117 q 313 988 278 1022 m 505 959 q 482 936 505 959 q 394 913 458 913 q 284 959 331 913 q 238 1069 238 1006 q 284 1180 238 1133 q 394 1226 331 1226 q 505 1180 458 1226 q 551 1069 551 1133 q 505 959 551 1006 z "},"ů":{"ha":678,"x_min":108,"x_max":626,"o":"m 626 0 l 582 0 l 585 96 q 369 -15 514 -15 q 108 243 108 -15 l 108 696 l 153 696 l 153 239 q 369 26 153 26 q 523 78 464 26 q 582 225 582 131 l 582 696 l 626 696 l 626 0 m 293 735 q 310 717 293 735 q 375 700 328 700 q 456 734 422 700 q 490 816 490 768 q 456 898 490 864 q 374 932 422 932 q 292 898 326 932 q 258 817 258 864 q 293 735 258 769 m 485 706 q 462 683 485 706 q 375 660 439 660 q 265 706 311 660 q 218 817 218 753 q 265 927 218 881 q 375 974 311 974 q 485 927 439 974 q 532 817 532 881 q 485 706 532 753 z "},"Ű":{"ha":786,"x_min":103,"x_max":688,"o":"m 643 253 l 643 974 l 688 974 l 688 258 q 662 131 688 185 q 592 47 636 76 q 500 4 549 18 q 396 -10 451 -10 q 291 4 340 -10 q 198 47 242 18 q 128 131 154 76 q 103 258 103 185 l 103 974 l 147 974 l 147 253 q 222 86 147 140 q 396 32 296 32 q 569 87 496 32 q 643 253 643 142 m 474 1015 l 435 1015 l 510 1188 q 538 1211 519 1211 q 569 1189 563 1211 q 569 1178 569 1185 q 564 1163 569 1171 l 474 1015 m 318 1015 l 279 1015 l 354 1188 q 382 1211 364 1211 q 414 1189 407 1211 q 414 1178 414 1185 q 408 1163 414 1171 l 318 1015 z "},"ű":{"ha":678,"x_min":108,"x_max":626,"o":"m 626 0 l 582 0 l 585 96 q 369 -15 514 -15 q 108 243 108 -15 l 108 696 l 153 696 l 153 239 q 369 26 153 26 q 523 78 464 26 q 582 225 582 131 l 582 696 l 626 696 l 626 0 m 439 754 l 400 754 l 475 926 q 503 950 485 950 q 533 928 528 950 q 535 917 535 924 q 529 901 535 910 l 439 754 m 283 754 l 244 754 l 319 926 q 347 950 329 950 q 378 928 372 950 q 379 917 379 924 q 374 901 379 910 l 283 754 z "},"Ų":{"ha":786,"x_min":103,"x_max":688,"o":"m 488 -193 l 519 -226 q 386 -296 475 -296 q 337 -290 363 -296 q 284 -255 311 -283 q 257 -179 257 -226 q 376 -8 257 -93 q 246 19 304 -6 q 145 104 188 43 q 103 258 103 165 l 103 974 l 147 974 l 147 253 q 222 86 147 140 q 396 32 296 32 q 569 87 496 32 q 643 253 643 142 l 643 974 l 688 974 l 688 258 q 613 65 688 129 q 429 -8 539 0 q 299 -181 299 -106 q 323 -234 299 -212 q 385 -256 347 -256 q 488 -193 449 -256 z "},"ų":{"ha":669,"x_min":50,"x_max":649,"o":"m 617 -193 l 649 -226 q 515 -296 604 -296 q 466 -290 492 -296 q 413 -255 440 -283 q 386 -179 386 -226 q 519 0 386 -89 l 524 0 l 526 96 q 311 -15 456 -15 q 50 243 50 -15 l 50 696 l 94 696 l 94 239 q 311 26 94 26 q 465 78 406 26 q 524 225 524 131 l 524 696 l 568 696 l 568 0 l 569 0 q 428 -181 428 -104 q 452 -234 428 -212 q 514 -256 476 -256 q 617 -193 578 -256 z "},"Ÿ":{"ha":767,"x_min":83,"x_max":699,"o":"m 554 -10 l 543 25 q 578 40 567 33 q 611 65 589 46 q 654 211 654 103 l 654 451 q 541 366 614 392 q 401 340 468 340 q 169 413 254 340 q 83 629 83 486 l 83 972 l 128 972 l 128 629 q 198 448 128 511 q 401 385 268 385 q 572 433 503 385 q 654 560 640 482 l 654 972 l 699 972 l 699 207 q 554 -10 699 21 z "},"Ź":{"ha":764,"x_min":43,"x_max":719,"o":"m 719 0 l 43 0 l 43 42 l 656 931 l 63 931 l 61 972 l 711 972 l 711 931 l 99 42 l 719 42 l 719 0 m 426 1090 l 388 1090 l 463 1263 q 490 1286 472 1286 q 522 1264 515 1286 q 522 1253 522 1260 q 517 1238 522 1246 l 426 1090 z "},"ź":{"ha":669,"x_min":108,"x_max":618,"o":"m 618 0 l 108 0 l 108 42 l 533 654 l 121 654 l 121 696 l 589 696 l 589 654 l 163 42 l 618 42 l 618 0 m 350 747 l 311 747 l 386 919 q 414 943 396 943 q 444 921 439 943 q 446 910 446 917 q 440 894 446 903 l 350 747 z "},"Ż":{"ha":764,"x_min":43,"x_max":719,"o":"m 719 0 l 43 0 l 43 42 l 656 931 l 63 931 l 61 972 l 711 972 l 711 931 l 99 42 l 719 42 l 719 0 m 428 1073 q 428 1067 428 1073 q 419 1053 428 1061 q 399 1044 411 1044 q 379 1053 388 1044 q 371 1073 371 1061 q 379 1093 371 1085 q 399 1101 388 1101 q 419 1093 411 1101 q 428 1073 428 1085 z "},"ż":{"ha":669,"x_min":108,"x_max":618,"o":"m 618 0 l 108 0 l 108 42 l 533 654 l 121 654 l 121 696 l 589 696 l 589 654 l 163 42 l 618 42 l 618 0 m 390 808 q 390 802 390 808 q 382 788 390 796 q 362 779 374 779 q 342 788 350 779 q 333 808 333 796 q 342 828 333 819 q 362 836 350 836 q 382 828 374 836 q 390 808 390 819 z "},"Ž":{"ha":764,"x_min":43,"x_max":719,"o":"m 719 0 l 43 0 l 43 42 l 656 931 l 63 931 l 61 972 l 711 972 l 711 931 l 99 42 l 719 42 l 719 0 m 617 1285 l 419 1089 l 214 1285 l 246 1317 l 418 1153 l 585 1317 l 617 1285 z "},"ž":{"ha":669,"x_min":108,"x_max":618,"o":"m 618 0 l 108 0 l 108 42 l 533 654 l 121 654 l 121 696 l 589 696 l 589 654 l 163 42 l 618 42 l 618 0 m 568 1017 l 371 821 l 165 1017 l 197 1049 l 369 885 l 536 1049 l 568 1017 z "},"Ș":{"ha":779,"x_min":51,"x_max":711,"o":"m 51 247 l 99 247 q 175 97 101 165 q 376 28 249 28 q 583 83 503 28 q 663 260 663 139 q 619 374 663 326 q 510 447 575 422 q 369 499 446 471 q 228 551 293 526 q 120 627 164 576 q 76 747 76 678 q 157 915 76 844 q 389 986 238 986 q 592 944 504 986 l 576 900 q 384 943 493 943 q 199 891 275 943 q 124 743 124 839 q 184 630 124 675 q 331 558 244 585 q 503 499 417 531 q 651 409 590 468 q 711 263 711 350 q 630 60 711 135 q 388 -15 549 -15 q 141 65 228 -15 q 51 247 54 144 m 336 -256 l 301 -232 q 356 -191 335 -214 q 383 -156 378 -168 l 389 -142 l 382 -140 q 361 -114 361 -131 q 370 -89 361 -97 q 391 -81 379 -81 q 413 -90 403 -81 q 422 -112 422 -100 q 336 -256 422 -185 z "},"ș":{"ha":599,"x_min":50,"x_max":550,"o":"m 442 633 q 303 671 382 671 q 169 634 224 671 q 114 532 114 597 q 163 442 114 474 q 276 393 213 411 q 401 353 339 375 q 507 286 464 331 q 550 166 550 242 q 488 35 550 90 q 308 -21 426 -21 q 121 36 189 -21 q 50 176 53 93 l 93 176 q 157 66 100 110 q 303 22 214 22 q 449 63 392 22 q 506 165 506 103 q 463 265 506 228 q 360 321 421 301 q 237 360 299 340 q 128 415 175 379 q 71 526 71 458 q 124 653 71 593 q 304 713 178 713 q 386 702 347 713 q 442 681 425 692 l 460 671 l 442 633 m 254 -256 l 219 -232 q 275 -191 253 -214 q 303 -156 297 -168 l 307 -142 l 300 -140 q 279 -114 279 -131 q 288 -89 279 -97 q 310 -81 297 -81 q 331 -90 322 -81 q 340 -112 340 -100 q 254 -256 340 -185 z "},"ˆ":{"ha":575,"x_min":64,"x_max":467,"o":"m 433 842 l 268 1007 l 97 842 l 64 875 l 269 1071 l 467 875 l 433 842 z "},"ˇ":{"ha":550,"x_min":64,"x_max":467,"o":"m 467 1017 l 269 821 l 64 1017 l 96 1049 l 268 885 l 435 1049 l 467 1017 z "},"˘":{"ha":486,"x_min":64,"x_max":378,"o":"m 378 972 l 378 965 q 332 854 378 900 q 221 808 286 808 q 110 854 156 808 q 64 965 64 900 l 64 972 l 104 972 l 104 965 q 137 885 104 922 q 220 849 169 849 q 304 885 271 849 q 338 965 338 922 l 338 972 l 378 972 z "},"˙":{"ha":86,"x_min":15,"x_max":72,"o":"m 72 958 q 72 952 72 958 q 64 938 72 946 q 44 929 56 929 q 24 938 32 929 q 15 958 15 946 q 24 978 15 969 q 44 986 32 986 q 64 978 56 986 q 72 958 72 969 z "},"˚":{"ha":636,"x_min":-3,"x_max":311,"o":"m 38 919 q 38 896 38 919 q 72 838 38 872 q 153 803 106 803 q 235 837 201 803 q 269 919 269 871 q 236 1001 269 967 q 154 1035 203 1035 q 72 1001 106 1035 q 38 919 38 967 m 265 809 q 242 786 265 809 q 154 763 219 763 q 43 809 89 763 q -3 919 -3 856 q 43 1030 -3 983 q 154 1076 89 1076 q 265 1030 219 1076 q 311 919 311 983 q 265 809 311 856 z "},"˛":{"ha":532,"x_min":106,"x_max":368,"o":"m 336 -189 l 368 -222 q 235 -292 324 -292 q 185 -285 211 -292 q 133 -251 160 -279 q 106 -175 106 -222 q 239 4 106 -85 l 289 4 q 147 -176 147 -100 q 172 -230 147 -208 q 233 -251 196 -251 q 336 -189 297 -251 z "},"˜":{"ha":611,"x_min":108,"x_max":561,"o":"m 246 975 q 372 933 282 975 q 453 917 408 917 q 539 961 497 917 l 561 928 q 444 871 504 871 q 377 885 414 871 q 311 913 340 900 q 242 931 272 931 q 131 872 183 931 l 108 906 q 246 975 171 975 z "},"˝":{"ha":614,"x_min":-3,"x_max":288,"o":"m 192 789 l 153 789 l 228 961 q 256 985 238 985 q 286 963 281 985 q 288 951 288 958 q 282 936 288 944 l 192 789 m 36 789 l -3 789 l 72 961 q 100 985 82 985 q 131 963 125 985 q 132 951 132 958 q 126 936 132 944 l 36 789 z "},"΅":{"ha":439,"x_min":108,"x_max":388,"o":"m 254 1015 l 215 1015 l 290 1188 q 318 1211 300 1211 q 350 1189 343 1211 q 344 1163 353 1175 l 254 1015 m 168 983 q 168 977 168 983 q 159 962 168 971 q 138 953 150 953 q 117 962 126 953 q 108 983 108 971 q 117 1003 108 994 q 138 1013 126 1013 q 159 1003 150 1013 q 168 983 168 994 m 388 984 q 388 978 388 984 q 378 963 388 972 q 358 954 369 954 q 337 963 346 954 q 328 984 328 972 q 337 1005 328 996 q 358 1014 346 1014 q 378 1005 369 1014 q 388 984 388 996 z "},"Ά":{"ha":861,"x_min":108,"x_max":810,"o":"m 810 0 l 761 0 l 635 372 l 282 372 l 154 0 l 108 0 l 439 972 l 476 972 l 810 0 m 621 417 l 457 894 l 296 417 l 621 417 m 182 789 l 143 789 l 218 961 q 246 985 228 985 q 278 963 271 985 q 278 951 278 958 q 272 936 278 944 l 182 789 z "},"Έ":{"ha":856,"x_min":108,"x_max":804,"o":"m 147 789 l 108 789 l 183 961 q 211 985 193 985 q 242 963 236 985 q 238 936 246 949 l 147 789 m 801 0 l 340 0 l 340 972 l 804 972 l 804 929 l 385 929 l 385 574 l 683 574 l 668 529 l 385 529 l 385 42 l 801 42 l 801 0 z "},"Ή":{"ha":992,"x_min":108,"x_max":940,"o":"m 147 789 l 108 789 l 183 961 q 211 985 193 985 q 242 963 236 985 q 238 936 246 949 l 147 789 m 940 0 l 896 0 l 896 529 l 388 529 l 388 0 l 343 0 l 343 972 l 388 972 l 388 574 l 896 574 l 896 972 l 940 972 l 940 0 z "},"Ί":{"ha":531,"x_min":108,"x_max":481,"o":"m 481 0 l 436 0 l 436 928 l 325 931 l 325 972 l 481 972 l 481 0 m 147 789 l 108 789 l 183 961 q 211 985 193 985 q 242 963 236 985 q 243 951 243 958 q 238 936 243 944 l 147 789 z "},"Ό":{"ha":906,"x_min":108,"x_max":854,"o":"m 854 703 l 854 257 q 769 51 854 117 q 564 -15 683 -15 q 358 51 444 -15 q 271 257 271 117 l 271 704 q 349 921 271 847 q 565 994 428 994 q 778 917 703 994 q 854 703 854 839 m 810 257 l 810 711 q 746 887 810 824 q 563 950 682 950 q 379 887 443 950 q 315 710 315 824 l 315 257 q 387 85 315 143 q 564 28 458 28 q 740 83 669 28 q 810 257 810 138 m 147 789 l 108 789 l 183 961 q 211 985 193 985 q 242 963 236 985 q 243 951 243 958 q 238 936 243 944 l 147 789 z "},"Ύ":{"ha":1007,"x_min":108,"x_max":956,"o":"m 147 789 l 108 789 l 183 961 q 211 985 193 985 q 242 963 236 985 q 238 936 246 949 l 147 789 m 811 -10 l 800 25 q 835 40 824 33 q 868 65 846 46 q 911 211 911 103 l 911 451 q 798 366 871 392 q 658 340 725 340 q 426 413 511 340 q 340 629 340 486 l 340 972 l 385 972 l 385 629 q 455 448 385 511 q 658 385 525 385 q 828 433 760 385 q 911 560 897 482 l 911 972 l 956 972 l 956 207 q 811 -10 956 21 z "},"Ώ":{"ha":1004,"x_min":108,"x_max":953,"o":"m 953 0 l 636 0 l 636 43 q 801 96 726 49 q 867 167 842 121 q 893 272 893 213 l 893 703 q 833 881 893 821 q 674 940 772 940 l 518 940 q 359 880 418 940 q 300 703 300 819 l 300 272 q 344 139 300 193 q 556 43 421 50 l 556 0 l 239 0 l 253 43 l 403 43 q 291 137 325 82 q 257 272 257 192 l 257 699 q 322 904 257 826 q 518 982 388 982 l 674 982 q 869 904 804 982 q 935 699 935 826 l 935 272 q 899 137 935 189 q 788 43 864 85 l 936 43 l 953 0 m 147 789 l 108 789 l 183 961 q 211 985 193 985 q 242 963 236 985 q 243 951 243 958 q 238 936 243 944 l 147 789 z "},"ΐ":{"ha":311,"x_min":15,"x_max":294,"o":"m 174 0 l 129 0 l 129 696 l 174 696 l 174 0 m 167 851 l 128 851 l 203 1024 q 231 1047 213 1047 q 261 1025 256 1047 q 257 999 265 1011 l 167 851 m 75 834 q 75 828 75 834 q 66 813 75 822 q 45 804 57 804 q 24 813 33 804 q 15 834 15 822 q 24 855 15 846 q 45 864 33 864 q 66 855 57 864 q 75 834 75 846 m 294 835 q 294 830 294 835 q 285 815 294 824 q 265 806 276 806 q 244 815 253 806 q 235 835 235 824 q 244 856 235 847 q 265 865 253 865 q 285 856 276 865 q 294 835 294 847 z "},"Α":{"ha":749,"x_min":17,"x_max":718,"o":"m 718 0 l 669 0 l 543 372 l 190 372 l 63 0 l 17 0 l 347 972 l 385 972 l 718 0 m 529 417 l 365 894 l 204 417 l 529 417 z "},"Β":{"ha":761,"x_min":108,"x_max":710,"o":"m 428 0 l 108 0 l 108 972 l 415 972 q 594 915 529 972 q 660 746 660 857 q 632 635 660 688 q 549 556 604 583 q 547 553 547 554 l 547 551 q 663 460 617 524 q 710 290 710 396 q 653 97 710 179 q 566 26 624 53 q 428 0 508 0 m 153 574 l 447 574 q 564 618 515 574 q 614 750 614 664 q 561 883 614 836 q 404 929 508 929 l 153 929 l 153 574 m 153 43 l 425 43 q 601 106 539 43 q 664 284 664 168 q 601 465 664 400 q 436 529 539 529 l 153 529 l 153 43 z "},"Γ":{"ha":624,"x_min":108,"x_max":572,"o":"m 153 0 l 108 0 l 108 972 l 572 972 l 572 928 l 153 928 l 153 0 z "},"Δ":{"ha":735,"x_min":17,"x_max":718,"o":"m 718 0 l 17 0 l 342 972 l 385 972 l 718 0 m 657 42 l 364 907 l 76 42 l 657 42 z "},"Ε":{"ha":624,"x_min":108,"x_max":572,"o":"m 569 0 l 108 0 l 108 972 l 572 972 l 572 929 l 153 929 l 153 574 l 451 574 l 436 529 l 153 529 l 153 42 l 569 42 l 569 0 z "},"Ζ":{"ha":836,"x_min":108,"x_max":785,"o":"m 785 0 l 108 0 l 108 42 l 721 931 l 128 931 l 126 972 l 776 972 l 776 931 l 164 42 l 785 42 l 785 0 z "},"Η":{"ha":799,"x_min":111,"x_max":708,"o":"m 708 0 l 664 0 l 664 529 l 156 529 l 156 0 l 111 0 l 111 972 l 156 972 l 156 574 l 664 574 l 664 972 l 708 972 l 708 0 z "},"Θ":{"ha":743,"x_min":108,"x_max":692,"o":"m 692 703 l 692 257 q 606 51 692 117 q 401 -15 521 -15 q 195 51 282 -15 q 108 257 108 117 l 108 704 q 187 921 108 847 q 403 994 265 994 q 616 917 540 994 q 692 703 692 839 m 647 500 l 647 711 q 583 887 647 824 q 400 950 519 950 q 217 887 281 950 q 153 710 153 824 l 153 500 l 647 500 m 647 257 l 647 456 l 153 456 l 153 257 q 224 85 153 143 q 401 28 296 28 q 577 83 507 28 q 647 257 647 138 z "},"Ι":{"ha":415,"x_min":111,"x_max":267,"o":"m 267 0 l 222 0 l 222 928 l 111 931 l 111 972 l 267 972 l 267 0 z "},"Κ":{"ha":711,"x_min":108,"x_max":660,"o":"m 660 0 l 608 0 l 264 532 l 153 383 l 153 0 l 108 0 l 108 974 l 153 974 l 153 457 l 536 974 l 588 974 l 292 571 l 660 0 z "},"Λ":{"ha":740,"x_min":17,"x_max":718,"o":"m 718 0 l 671 0 l 364 903 l 63 0 l 17 0 l 343 972 l 386 972 l 718 0 z "},"Μ":{"ha":969,"x_min":111,"x_max":856,"o":"m 856 0 l 813 0 l 813 844 l 506 0 l 460 0 l 154 844 l 154 0 l 111 0 l 111 972 l 154 972 l 483 69 l 813 972 l 856 972 l 856 0 z "},"Ν":{"ha":890,"x_min":111,"x_max":794,"o":"m 794 0 l 751 0 l 154 894 l 154 0 l 111 0 l 111 972 l 154 972 l 751 79 l 751 972 l 794 972 l 794 0 z "},"Ξ":{"ha":867,"x_min":108,"x_max":815,"o":"m 651 529 l 285 529 l 285 574 l 651 574 l 651 529 m 743 929 l 310 929 q 201 899 238 929 q 146 813 165 868 l 108 826 q 179 938 131 904 q 310 972 228 972 l 761 972 l 743 929 m 778 161 l 815 147 q 744 35 793 69 q 614 0 696 0 l 163 0 l 181 43 l 614 43 q 722 74 686 43 q 778 161 758 104 z "},"Ο":{"ha":722,"x_min":86,"x_max":669,"o":"m 669 703 l 669 257 q 584 51 669 117 q 379 -15 499 -15 q 173 51 260 -15 q 86 257 86 117 l 86 704 q 165 921 86 847 q 381 994 243 994 q 594 917 518 994 q 669 703 669 839 m 625 257 l 625 711 q 561 887 625 824 q 378 950 497 950 q 194 887 258 950 q 131 710 131 824 l 131 257 q 202 85 131 143 q 379 28 274 28 q 555 83 485 28 q 625 257 625 138 z "},"Π":{"ha":818,"x_min":111,"x_max":708,"o":"m 708 0 l 664 0 l 664 928 l 156 928 l 156 0 l 111 0 l 111 972 l 708 972 l 708 0 z "},"Ρ":{"ha":763,"x_min":108,"x_max":711,"o":"m 153 417 l 440 417 q 667 675 667 417 q 613 861 667 794 q 453 928 560 928 l 153 928 l 153 417 m 153 0 l 108 0 l 108 972 l 450 972 q 647 892 582 972 q 711 675 711 811 q 642 443 711 517 q 563 393 615 414 q 442 372 511 372 l 153 372 l 153 0 z "},"Σ":{"ha":810,"x_min":108,"x_max":758,"o":"m 719 161 l 758 147 q 688 35 736 69 q 557 0 639 0 l 108 0 l 422 533 l 131 972 l 725 972 l 708 928 l 214 928 l 475 535 l 185 43 l 540 43 q 656 69 613 43 q 719 161 699 94 z "},"Τ":{"ha":718,"x_min":108,"x_max":667,"o":"m 406 0 l 363 0 l 361 929 l 108 929 l 108 972 l 667 972 l 667 929 l 406 929 l 406 0 z "},"Υ":{"ha":771,"x_min":83,"x_max":699,"o":"m 554 -10 l 543 25 q 578 40 567 33 q 611 65 589 46 q 654 211 654 103 l 654 451 q 541 366 614 392 q 401 340 468 340 q 169 413 254 340 q 83 629 83 486 l 83 972 l 128 972 l 128 629 q 198 448 128 511 q 401 385 268 385 q 572 433 503 385 q 654 560 640 482 l 654 972 l 699 972 l 699 207 q 554 -10 699 21 z "},"Φ":{"ha":892,"x_min":108,"x_max":840,"o":"m 494 -44 l 449 -35 l 449 42 l 369 42 q 173 114 238 42 q 108 313 108 186 l 108 718 q 269 981 108 929 l 292 944 q 153 718 153 901 l 153 299 q 210 138 153 192 q 369 83 268 83 l 449 83 l 449 840 q 487 949 450 910 q 589 988 524 988 q 772 911 703 988 q 840 710 840 835 l 840 313 q 776 114 840 186 q 579 42 711 42 l 494 42 l 494 -44 m 600 946 q 494 828 494 946 l 494 83 l 585 83 q 740 140 685 83 q 796 299 796 197 l 796 724 q 775 828 796 782 q 658 936 742 906 q 600 946 629 946 z "},"Χ":{"ha":864,"x_min":108,"x_max":813,"o":"m 813 3 l 758 0 l 461 456 l 164 0 l 108 0 l 435 500 l 135 972 l 185 972 l 461 542 l 738 972 l 790 972 l 489 500 l 813 3 z "},"Ψ":{"ha":872,"x_min":61,"x_max":793,"o":"m 446 0 l 400 0 l 400 294 l 322 294 q 126 366 190 294 q 61 564 61 438 l 61 972 l 106 972 l 106 558 q 165 390 106 444 q 322 336 224 336 l 400 336 l 400 972 l 446 972 l 446 336 l 532 336 q 693 394 638 336 q 749 558 749 451 l 749 783 q 742 870 749 847 q 732 903 735 893 q 719 926 729 914 q 708 942 710 939 q 692 958 706 946 q 678 971 679 969 l 715 985 q 771 920 753 961 q 791 850 789 879 q 793 763 793 821 l 793 564 q 728 366 793 438 q 532 294 664 294 l 446 294 l 446 0 z "},"Ϊ":{"ha":310,"x_min":67,"x_max":346,"o":"m 226 0 l 182 0 l 182 928 l 71 931 l 71 972 l 226 972 l 226 0 m 125 1076 q 125 1070 125 1076 q 116 1055 125 1064 q 95 1046 107 1046 q 75 1055 83 1046 q 67 1076 67 1064 q 75 1097 67 1088 q 95 1106 83 1106 q 116 1097 107 1106 q 125 1076 125 1088 m 346 1077 q 346 1071 346 1077 q 337 1056 346 1065 q 316 1047 328 1047 q 295 1056 304 1047 q 286 1077 286 1065 q 295 1098 286 1089 q 316 1107 304 1107 q 337 1098 328 1107 q 346 1077 346 1089 z "},"Ϋ":{"ha":703,"x_min":-4,"x_max":651,"o":"m 344 0 l 301 0 l 301 474 l -4 972 l 47 972 l 322 524 l 600 972 l 651 972 l 344 475 l 344 0 m 235 1073 q 235 1067 235 1073 q 226 1052 235 1061 q 205 1043 217 1043 q 185 1052 193 1043 q 176 1073 176 1061 q 185 1094 176 1085 q 205 1103 193 1103 q 226 1094 217 1103 q 235 1073 235 1085 m 456 1074 q 456 1068 456 1074 q 447 1053 456 1063 q 426 1044 438 1044 q 405 1053 414 1044 q 396 1074 396 1063 q 405 1095 396 1086 q 426 1104 414 1104 q 447 1095 438 1104 q 456 1074 456 1086 z "},"ά":{"ha":699,"x_min":108,"x_max":647,"o":"m 315 704 q 572 638 443 704 l 589 692 l 625 675 q 615 571 615 615 l 615 57 q 647 29 625 42 l 629 1 q 595 6 606 6 q 557 3 585 6 q 417 -7 464 -7 q 349 -6 369 -7 q 290 1 329 -4 q 229 19 251 7 q 181 49 207 31 q 142 92 154 67 q 108 235 108 156 l 108 492 q 155 642 108 589 q 274 703 201 696 q 315 704 294 704 m 571 593 q 314 663 433 663 q 194 617 235 663 q 153 488 153 572 l 153 225 q 206 85 153 131 q 351 36 258 39 q 418 36 368 36 q 571 46 468 36 l 571 593 m 368 747 l 329 747 l 404 919 q 432 943 414 943 q 464 921 457 943 q 464 910 464 917 q 458 894 464 903 l 368 747 z "},"έ":{"ha":639,"x_min":108,"x_max":588,"o":"m 351 747 l 313 747 l 388 919 q 415 943 397 943 q 447 921 440 943 q 442 894 450 907 l 351 747 m 490 644 q 360 669 425 669 q 240 640 294 669 q 182 536 182 607 q 210 456 182 494 q 299 418 238 418 l 489 418 l 474 375 l 331 375 q 206 332 258 375 q 153 206 153 289 q 208 76 153 122 q 357 29 264 29 q 463 41 408 29 q 544 64 517 53 l 574 75 l 588 32 q 362 -15 479 -15 q 181 42 244 -15 q 108 211 108 106 q 232 394 108 353 q 162 448 188 404 q 136 535 136 492 q 211 672 136 626 q 340 710 268 710 q 490 689 413 710 l 490 644 z "},"ή":{"ha":672,"x_min":108,"x_max":621,"o":"m 385 747 l 346 747 l 421 919 q 449 943 431 943 q 481 921 474 943 q 475 894 483 907 l 385 747 m 153 660 q 342 708 239 708 q 503 681 446 708 q 621 481 621 626 l 621 -293 l 576 -274 l 576 481 q 531 606 576 560 q 357 665 472 665 q 153 617 242 665 l 153 0 l 108 0 l 108 696 l 153 696 l 153 660 z "},"ί":{"ha":300,"x_min":113,"x_max":247,"o":"m 151 747 l 113 747 l 188 919 q 215 943 197 943 q 247 921 240 943 q 247 910 247 917 q 242 894 247 903 l 151 747 m 161 0 l 117 0 l 117 696 l 161 696 l 161 0 z "},"ΰ":{"ha":688,"x_min":108,"x_max":636,"o":"m 592 229 l 592 696 l 636 696 l 636 239 q 372 -14 636 -14 q 108 239 108 -14 l 108 696 l 153 696 l 153 229 q 372 28 153 28 q 592 229 592 28 m 392 853 l 353 853 l 428 1025 q 456 1049 438 1049 q 486 1026 481 1049 q 482 1000 490 1013 l 392 853 m 297 834 q 297 828 297 834 q 288 813 297 822 q 267 804 279 804 q 247 813 256 804 q 238 834 238 822 q 247 855 238 846 q 267 864 256 864 q 288 855 279 864 q 297 834 297 846 m 517 835 q 517 830 517 835 q 508 815 517 824 q 487 806 499 806 q 466 815 475 806 q 457 835 457 824 q 466 856 457 847 q 487 865 475 865 q 508 856 499 865 q 517 835 517 847 z "},"α":{"ha":699,"x_min":108,"x_max":647,"o":"m 315 704 q 572 638 443 704 l 589 692 l 625 675 q 615 571 615 615 l 615 57 q 647 29 625 42 l 629 1 q 595 6 606 6 q 557 3 585 6 q 417 -7 464 -7 q 349 -6 369 -7 q 290 1 329 -4 q 229 19 251 7 q 181 49 207 31 q 142 92 154 67 q 108 235 108 156 l 108 492 q 155 642 108 589 q 274 703 201 696 q 315 704 294 704 m 571 593 q 314 663 433 663 q 194 617 235 663 q 153 488 153 572 l 153 225 q 206 85 153 131 q 351 36 258 39 q 418 36 368 36 q 571 46 468 36 l 571 593 z "},"β":{"ha":674,"x_min":108,"x_max":622,"o":"m 590 83 q 574 59 590 83 q 510 12 558 35 q 405 -19 461 -11 q 295 -26 349 -26 q 153 -12 242 -26 l 153 -224 l 108 -224 l 108 746 q 156 913 108 853 q 294 973 204 972 q 426 924 383 974 q 468 815 468 874 q 403 690 468 733 q 562 619 501 683 q 622 458 622 556 l 622 203 q 590 83 622 132 m 310 14 q 578 203 578 14 l 578 454 q 528 592 578 543 q 408 646 479 640 q 367 647 388 647 q 153 600 244 647 l 153 31 q 310 14 236 14 m 153 742 l 153 643 q 342 703 183 660 q 415 774 397 718 q 422 820 422 793 q 401 881 422 847 q 303 931 369 931 q 153 742 153 931 z "},"γ":{"ha":715,"x_min":29,"x_max":671,"o":"m 365 -244 l 333 -274 q 299 -193 299 -237 q 313 -108 299 -149 l 343 -7 q 213 94 253 19 q 179 179 193 129 l 29 696 l 74 696 l 221 194 q 358 36 264 49 l 511 539 q 558 648 532 608 q 638 708 585 688 l 671 679 q 601 631 626 660 q 550 522 576 603 l 376 -58 q 346 -183 346 -147 q 365 -244 346 -219 z "},"δ":{"ha":678,"x_min":108,"x_max":626,"o":"m 313 701 q 244 832 244 753 q 285 933 244 886 q 410 979 326 979 l 469 979 l 450 938 l 404 938 q 311 897 342 938 q 289 846 289 871 q 363 721 289 764 q 473 653 436 678 q 550 589 510 628 q 626 397 626 517 l 626 256 q 369 -14 626 -14 q 173 58 238 -14 q 108 256 108 129 l 108 431 q 163 611 108 540 q 313 701 218 682 m 582 250 l 582 418 q 363 669 582 561 q 213 599 272 661 q 153 431 153 536 l 153 250 q 215 80 153 132 q 369 28 278 28 q 522 78 461 28 q 582 250 582 129 z "},"ε":{"ha":639,"x_min":108,"x_max":588,"o":"m 490 644 q 360 669 425 669 q 240 640 294 669 q 182 536 182 607 q 210 456 182 494 q 299 418 238 418 l 489 418 l 474 375 l 331 375 q 206 332 258 375 q 153 206 153 289 q 208 76 153 122 q 357 29 264 29 q 463 41 408 29 q 544 64 517 53 l 574 75 l 588 32 q 362 -15 479 -15 q 181 42 244 -15 q 108 211 108 106 q 232 394 108 353 q 162 448 188 404 q 136 535 136 492 q 211 672 136 626 q 340 710 268 710 q 490 689 413 710 l 490 644 z "},"ζ":{"ha":646,"x_min":108,"x_max":594,"o":"m 565 -269 l 521 -290 l 521 15 q 371 -3 444 -3 q 236 28 297 -3 q 108 247 108 94 q 158 467 108 363 q 524 932 261 681 l 203 932 l 203 972 l 582 972 l 594 931 q 400 739 510 864 q 154 260 154 461 q 214 97 154 153 q 385 42 274 42 q 565 71 463 42 l 565 -269 z "},"η":{"ha":672,"x_min":108,"x_max":621,"o":"m 153 660 q 342 708 239 708 q 503 681 446 708 q 621 481 621 626 l 621 -293 l 576 -274 l 576 481 q 531 606 576 560 q 357 665 472 665 q 153 617 242 665 l 153 0 l 108 0 l 108 696 l 153 696 l 153 660 z "},"θ":{"ha":667,"x_min":86,"x_max":614,"o":"m 614 701 l 614 265 q 545 67 614 142 q 349 -8 476 -8 q 154 67 222 -7 q 86 265 86 142 l 86 451 q 163 607 89 549 q 114 785 114 700 q 178 928 114 871 q 347 986 243 986 q 547 908 479 983 q 614 701 614 833 m 569 257 l 569 660 q 522 661 551 661 q 434 655 492 661 q 303 628 376 649 q 181 563 231 608 q 131 453 131 517 l 131 265 q 190 96 131 158 q 349 33 249 33 q 509 97 449 33 q 569 257 569 160 m 201 629 q 513 704 318 704 q 569 701 543 704 q 510 883 569 821 q 347 944 450 944 q 175 847 217 944 q 158 756 158 810 q 201 629 158 703 z "},"ι":{"ha":192,"x_min":83,"x_max":128,"o":"m 128 0 l 83 0 l 83 696 l 128 696 l 128 0 z "},"κ":{"ha":672,"x_min":108,"x_max":621,"o":"m 621 40 l 621 -1 q 526 35 569 -1 q 432 142 482 72 l 264 375 l 153 258 l 153 0 l 108 0 l 108 711 l 153 700 l 153 318 l 500 696 l 560 696 l 294 407 l 471 158 q 621 40 558 40 z "},"λ":{"ha":804,"x_min":108,"x_max":753,"o":"m 753 13 l 719 -15 q 653 31 681 1 q 615 86 626 60 q 589 158 603 113 l 438 661 q 345 594 374 629 q 301 501 317 558 l 154 0 l 108 0 l 258 517 q 312 619 285 592 q 351 657 339 646 q 389 684 364 668 q 422 706 414 700 l 390 804 q 326 907 367 882 q 228 933 286 932 l 228 972 q 235 972 231 972 q 359 939 314 972 q 432 824 404 906 l 631 169 q 669 83 647 117 q 708 39 692 50 q 753 13 724 28 z "},"μ":{"ha":724,"x_min":108,"x_max":672,"o":"m 672 25 l 647 -4 q 619 15 636 -4 q 597 67 601 35 q 399 -15 538 -15 q 200 43 288 -15 l 178 57 q 153 78 172 61 l 153 -285 l 108 -279 l 108 696 l 153 696 l 153 133 q 257 58 186 90 q 403 25 331 25 q 533 63 475 25 q 592 197 592 100 l 592 699 l 636 708 l 636 90 q 672 25 638 38 z "},"ν":{"ha":694,"x_min":108,"x_max":643,"o":"m 400 0 l 350 0 l 108 696 l 154 696 l 375 61 l 597 696 l 643 696 l 400 0 z "},"ξ":{"ha":579,"x_min":108,"x_max":528,"o":"m 153 222 q 187 109 153 153 q 272 53 221 65 q 385 40 322 40 q 528 63 449 40 l 528 -281 l 485 -303 l 485 7 q 349 -4 422 -4 q 211 31 276 -4 q 108 228 108 83 l 108 483 q 170 645 108 582 q 318 714 232 708 q 254 839 254 761 q 294 937 254 890 q 419 983 335 983 l 479 983 l 458 942 l 411 942 q 331 912 361 942 q 301 844 301 882 q 325 769 301 806 q 392 720 349 733 q 497 686 435 707 l 483 647 q 371 671 428 671 q 267 657 314 671 q 187 597 221 643 q 153 479 153 551 l 153 222 z "},"ο":{"ha":678,"x_min":108,"x_max":626,"o":"m 626 439 l 626 256 q 563 63 626 139 q 369 -14 499 -14 q 174 63 240 -14 q 108 256 108 140 l 108 439 q 176 641 108 571 q 367 711 243 711 q 558 638 490 711 q 626 439 626 565 m 582 250 l 582 443 q 522 613 582 557 q 367 669 463 669 q 213 613 272 669 q 153 443 153 557 l 153 250 q 207 91 153 156 q 368 26 261 26 q 528 90 475 26 q 582 250 582 153 z "},"π":{"ha":721,"x_min":92,"x_max":654,"o":"m 654 32 l 629 1 q 614 11 624 4 q 589 46 604 18 q 574 110 574 74 l 575 656 l 136 656 l 136 0 l 92 0 l 92 696 l 618 696 l 618 103 q 654 32 621 56 z "},"ρ":{"ha":678,"x_min":108,"x_max":626,"o":"m 151 -281 l 108 -293 l 108 438 q 175 633 108 561 q 360 704 242 704 q 626 424 626 704 l 626 239 q 363 -14 626 -14 q 151 96 221 -14 l 151 -281 m 582 236 l 582 426 q 476 639 582 590 q 348 661 426 661 q 210 607 269 661 q 151 436 151 553 l 151 232 q 212 79 151 132 q 363 26 272 26 q 582 236 582 26 z "},"ς":{"ha":569,"x_min":108,"x_max":517,"o":"m 496 -204 l 460 -181 q 475 -140 475 -161 q 414 -26 475 -65 q 358 8 399 -17 q 300 44 317 33 q 250 77 283 54 q 202 115 217 100 q 165 156 188 131 q 133 203 143 181 q 108 315 108 257 l 108 510 q 166 642 108 583 q 347 701 224 701 q 431 692 392 701 q 486 674 469 683 l 503 664 l 486 626 q 354 660 438 660 q 212 622 271 660 q 153 504 153 585 l 153 325 q 212 168 153 231 q 428 13 271 106 q 517 -129 517 -40 q 496 -204 517 -168 z "},"σ":{"ha":722,"x_min":108,"x_max":671,"o":"m 626 431 l 626 243 q 369 -26 626 -26 q 173 45 238 -26 q 108 243 108 117 l 108 492 q 134 605 108 558 q 201 672 160 651 q 344 707 269 707 l 397 701 q 476 694 443 694 q 532 699 508 694 q 636 754 586 708 l 671 740 q 526 656 625 667 q 626 431 626 596 m 356 665 q 153 488 153 665 l 153 238 q 210 70 153 125 q 369 15 268 15 q 583 238 583 15 l 583 431 q 474 649 583 586 q 356 665 411 665 z "},"τ":{"ha":578,"x_min":108,"x_max":526,"o":"m 435 18 l 422 -18 q 319 51 347 4 q 292 183 292 97 l 292 650 l 108 650 l 108 694 l 526 694 l 526 650 l 336 650 l 336 183 q 358 69 336 103 q 435 18 381 36 z "},"υ":{"ha":714,"x_min":92,"x_max":619,"o":"m 575 229 l 575 696 l 619 696 l 619 239 q 356 -14 619 -14 q 92 239 92 -14 l 92 696 l 136 696 l 136 229 q 356 28 136 28 q 575 229 575 28 z "},"φ":{"ha":892,"x_min":108,"x_max":840,"o":"m 492 -296 l 449 -283 l 447 -7 l 369 -7 q 173 65 238 -7 q 108 263 108 136 l 108 436 q 269 699 108 647 l 292 663 q 190 592 229 647 q 151 438 151 536 l 151 249 q 212 88 151 142 q 369 33 272 33 l 447 33 l 447 558 q 485 663 450 622 q 585 704 519 704 q 772 628 703 704 q 840 426 840 553 l 840 263 q 776 65 840 136 q 579 -7 711 -7 l 492 -7 l 492 -296 m 797 254 l 797 440 q 776 549 797 503 q 719 618 754 594 q 597 663 656 663 q 492 550 492 663 l 492 32 l 579 32 q 741 90 685 32 q 797 254 797 149 z "},"χ":{"ha":774,"x_min":108,"x_max":724,"o":"m 724 -261 l 700 -294 q 604 -258 642 -294 q 532 -153 567 -221 l 376 163 l 150 -279 l 108 -262 l 353 210 l 111 696 l 160 696 l 376 257 l 603 696 l 653 696 l 400 208 l 574 -143 q 640 -232 606 -208 q 724 -261 674 -256 z "},"ψ":{"ha":893,"x_min":108,"x_max":840,"o":"m 493 -303 l 447 -293 l 447 -7 l 369 -7 q 173 65 238 -7 q 108 263 108 136 l 108 694 l 153 694 l 153 258 q 214 86 153 138 q 369 35 275 35 l 447 35 l 447 694 l 493 694 l 493 35 l 579 35 q 735 87 675 35 q 796 261 796 139 l 796 501 q 780 620 796 583 q 726 688 764 657 l 763 703 q 818 638 800 679 q 838 568 836 597 q 840 481 840 539 l 840 263 q 776 65 840 136 q 579 -7 711 -7 l 493 -7 l 493 -303 z "},"ω":{"ha":939,"x_min":92,"x_max":831,"o":"m 786 250 l 786 444 q 749 587 786 531 q 654 656 713 643 l 682 694 q 831 440 831 639 l 831 261 q 607 -17 831 -17 q 523 4 564 -17 q 461 65 482 25 q 399 5 440 26 q 315 -17 357 -17 q 92 261 92 -17 l 92 440 q 240 694 92 639 l 265 657 q 172 586 208 643 q 136 444 136 529 l 136 249 q 253 36 136 75 q 311 26 281 26 q 439 176 435 26 l 439 415 l 485 415 l 485 176 q 611 26 486 26 q 725 65 675 26 q 786 250 786 114 z "},"ϊ":{"ha":193,"x_min":-37,"x_max":242,"o":"m 124 0 l 79 0 l 79 696 l 124 696 l 124 0 m 21 809 q 21 803 21 809 q 12 788 21 797 q -9 779 3 779 q -29 788 -21 779 q -37 809 -37 797 q -29 830 -37 821 q -9 839 -21 839 q 12 830 3 839 q 21 809 21 821 m 242 810 q 242 805 242 810 q 233 790 242 799 q 212 781 224 781 q 191 790 200 781 q 182 810 182 799 q 191 831 182 822 q 212 840 200 840 q 233 831 224 840 q 242 810 242 822 z "},"ϋ":{"ha":688,"x_min":108,"x_max":636,"o":"m 592 229 l 592 696 l 636 696 l 636 239 q 372 -14 636 -14 q 108 239 108 -14 l 108 696 l 153 696 l 153 229 q 372 28 153 28 q 592 229 592 28 m 297 809 q 297 803 297 809 q 288 788 297 797 q 267 779 279 779 q 247 788 256 779 q 239 809 239 797 q 247 830 239 821 q 267 839 256 839 q 288 830 279 839 q 297 809 297 821 m 518 810 q 518 805 518 810 q 509 790 518 799 q 488 781 500 781 q 467 790 476 781 q 458 810 458 799 q 467 831 458 822 q 488 840 476 840 q 509 831 500 840 q 518 810 518 822 z "},"ό":{"ha":678,"x_min":108,"x_max":626,"o":"m 371 747 l 332 747 l 407 919 q 435 943 417 943 q 467 921 460 943 q 461 894 469 907 l 371 747 m 626 439 l 626 256 q 563 63 626 139 q 369 -14 499 -14 q 174 63 240 -14 q 108 256 108 140 l 108 439 q 176 641 108 571 q 367 711 243 711 q 558 638 490 711 q 626 439 626 565 m 582 250 l 582 443 q 522 613 582 557 q 367 669 463 669 q 213 613 272 669 q 153 443 153 557 l 153 250 q 207 91 153 156 q 368 26 261 26 q 528 90 475 26 q 582 250 582 153 z "},"ύ":{"ha":688,"x_min":108,"x_max":636,"o":"m 385 747 l 346 747 l 421 919 q 449 943 431 943 q 481 921 474 943 q 475 894 483 907 l 385 747 m 592 229 l 592 696 l 636 696 l 636 239 q 372 -14 636 -14 q 108 239 108 -14 l 108 696 l 153 696 l 153 229 q 372 28 153 28 q 592 229 592 28 z "},"ώ":{"ha":899,"x_min":108,"x_max":847,"o":"m 488 747 l 449 747 l 524 919 q 551 943 533 943 q 583 921 576 943 q 578 894 586 907 l 488 747 m 803 250 l 803 444 q 766 587 803 531 q 671 656 729 643 l 699 694 q 847 440 847 639 l 847 261 q 624 -17 847 -17 q 540 4 581 -17 q 478 65 499 25 q 415 5 457 26 q 332 -17 374 -17 q 108 261 108 -17 l 108 440 q 257 694 108 639 l 282 657 q 189 586 225 643 q 153 444 153 529 l 153 249 q 269 36 153 75 q 328 26 297 26 q 456 176 451 26 l 456 415 l 501 415 l 501 176 q 628 26 503 26 q 742 65 692 26 q 803 250 803 114 z "},"‘":{"ha":443,"x_min":-3,"x_max":118,"o":"m 31 875 l 38 874 q 58 847 58 864 q 49 822 58 831 q 28 814 40 814 q 7 824 17 814 q -3 846 -3 833 q 83 989 -3 918 l 118 965 q 63 924 85 947 q 36 889 40 901 l 31 875 z "},"’":{"ha":443,"x_min":-3,"x_max":118,"o":"m 32 778 l -3 801 q 53 842 31 819 q 81 878 75 865 l 85 892 l 78 893 q 57 919 57 903 q 66 944 57 936 q 88 953 75 953 q 109 943 100 953 q 118 921 118 933 q 32 778 118 849 z "},"‚":{"ha":238,"x_min":32,"x_max":153,"o":"m 67 -117 l 32 -93 q 87 -52 65 -75 q 114 -17 108 -29 l 119 -3 l 113 -1 q 92 25 92 8 q 101 50 92 42 q 122 58 110 58 q 143 49 133 58 q 153 26 153 39 q 67 -117 153 -46 z "},"“":{"ha":653,"x_min":-3,"x_max":328,"o":"m 31 881 l 38 879 q 58 853 58 869 q 49 828 58 836 q 28 819 40 819 q 7 829 17 819 q -3 851 -3 839 q 83 994 -3 924 l 118 971 q 63 930 85 953 q 36 894 40 907 l 31 881 m 240 881 l 247 879 q 268 853 268 869 q 259 828 268 836 q 238 819 250 819 q 216 829 225 819 q 207 851 207 839 q 293 994 207 924 l 328 971 q 272 930 294 953 q 244 894 250 907 l 240 881 z "},"”":{"ha":653,"x_min":-3,"x_max":328,"o":"m 32 778 l -3 801 q 53 842 31 819 q 81 878 75 865 l 85 892 l 78 893 q 57 919 57 903 q 66 944 57 936 q 88 953 75 953 q 109 943 100 953 q 118 921 118 933 q 32 778 118 849 m 242 778 l 207 801 q 262 842 240 819 q 289 878 283 865 l 294 892 l 288 893 q 267 919 267 903 q 276 944 267 936 q 297 953 285 953 q 318 943 308 953 q 328 921 328 933 q 242 778 328 849 z "},"„":{"ha":447,"x_min":32,"x_max":363,"o":"m 67 -114 l 32 -90 q 87 -49 65 -72 q 114 -14 108 -26 l 119 0 l 113 1 q 92 28 92 11 q 101 53 92 44 q 122 61 110 61 q 143 51 133 61 q 153 29 153 42 q 67 -114 153 -43 m 276 -114 l 242 -90 q 297 -49 275 -72 q 325 -14 319 -26 l 329 0 l 322 1 q 301 28 301 11 q 310 53 301 44 q 332 61 319 61 q 353 51 344 61 q 363 29 363 42 q 276 -114 363 -43 z "},"•":{"ha":656,"x_min":108,"x_max":604,"o":"m 531 292 q 495 256 531 292 q 356 219 458 219 q 181 292 253 219 q 108 468 108 365 q 181 643 108 571 q 356 715 253 715 q 531 643 458 715 q 604 468 604 571 q 531 292 604 365 z "},"…":{"ha":672,"x_min":32,"x_max":588,"o":"m 92 30 q 92 24 92 30 q 83 9 92 18 q 62 0 74 0 q 41 9 50 0 q 32 30 32 18 q 41 51 32 42 q 62 60 50 60 q 83 51 74 60 q 92 30 92 42 m 338 30 q 338 24 338 30 q 328 9 338 18 q 308 0 319 0 q 287 9 296 0 q 278 30 278 18 q 287 51 278 42 q 308 60 296 60 q 328 51 319 60 q 338 30 338 42 m 588 30 q 588 24 588 30 q 578 9 588 18 q 558 0 569 0 q 537 9 546 0 q 528 30 528 18 q 537 51 528 42 q 558 60 546 60 q 578 51 569 60 q 588 30 588 42 z "},"‰":{"ha":1454,"x_min":111,"x_max":1403,"o":"m 1344 43 q 1315 14 1344 43 q 1203 -15 1286 -15 q 1061 43 1119 -15 q 1003 185 1003 101 q 1061 326 1003 268 q 1203 385 1119 385 q 1344 326 1286 385 q 1403 185 1403 268 q 1344 43 1403 101 m 1317 74 q 1339 98 1317 74 q 1361 185 1361 122 q 1317 295 1361 247 q 1203 343 1274 343 q 1088 295 1132 343 q 1044 185 1044 247 q 1088 74 1044 122 q 1203 26 1132 26 q 1317 74 1274 26 m 151 1 l 122 35 l 890 1028 l 924 996 l 151 1 m 885 43 q 856 14 885 43 q 743 -15 826 -15 q 601 43 660 -15 q 543 185 543 101 q 601 326 543 268 q 743 385 660 385 q 885 326 826 385 q 943 185 943 268 q 885 43 943 101 m 858 74 q 880 98 858 74 q 901 185 901 122 q 858 295 901 247 q 743 343 814 343 q 628 295 672 343 q 585 185 585 247 q 628 74 585 122 q 743 26 672 26 q 858 74 814 26 m 453 668 q 424 639 453 668 q 311 610 394 610 q 169 668 228 610 q 111 810 111 726 q 169 951 111 893 q 311 1010 228 1010 q 453 951 394 1010 q 511 810 511 893 q 453 668 511 726 m 426 699 q 448 723 426 699 q 469 810 469 747 q 426 919 469 872 q 311 967 382 967 q 197 919 240 967 q 154 810 154 872 q 197 699 154 747 q 311 651 240 651 q 426 699 382 651 z "},"‹":{"ha":406,"x_min":58,"x_max":350,"o":"m 318 111 l 58 371 l 58 372 l 318 632 l 350 601 l 121 371 l 349 142 l 318 111 z "},"›":{"ha":414,"x_min":18,"x_max":310,"o":"m 310 371 l 50 111 l 19 142 l 247 371 l 18 601 l 50 632 l 310 372 l 310 371 z "},"⁄":{"ha":654,"x_min":108,"x_max":603,"o":"m 156 -158 l 108 -158 l 558 1135 l 603 1135 l 156 -158 z "},"€":{"ha":738,"x_min":108,"x_max":686,"o":"m 686 32 q 461 -14 568 -14 q 394 -10 439 -14 q 298 22 349 -6 q 216 108 247 49 q 185 254 185 167 l 185 383 l 108 383 l 108 428 l 185 428 l 185 529 l 108 529 l 108 574 l 185 574 l 185 700 q 215 860 185 806 q 306 951 244 914 q 456 986 368 986 q 651 940 565 986 l 636 907 q 465 944 544 944 q 289 885 353 944 q 247 817 264 861 q 229 713 229 772 l 229 574 l 553 574 l 553 529 l 229 529 l 229 428 l 553 428 l 553 383 l 229 383 l 229 257 q 353 44 229 93 q 478 25 401 25 q 675 71 554 25 l 686 32 z "},"™":{"ha":871,"x_min":175,"x_max":692,"o":"m 692 711 l 653 711 l 653 921 l 568 711 l 535 711 l 449 921 l 449 711 l 407 711 l 407 933 l 317 933 l 317 711 l 276 711 l 276 933 l 175 933 l 175 972 l 468 972 l 550 769 l 635 972 l 692 972 l 692 711 z "},"Ω":{"ha":874,"x_min":108,"x_max":822,"o":"m 822 0 l 506 0 l 506 43 q 671 96 596 49 q 737 167 711 121 q 763 272 763 213 l 763 703 q 702 881 763 821 q 543 940 642 940 l 388 940 q 228 880 288 940 q 169 703 169 819 l 169 272 q 214 139 169 193 q 425 43 290 50 l 425 0 l 108 0 l 122 43 l 272 43 q 160 137 194 82 q 126 272 126 192 l 126 699 q 192 904 126 826 q 388 982 257 982 l 543 982 q 739 904 674 982 q 804 699 804 826 l 804 272 q 769 137 804 189 q 657 43 733 85 l 806 43 l 822 0 z "},"∆":{"ha":861,"x_min":108,"x_max":810,"o":"m 810 0 l 108 0 l 433 972 l 476 972 l 810 0 m 749 42 l 456 907 l 168 42 l 749 42 z "},"ﬀ":{"ha":763,"x_min":108,"x_max":711,"o":"m 488 922 q 625 972 543 972 q 711 949 678 972 l 694 911 q 618 928 656 928 q 546 908 581 928 q 478 772 478 871 l 478 696 l 668 696 l 649 653 l 478 653 l 478 0 l 432 0 l 432 779 q 461 889 432 844 q 328 935 400 935 q 205 892 256 935 q 154 771 154 849 l 154 696 l 344 696 l 325 653 l 154 653 l 154 0 l 108 0 l 108 779 q 144 897 108 847 q 304 981 203 981 q 488 922 406 981 z "},"ﬁ":{"ha":539,"x_min":108,"x_max":489,"o":"m 489 0 l 444 0 l 444 696 l 489 696 l 489 0 m 447 888 q 313 939 382 939 q 198 892 244 939 q 151 769 151 846 l 151 696 l 344 696 l 325 653 l 151 653 l 151 0 l 108 0 l 108 779 q 168 929 108 874 q 310 985 228 985 q 476 917 403 985 l 447 888 z "},"ﬂ":{"ha":538,"x_min":108,"x_max":486,"o":"m 108 779 q 169 928 108 875 q 319 981 229 981 q 486 913 408 981 l 486 0 l 443 0 l 443 888 q 309 935 374 935 q 198 891 244 935 q 151 776 151 847 l 151 696 l 344 696 l 325 653 l 151 653 l 151 0 l 108 0 l 108 779 z "},"ﬄ":{"ha":857,"x_min":108,"x_max":806,"o":"m 485 924 q 633 979 540 979 q 806 913 726 979 l 806 0 l 763 0 l 763 888 q 628 935 693 935 q 517 891 564 935 q 471 776 471 847 l 471 696 l 664 696 l 644 653 l 471 653 l 471 0 l 428 0 l 428 779 q 460 889 428 843 q 326 935 397 935 q 204 891 254 935 q 154 771 154 847 l 154 696 l 344 696 l 325 653 l 154 653 l 154 0 l 108 0 l 108 779 q 167 925 108 869 q 308 981 225 981 q 485 924 392 981 z "}," ":{"ha":386,"x_min":0,"x_max":0,"o":""}}}
